<?xml version="1.0" standalone="no"?>
<!DOCTYPE svg PUBLIC "-//W3C//DTD SVG 1.1//EN" "http://www.w3.org/Graphics/SVG/1.1/DTD/svg11.dtd" >
<svg xmlns="http://www.w3.org/2000/svg" xmlns:xlink="http://www.w3.org/1999/xlink" version="1.1">
<metadata>
Created by FontForge 20190801 at Fri Sep  4 16:14:48 2015
 By Jimmy Wärting
Copyright 2014 Adobe Systems Incorporated. All Rights Reserved.
</metadata>
<defs>
<font id="AcuminProCond-Light" horiz-adv-x="400" >
  <font-face 
    font-family="Acumin Pro Condensed"
    font-weight="300"
    font-stretch="condensed"
    units-per-em="1000"
    panose-1="2 11 4 6 2 2 2 2 2 4"
    ascent="735"
    descent="-265"
    x-height="503"
    cap-height="680"
    bbox="-145 -262 890 984"
    underline-thickness="50"
    underline-position="-100"
    stemh="50"
    stemv="57"
    unicode-range="U+0020-FB02"
  />
<missing-glyph horiz-adv-x="500" 
d="M0 0v700h500v-700h-500zM250 395l170 255h-340zM280 350l170 -255v510zM80 50h340l-170 255zM50 605v-510l170 255z" />
    <glyph glyph-name="f_f" unicode="ff" horiz-adv-x="391" 
d="M265 453h-139v-453h-56v453h-69v50h69v79c0 69 18 136 107 136c11 0 28 -2 38 -5l-4 -51c-9 3 -19 4 -31 4c-45 0 -54 -30 -54 -85v-78h139v76c0 69 18 141 108 141c12 0 29 -2 38 -6l-3 -50c-9 2 -22 3 -32 3c-44 0 -55 -32 -55 -88v-76h83v-50h-83v-453h-56v453z" />
    <glyph glyph-name=".notdef" horiz-adv-x="500" 
d="M0 0v700h500v-700h-500zM250 395l170 255h-340zM280 350l170 -255v510zM80 50h340l-170 255zM50 605v-510l170 255z" />
    <glyph glyph-name="space" unicode=" " horiz-adv-x="193" 
 />
    <glyph glyph-name="A" unicode="A" horiz-adv-x="437" 
d="M308 232h-184l-55 -232h-57l166 680h75l173 -680h-62zM136 284h159c-45 181 -72 291 -81 341h-2c-9 -58 -39 -187 -76 -341z" />
    <glyph glyph-name="B" unicode="B" horiz-adv-x="455" 
d="M70 0v680h166c96 0 158 -59 158 -163c0 -93 -45 -132 -86 -146c53 -17 109 -66 109 -172c0 -120 -70 -199 -187 -199h-160zM127 392h85c89 0 125 41 125 120c0 71 -38 119 -113 119h-97v-239zM127 343v-294h98c87 0 134 55 134 149c0 98 -53 145 -148 145h-84z" />
    <glyph glyph-name="C" unicode="C" horiz-adv-x="438" 
d="M349 185h59c-3 -42 -21 -194 -178 -194c-176 0 -187 199 -187 355c0 190 48 344 196 344c158 0 165 -154 167 -190h-59c-1 23 -6 136 -109 136c-119 0 -134 -165 -134 -289c0 -149 17 -304 128 -304c98 0 114 104 117 142z" />
    <glyph glyph-name="D" unicode="D" horiz-adv-x="477" 
d="M70 0v680h142c150 0 222 -108 222 -321c0 -231 -64 -359 -233 -359h-131zM128 629v-578h69c135 0 177 108 177 305c0 190 -53 273 -176 273h-70z" />
    <glyph glyph-name="E" unicode="E" horiz-adv-x="401" 
d="M357 387v-52h-230v-283h255l-8 -52h-304v680h299v-52h-242v-241h230z" />
    <glyph glyph-name="F" unicode="F" horiz-adv-x="382" 
d="M70 0v680h300v-52h-242v-246h227v-51h-227v-331h-58z" />
    <glyph glyph-name="G" unicode="G" horiz-adv-x="468" 
d="M414 369v-369h-47c-2 18 -4 41 -4 79c-19 -45 -48 -88 -137 -88c-149 0 -183 161 -183 350c0 229 68 349 203 349c155 0 166 -140 168 -181h-58c-2 23 -7 129 -111 129c-103 0 -141 -116 -141 -296c0 -174 28 -300 130 -300s123 86 123 244v32h-128v51h185z" />
    <glyph glyph-name="H" unicode="H" horiz-adv-x="497" 
d="M70 0v680h58v-294h241v294h57v-680h-57v334h-241v-334h-58z" />
    <glyph glyph-name="I" unicode="I" horiz-adv-x="198" 
d="M70 680h58v-680h-58v680z" />
    <glyph glyph-name="J" unicode="J" horiz-adv-x="240" 
d="M175 680v-523c0 -85 -10 -166 -121 -166c-18 0 -39 2 -50 4v51c12 -2 27 -3 44 -3c60 0 70 38 70 108v529h57z" />
    <glyph glyph-name="K" unicode="K" horiz-adv-x="431" 
d="M70 0v680h57v-347c53 72 173 243 248 347h65l-201 -279l208 -401h-66l-181 354l-73 -96v-258h-57z" />
    <glyph glyph-name="L" unicode="L" horiz-adv-x="371" 
d="M70 0v680h58v-628h246l-10 -52h-294z" />
    <glyph glyph-name="M" unicode="M" horiz-adv-x="602" 
d="M474 0v303c0 131 2 257 4 326h-1c-26 -113 -96 -416 -154 -629h-58c-43 180 -118 507 -144 630h-2c4 -79 7 -231 7 -347v-283h-55v680h85c62 -223 123 -508 141 -593h1c12 67 87 378 148 593h85v-680h-57z" />
    <glyph glyph-name="N" unicode="N" horiz-adv-x="507" 
d="M125 0h-55v680h75c206 -506 232 -567 241 -595h1c-5 95 -6 198 -6 308v287h55v-680h-71c-214 529 -237 588 -244 613h-1c5 -85 5 -201 5 -323v-290z" />
    <glyph glyph-name="O" unicode="O" horiz-adv-x="472" 
d="M237 690c138 0 192 -115 192 -344c0 -225 -51 -355 -195 -355c-138 0 -191 124 -191 353c0 227 63 346 194 346zM235 638c-86 0 -132 -94 -132 -292c0 -206 44 -304 133 -304c92 0 133 97 133 302c0 213 -45 294 -134 294z" />
    <glyph glyph-name="P" unicode="P" horiz-adv-x="437" 
d="M70 0v680h165c105 0 175 -67 175 -184c0 -118 -63 -196 -186 -196h-96v-300h-58zM128 630v-279h90c86 0 133 47 133 145c0 78 -41 134 -124 134h-99z" />
    <glyph glyph-name="Q" unicode="Q" horiz-adv-x="472" 
d="M237 690c138 0 192 -115 192 -344c0 -144 -21 -250 -74 -307l123 -90l-35 -43l-135 100c-21 -10 -46 -15 -74 -15c-138 0 -191 124 -191 353c0 227 63 346 194 346zM235 638c-86 0 -132 -94 -132 -292c0 -206 44 -304 133 -304c92 0 133 97 133 302
c0 213 -45 294 -134 294z" />
    <glyph glyph-name="R" unicode="R" horiz-adv-x="448" 
d="M221 322h-93v-322h-58v680h167c110 0 166 -65 166 -172c0 -103 -48 -146 -92 -160c67 -22 85 -82 85 -175v-27c0 -58 1 -109 10 -146h-59c-9 31 -9 94 -9 148v22c0 99 -19 152 -117 152zM128 630v-258h97c87 0 119 53 119 135c0 72 -33 123 -113 123h-103z" />
    <glyph glyph-name="S" unicode="S" horiz-adv-x="417" 
d="M27 174h58c5 -74 43 -133 122 -133c75 0 116 40 116 128c0 78 -29 118 -124 164c-103 49 -151 96 -151 193c0 88 56 163 163 163c123 0 158 -91 160 -168h-57c-3 31 -13 118 -106 118c-72 0 -102 -50 -102 -108c0 -71 32 -104 119 -146c118 -57 157 -114 157 -211
c0 -108 -58 -183 -177 -183c-129 0 -172 86 -178 183z" />
    <glyph glyph-name="T" unicode="T" horiz-adv-x="357" 
d="M150 0v628h-154v52h365v-52h-154v-628h-57z" />
    <glyph glyph-name="U" unicode="U" horiz-adv-x="485" 
d="M64 680h59v-480c0 -83 24 -159 119 -159c97 0 121 64 121 159v480h57v-481c0 -124 -43 -209 -180 -209c-129 0 -176 80 -176 203v487z" />
    <glyph glyph-name="V" unicode="V" horiz-adv-x="434" 
d="M248 0h-71l-168 680h61l80 -335c24 -97 52 -222 61 -285h2c9 55 45 187 69 285l84 335h59z" />
    <glyph glyph-name="W" unicode="W" horiz-adv-x="683" 
d="M216 0h-63l-135 680h60c53 -272 100 -520 109 -601h1c9 81 88 435 122 601h58c33 -163 111 -525 120 -599h2c14 111 86 435 118 599h58l-148 -680h-64c-32 160 -104 503 -116 594h-2c-14 -101 -86 -433 -120 -594z" />
    <glyph glyph-name="X" unicode="X" horiz-adv-x="395" 
d="M398 0h-65l-137 303h-1l-137 -303h-61l166 353l-158 327h65l127 -272h1l130 272h62l-161 -320z" />
    <glyph glyph-name="Y" unicode="Y" horiz-adv-x="396" 
d="M226 0h-58v266c0 6 -1 12 -3 16l-173 398h64c50 -118 122 -288 143 -345c23 59 97 233 144 345h61l-175 -398c-2 -3 -3 -9 -3 -16v-266z" />
    <glyph glyph-name="Z" unicode="Z" horiz-adv-x="389" 
d="M13 0v44l298 584h-275v52h339v-47l-295 -581h300l-9 -52h-358z" />
    <glyph glyph-name="a" unicode="a" horiz-adv-x="404" 
d="M341 373v-292c0 -34 2 -68 4 -81h-52c-3 12 -5 40 -5 61c-18 -44 -58 -70 -121 -70c-97 0 -131 75 -131 144c0 88 59 159 193 159c26 0 41 0 57 -1v71c0 43 -9 99 -84 99c-84 0 -88 -61 -91 -95h-55c2 71 36 143 147 143c94 0 138 -46 138 -138zM287 213v32
c-13 2 -28 3 -55 3c-98 0 -139 -48 -139 -109c0 -53 28 -98 86 -98c79 0 108 54 108 172z" />
    <glyph glyph-name="b" unicode="b" horiz-adv-x="425" 
d="M64 137v576h56v-283c15 41 51 81 123 81c93 0 147 -76 147 -247c0 -154 -43 -272 -161 -272c-64 0 -95 32 -111 71c0 -18 -1 -41 -3 -63h-52c1 24 1 71 1 137zM332 263c0 137 -35 197 -101 197c-86 0 -114 -80 -114 -209c0 -122 21 -208 106 -208c72 0 109 70 109 220z
" />
    <glyph glyph-name="c" unicode="c" horiz-adv-x="382" 
d="M296 147h57c-2 -21 -14 -156 -154 -156c-126 0 -162 116 -162 261s47 260 169 260c139 0 147 -133 147 -154h-58c-1 21 -10 104 -89 104c-81 0 -111 -88 -111 -209c0 -131 32 -212 107 -212c79 0 90 80 94 106z" />
    <glyph glyph-name="d" unicode="d" horiz-adv-x="426" 
d="M307 713h56v-588c0 -45 0 -95 1 -125h-54c-1 13 -3 49 -3 73c-15 -47 -48 -82 -120 -82c-104 0 -150 87 -150 266c0 163 63 254 164 254c69 0 94 -30 106 -57v259zM95 257c0 -156 38 -214 104 -214c85 0 109 74 109 216c0 159 -25 201 -103 201c-65 0 -110 -59 -110 -203
z" />
    <glyph glyph-name="e" unicode="e" horiz-adv-x="395" 
d="M360 244h-266c0 -111 20 -203 106 -203c87 0 98 84 101 99h56c-1 -12 -16 -149 -157 -149c-143 0 -163 135 -163 260c0 159 52 260 167 260c127 0 157 -108 157 -232c0 -7 0 -21 -1 -35zM95 291h209c0 101 -23 171 -101 171c-101 0 -106 -137 -108 -171z" />
    <glyph glyph-name="f" unicode="f" horiz-adv-x="199" 
d="M126 0h-56v453h-69v50h69v77c0 71 22 138 111 138c12 0 29 -2 38 -5v-52c-9 2 -21 5 -35 5c-43 0 -58 -28 -58 -85v-78h82v-50h-82v-453z" />
    <glyph glyph-name="g" unicode="g" horiz-adv-x="429" 
d="M364 360v-331c0 -128 -28 -223 -169 -223c-125 0 -152 84 -155 136h57c2 -32 23 -87 99 -87c93 0 112 67 112 174v55c-17 -55 -61 -83 -120 -83c-100 0 -152 83 -152 245c0 184 69 265 163 265c69 0 100 -33 109 -70c0 25 3 53 4 62h53c-1 -24 -1 -76 -1 -143zM95 246
c0 -129 36 -194 105 -194c85 0 110 85 110 205c0 129 -21 203 -103 203c-74 0 -112 -76 -112 -214z" />
    <glyph glyph-name="h" unicode="h" horiz-adv-x="432" 
d="M64 713h57v-276c17 44 59 75 123 75c70 0 127 -43 127 -153v-359h-57v347c0 66 -21 113 -87 113c-76 0 -106 -64 -106 -159v-301h-57v713z" />
    <glyph glyph-name="i" unicode="i" horiz-adv-x="182" 
d="M63 0v503h56v-503h-56zM119 613h-56v100h56v-100z" />
    <glyph glyph-name="j" unicode="j" horiz-adv-x="185" 
d="M64 503h57v-543c0 -88 -12 -154 -101 -154c-7 0 -17 1 -27 2v51c9 -1 18 -1 23 -1c41 0 48 26 48 87v558zM122 613h-56v100h56v-100z" />
    <glyph glyph-name="k" unicode="k" horiz-adv-x="369" 
d="M119 713v-455c31 43 131 178 178 245h64c-47 -64 -99 -131 -147 -195l163 -308h-64l-136 263c-15 -18 -43 -55 -58 -74v-189h-56v713h56z" />
    <glyph glyph-name="l" unicode="l" horiz-adv-x="182" 
d="M119 0h-56v713h56v-713z" />
    <glyph glyph-name="m" unicode="m" horiz-adv-x="640" 
d="M63 0v352c0 86 0 127 -1 151h54c2 -16 3 -43 3 -69c18 46 53 77 113 77c52 0 90 -21 105 -77c17 43 56 77 121 77c59 0 120 -28 120 -144v-367h-56v356c0 55 -16 104 -78 104c-70 0 -95 -65 -95 -134v-326h-56v354c0 69 -23 106 -76 106c-66 0 -98 -63 -98 -143v-317h-56
z" />
    <glyph glyph-name="n" unicode="n" horiz-adv-x="433" 
d="M63 0v348c0 103 -1 133 -1 155h54c1 -12 3 -31 3 -71c17 44 53 80 122 80s129 -38 129 -154v-358h-57v349c0 65 -23 111 -85 111c-77 0 -108 -52 -108 -165v-295h-57z" />
    <glyph glyph-name="o" unicode="o" horiz-adv-x="409" 
d="M207 511c106 0 164 -84 164 -253c0 -175 -56 -267 -166 -267c-115 0 -168 89 -168 266c0 173 66 254 170 254zM204 461c-67 0 -109 -58 -109 -205c0 -148 40 -215 110 -215s108 69 108 216c0 136 -37 204 -109 204z" />
    <glyph glyph-name="p" unicode="p" horiz-adv-x="425" 
d="M119 -186h-56v542c0 69 0 116 -1 147h54c1 -8 3 -45 3 -72c18 48 55 80 122 80c96 0 147 -86 147 -253c0 -175 -62 -267 -161 -267c-64 0 -94 32 -108 65v-242zM330 255c0 129 -31 205 -103 205c-85 0 -110 -81 -110 -208c0 -121 13 -210 104 -210c72 0 109 85 109 213z
" />
    <glyph glyph-name="q" unicode="q" horiz-adv-x="426" 
d="M308 -186v255c-19 -47 -53 -78 -121 -78c-99 0 -150 85 -150 262c0 164 64 259 163 259c67 0 97 -33 108 -67c0 30 1 48 2 58h54c-1 -35 -1 -73 -1 -143v-546h-55zM95 252c0 -126 31 -211 105 -211c89 0 108 80 108 215c0 124 -13 204 -103 204c-69 0 -110 -78 -110 -208
z" />
    <glyph glyph-name="r" unicode="r" horiz-adv-x="261" 
d="M63 0v331c0 80 0 136 -1 172h54c1 -15 2 -39 2 -92c23 62 73 99 134 100v-62c-89 -4 -133 -70 -133 -162v-287h-56z" />
    <glyph glyph-name="s" unicode="s" horiz-adv-x="358" 
d="M24 142h56c5 -61 37 -103 99 -103c61 0 90 39 90 90c0 58 -30 84 -99 111c-98 38 -129 74 -129 143c0 67 41 129 137 129c105 0 137 -71 138 -139h-56c-2 27 -9 90 -84 90c-54 0 -78 -33 -78 -78c0 -43 18 -65 91 -93c93 -37 138 -71 138 -159c0 -89 -56 -142 -152 -142
c-97 0 -148 59 -151 151z" />
    <glyph glyph-name="t" unicode="t" horiz-adv-x="226" 
d="M-2 453v50h73v137h55v-137h91v-50h-91v-350c0 -37 8 -61 47 -61c12 0 29 1 38 3v-44c-16 -6 -39 -8 -55 -8c-51 0 -85 22 -85 97v363h-73z" />
    <glyph glyph-name="u" unicode="u" horiz-adv-x="428" 
d="M366 503v-369c0 -60 0 -110 1 -134h-53c-2 14 -3 33 -3 72c-17 -52 -61 -81 -123 -81c-53 0 -126 20 -126 150v362h57v-348c0 -70 21 -113 85 -113c59 0 105 37 105 157v304h57z" />
    <glyph glyph-name="v" unicode="v" horiz-adv-x="367" 
d="M11 503h60c45 -171 101 -383 110 -436h1c6 47 94 349 116 436h57l-145 -503h-61z" />
    <glyph glyph-name="w" unicode="w" horiz-adv-x="587" 
d="M18 503h60c53 -245 80 -368 90 -439h1c10 65 31 145 100 439h56c67 -292 88 -382 95 -436h1c8 56 30 153 94 436h58l-124 -503h-62c-38 169 -80 349 -92 429h-1c-10 -76 -49 -232 -96 -429h-64z" />
    <glyph glyph-name="x" unicode="x" horiz-adv-x="328" 
d="M1 503h63c58 -118 87 -170 100 -198h1c17 34 55 105 104 198h61l-134 -241l135 -262h-63c-54 110 -89 176 -104 208h-1c-14 -27 -54 -105 -106 -208h-61l135 254z" />
    <glyph glyph-name="y" unicode="y" horiz-adv-x="368" 
d="M11 503h62c61 -229 105 -385 112 -436h1c9 53 59 235 112 436h59l-148 -529c-40 -144 -72 -168 -144 -168c-10 0 -24 1 -33 3v52c7 -2 21 -3 32 -3c56 0 71 41 93 130z" />
    <glyph glyph-name="z" unicode="z" horiz-adv-x="323" 
d="M16 0v42c52 90 158 283 229 411h-213v50h278v-45c-52 -93 -161 -291 -228 -408h231l-9 -50h-288z" />
    <glyph glyph-name="Agrave" unicode="&#xc0;" horiz-adv-x="437" 
d="M308 232h-184l-55 -232h-57l166 680h75l173 -680h-62zM136 284h159c-45 181 -72 291 -81 341h-2c-9 -58 -39 -187 -76 -341zM60 844h77l111 -117h-63z" />
    <glyph glyph-name="Aacute" unicode="&#xc1;" horiz-adv-x="437" 
d="M308 232h-184l-55 -232h-57l166 680h75l173 -680h-62zM136 284h159c-45 181 -72 291 -81 341h-2c-9 -58 -39 -187 -76 -341zM292 852h74l-126 -117h-62z" />
    <glyph glyph-name="Acircumflex" unicode="&#xc2;" horiz-adv-x="437" 
d="M308 232h-184l-55 -232h-57l166 680h75l173 -680h-62zM136 284h159c-45 181 -72 291 -81 341h-2c-9 -58 -39 -187 -76 -341zM186 840h61l101 -112h-64l-68 74l-65 -74h-64z" />
    <glyph glyph-name="Atilde" unicode="&#xc3;" horiz-adv-x="437" 
d="M308 232h-184l-55 -232h-57l166 680h75l173 -680h-62zM136 284h159c-45 181 -72 291 -81 341h-2c-9 -58 -39 -187 -76 -341zM132 729h-42v14c0 55 27 76 63 76c46 0 96 -41 126 -41c15 0 25 6 25 33v10h42v-12c0 -58 -25 -80 -65 -80c-45 0 -90 41 -125 41
c-14 0 -24 -8 -24 -28v-13z" />
    <glyph glyph-name="Adieresis" unicode="&#xc4;" horiz-adv-x="437" 
d="M308 232h-184l-55 -232h-57l166 680h75l173 -680h-62zM136 284h159c-45 181 -72 291 -81 341h-2c-9 -58 -39 -187 -76 -341zM169 728h-54v100h54v-100zM320 728h-54v100h54v-100z" />
    <glyph glyph-name="Amacron" unicode="&#x100;" horiz-adv-x="437" 
d="M308 232h-184l-55 -232h-57l166 680h75l173 -680h-62zM136 284h159c-45 181 -72 291 -81 341h-2c-9 -58 -39 -187 -76 -341zM104 796h224v-50h-224v50z" />
    <glyph glyph-name="Abreve" unicode="&#x102;" horiz-adv-x="437" 
d="M308 232h-184l-55 -232h-57l166 680h75l173 -680h-62zM136 284h159c-45 181 -72 291 -81 341h-2c-9 -58 -39 -187 -76 -341zM93 833h47c7 -35 35 -59 76 -59c51 0 70 27 76 59h46c-9 -63 -51 -105 -122 -105c-81 0 -118 51 -123 105z" />
    <glyph glyph-name="Aring" unicode="&#xc5;" horiz-adv-x="437" 
d="M308 232h-184l-55 -232h-57l166 680h75l173 -680h-62zM136 284h159c-45 181 -72 291 -81 341h-2c-9 -58 -39 -187 -76 -341zM216 714c-52 0 -85 39 -85 83c0 46 31 85 84 85c54 0 86 -37 86 -84s-34 -84 -85 -84zM216 749c30 0 45 24 45 48s-14 50 -45 50
s-46 -22 -46 -48c0 -25 14 -50 46 -50z" />
    <glyph glyph-name="uni01CD" unicode="&#x1cd;" horiz-adv-x="437" 
d="M308 232h-184l-55 -232h-57l166 680h75l173 -680h-62zM136 284h159c-45 181 -72 291 -81 341h-2c-9 -58 -39 -187 -76 -341zM249 723h-65l-99 111h65l67 -76l66 76h63z" />
    <glyph glyph-name="uni1EA0" unicode="&#x1ea0;" horiz-adv-x="437" 
d="M308 232h-184l-55 -232h-57l166 680h75l173 -680h-62zM136 284h159c-45 181 -72 291 -81 341h-2c-9 -58 -39 -187 -76 -341zM246 -150h-58v84h58v-84z" />
    <glyph glyph-name="uni1EA2" unicode="&#x1ea2;" horiz-adv-x="437" 
d="M308 232h-184l-55 -232h-57l166 680h75l173 -680h-62zM136 284h159c-45 181 -72 291 -81 341h-2c-9 -58 -39 -187 -76 -341zM244 721h-58c39 33 54 53 54 79c0 18 -12 34 -39 34c-23 0 -41 -8 -55 -18l-16 37c18 14 46 28 82 28c53 0 82 -36 82 -72
c0 -42 -27 -68 -50 -88z" />
    <glyph glyph-name="uni1EA4" unicode="&#x1ea4;" horiz-adv-x="437" 
d="M308 232h-184l-55 -232h-57l166 680h75l173 -680h-62zM136 284h159c-45 181 -72 291 -81 341h-2c-9 -58 -39 -187 -76 -341zM186 823h62l104 -96h-65l-71 60l-69 -60h-65zM393 912h71l-96 -97h-60z" />
    <glyph glyph-name="uni1EA6" unicode="&#x1ea6;" horiz-adv-x="437" 
d="M308 232h-184l-55 -232h-57l166 680h75l173 -680h-62zM136 284h159c-45 181 -72 291 -81 341h-2c-9 -58 -39 -187 -76 -341zM186 823h62l104 -96h-65l-71 60l-69 -60h-65zM266 904h75l89 -96h-58z" />
    <glyph glyph-name="uni1EA8" unicode="&#x1ea8;" horiz-adv-x="437" 
d="M308 232h-184l-55 -232h-57l166 680h75l173 -680h-62zM136 284h159c-45 181 -72 291 -81 341h-2c-9 -58 -39 -187 -76 -341zM374 814h-53c36 30 49 47 49 69c0 16 -8 29 -35 29c-18 0 -36 -6 -51 -17l-16 33c15 12 41 28 77 28c48 0 75 -30 75 -66c0 -34 -24 -59 -46 -76
zM186 823h62l104 -96h-65l-71 60l-69 -60h-65z" />
    <glyph glyph-name="uni1EAA" unicode="&#x1eaa;" horiz-adv-x="437" 
d="M308 232h-184l-55 -232h-57l166 680h75l173 -680h-62zM136 284h159c-45 181 -72 291 -81 341h-2c-9 -58 -39 -187 -76 -341zM130 835h-39v9c0 50 26 69 60 69c46 0 94 -33 126 -33c14 0 25 4 25 25v8h40v-10c0 -49 -23 -68 -61 -68c-40 0 -95 34 -128 34
c-13 0 -23 -9 -23 -27v-7zM185 802h60l107 -81h-69l-68 49l-67 -49h-68z" />
    <glyph glyph-name="uni1EAC" unicode="&#x1eac;" horiz-adv-x="437" 
d="M308 232h-184l-55 -232h-57l166 680h75l173 -680h-62zM136 284h159c-45 181 -72 291 -81 341h-2c-9 -58 -39 -187 -76 -341zM246 -150h-58v84h58v-84zM186 839h61l101 -112h-64l-68 74l-65 -74h-64z" />
    <glyph glyph-name="uni1EAE" unicode="&#x1eae;" horiz-adv-x="437" 
d="M308 232h-184l-55 -232h-57l166 680h75l173 -680h-62zM136 284h159c-45 181 -72 291 -81 341h-2c-9 -58 -39 -187 -76 -341zM87 814h50c13 -24 37 -46 81 -46c53 0 71 23 82 46h49c-13 -48 -51 -93 -131 -93c-93 0 -124 60 -131 93zM269 925h76l-101 -90h-60z" />
    <glyph glyph-name="uni1EB0" unicode="&#x1eb0;" horiz-adv-x="437" 
d="M308 232h-184l-55 -232h-57l166 680h75l173 -680h-62zM136 284h159c-45 181 -72 291 -81 341h-2c-9 -58 -39 -187 -76 -341zM87 814h50c13 -24 37 -46 81 -46c53 0 71 23 82 46h49c-13 -48 -51 -93 -131 -93c-93 0 -124 60 -131 93zM92 925h89l84 -90h-71z" />
    <glyph glyph-name="uni1EB2" unicode="&#x1eb2;" horiz-adv-x="437" 
d="M308 232h-184l-55 -232h-57l166 680h75l173 -680h-62zM136 284h159c-45 181 -72 291 -81 341h-2c-9 -58 -39 -187 -76 -341zM240 834h-56c36 28 53 47 53 68c0 17 -10 30 -36 30c-21 0 -40 -9 -53 -17l-16 32c16 13 42 27 79 27c49 0 75 -28 75 -64s-25 -60 -46 -76z
M86 816h51c11 -24 36 -46 81 -46c53 0 71 23 82 46h50c-14 -48 -53 -93 -132 -93c-92 0 -124 59 -132 93z" />
    <glyph glyph-name="uni1EB4" unicode="&#x1eb4;" horiz-adv-x="437" 
d="M308 232h-184l-55 -232h-57l166 680h75l173 -680h-62zM136 284h159c-45 181 -72 291 -81 341h-2c-9 -58 -39 -187 -76 -341zM132 854h-39v9c0 49 26 68 60 68c46 0 94 -33 126 -33c14 0 25 4 25 25v9h40v-11c0 -49 -23 -68 -61 -68c-40 0 -95 34 -128 34
c-13 0 -23 -9 -23 -27v-6zM86 816h51c11 -24 37 -46 81 -46c53 0 71 23 82 46h49c-13 -48 -52 -94 -131 -94c-92 0 -124 59 -132 94z" />
    <glyph glyph-name="uni1EB6" unicode="&#x1eb6;" horiz-adv-x="437" 
d="M308 232h-184l-55 -232h-57l166 680h75l173 -680h-62zM136 284h159c-45 181 -72 291 -81 341h-2c-9 -58 -39 -187 -76 -341zM246 -150h-58v84h58v-84zM95 839h47c7 -35 35 -59 76 -59c51 0 70 27 76 59h46c-9 -63 -51 -105 -122 -105c-81 0 -118 51 -123 105z" />
    <glyph glyph-name="Aogonek" unicode="&#x104;" horiz-adv-x="437" 
d="M308 232h-184l-55 -232h-57l166 680h75l173 -680h-1c-35 -35 -50 -69 -50 -96c0 -31 19 -46 46 -46c16 0 31 2 45 9l7 -44c-19 -13 -42 -15 -67 -15c-52 0 -88 32 -88 86c0 34 17 74 47 106h-1zM136 284h159c-45 181 -72 291 -81 341h-2c-9 -58 -39 -187 -76 -341z" />
    <glyph glyph-name="AE" unicode="&#xc6;" horiz-adv-x="665" 
d="M294 680h339v-52h-246v-244h234v-52h-234v-280h259l-8 -52h-308v259h-164l-114 -259h-61zM189 311h141v321h-2c-35 -80 -78 -179 -139 -321z" />
    <glyph glyph-name="Ccedilla" unicode="&#xc7;" horiz-adv-x="438" 
d="M349 185h59c-3 -40 -19 -177 -153 -193l-19 -34c35 -8 80 -26 80 -79s-43 -77 -93 -77c-29 0 -54 6 -70 16l11 43c14 -8 40 -13 56 -13c30 0 42 10 42 29c0 28 -33 42 -80 46v20l26 49c-155 16 -165 205 -165 354c0 190 48 344 196 344c158 0 165 -154 167 -190h-59
c-1 23 -6 136 -109 136c-119 0 -134 -165 -134 -289c0 -149 17 -304 128 -304c98 0 114 104 117 142z" />
    <glyph glyph-name="Cacute" unicode="&#x106;" horiz-adv-x="438" 
d="M349 185h59c-3 -42 -21 -194 -178 -194c-176 0 -187 199 -187 355c0 190 48 344 196 344c158 0 165 -154 167 -190h-59c-1 23 -6 136 -109 136c-119 0 -134 -165 -134 -289c0 -149 17 -304 128 -304c98 0 114 104 117 142zM299 854h74l-126 -117h-62z" />
    <glyph glyph-name="Ccircumflex" unicode="&#x108;" horiz-adv-x="438" 
d="M349 185h59c-3 -42 -21 -194 -178 -194c-176 0 -187 199 -187 355c0 190 48 344 196 344c158 0 165 -154 167 -190h-59c-1 23 -6 136 -109 136c-119 0 -134 -165 -134 -289c0 -149 17 -304 128 -304c98 0 114 104 117 142zM196 849h61l101 -112h-64l-68 74l-65 -74h-64z
" />
    <glyph glyph-name="Ccaron" unicode="&#x10c;" horiz-adv-x="438" 
d="M349 185h59c-3 -42 -21 -194 -178 -194c-176 0 -187 199 -187 355c0 190 48 344 196 344c158 0 165 -154 167 -190h-59c-1 23 -6 136 -109 136c-119 0 -134 -165 -134 -289c0 -149 17 -304 128 -304c98 0 114 104 117 142zM261 732h-65l-99 111h65l67 -76l66 76h63z" />
    <glyph glyph-name="Cdotaccent" unicode="&#x10a;" horiz-adv-x="438" 
d="M349 185h59c-3 -42 -21 -194 -178 -194c-176 0 -187 199 -187 355c0 190 48 344 196 344c158 0 165 -154 167 -190h-59c-1 23 -6 136 -109 136c-119 0 -134 -165 -134 -289c0 -149 17 -304 128 -304c98 0 114 104 117 142zM256 746h-57v96h57v-96z" />
    <glyph glyph-name="Dcaron" unicode="&#x10e;" horiz-adv-x="477" 
d="M70 0v680h142c150 0 222 -108 222 -321c0 -231 -64 -359 -233 -359h-131zM128 629v-578h69c135 0 177 108 177 305c0 190 -53 273 -176 273h-70zM250 728h-65l-99 111h65l67 -76l66 76h63z" />
    <glyph glyph-name="uni1E0C" unicode="&#x1e0c;" horiz-adv-x="477" 
d="M70 0v680h142c150 0 222 -108 222 -321c0 -231 -64 -359 -233 -359h-131zM128 629v-578h69c135 0 177 108 177 305c0 190 -53 273 -176 273h-70zM246 -160h-58v84h58v-84z" />
    <glyph glyph-name="uni1E0E" unicode="&#x1e0e;" horiz-adv-x="477" 
d="M70 0v680h142c150 0 222 -108 222 -321c0 -231 -64 -359 -233 -359h-131zM128 629v-578h69c135 0 177 108 177 305c0 190 -53 273 -176 273h-70zM111 -92h217v-52h-217v52z" />
    <glyph glyph-name="Dcroat" unicode="&#x110;" horiz-adv-x="487" 
d="M8 384h72v296h142c150 0 222 -108 222 -321c0 -231 -64 -359 -233 -359h-131v333h-72v51zM138 629v-245h146v-51h-146v-282h69c135 0 177 108 177 305c0 190 -53 273 -176 273h-70z" />
    <glyph glyph-name="Egrave" unicode="&#xc8;" horiz-adv-x="401" 
d="M357 387v-52h-230v-283h255l-8 -52h-304v680h299v-52h-242v-241h230zM61 852h77l111 -117h-63z" />
    <glyph glyph-name="Eacute" unicode="&#xc9;" horiz-adv-x="401" 
d="M357 387v-52h-230v-283h255l-8 -52h-304v680h299v-52h-242v-241h230zM291 849h74l-126 -117h-62z" />
    <glyph glyph-name="Ecircumflex" unicode="&#xca;" horiz-adv-x="401" 
d="M357 387v-52h-230v-283h255l-8 -52h-304v680h299v-52h-242v-241h230zM187 839h61l101 -112h-64l-68 74l-65 -74h-64z" />
    <glyph glyph-name="Ecaron" unicode="&#x11a;" horiz-adv-x="401" 
d="M357 387v-52h-230v-283h255l-8 -52h-304v680h299v-52h-242v-241h230zM252 732h-65l-99 111h65l67 -76l66 76h63z" />
    <glyph glyph-name="Edieresis" unicode="&#xcb;" horiz-adv-x="401" 
d="M357 387v-52h-230v-283h255l-8 -52h-304v680h299v-52h-242v-241h230zM170 739h-54v100h54v-100zM321 739h-54v100h54v-100z" />
    <glyph glyph-name="Emacron" unicode="&#x112;" horiz-adv-x="401" 
d="M357 387v-52h-230v-283h255l-8 -52h-304v680h299v-52h-242v-241h230zM107 803h224v-50h-224v50z" />
    <glyph glyph-name="Ebreve" unicode="&#x114;" horiz-adv-x="401" 
d="M357 387v-52h-230v-283h255l-8 -52h-304v680h299v-52h-242v-241h230zM96 841h47c7 -35 35 -59 76 -59c51 0 70 27 76 59h46c-9 -63 -51 -105 -122 -105c-81 0 -118 51 -123 105z" />
    <glyph glyph-name="Edotaccent" unicode="&#x116;" horiz-adv-x="401" 
d="M357 387v-52h-230v-283h255l-8 -52h-304v680h299v-52h-242v-241h230zM247 746h-57v96h57v-96z" />
    <glyph glyph-name="uni1EB8" unicode="&#x1eb8;" horiz-adv-x="401" 
d="M357 387v-52h-230v-283h255l-8 -52h-304v680h299v-52h-242v-241h230zM257 -158h-58v84h58v-84z" />
    <glyph glyph-name="uni1EBA" unicode="&#x1eba;" horiz-adv-x="401" 
d="M357 387v-52h-230v-283h255l-8 -52h-304v680h299v-52h-242v-241h230zM247 729h-58c39 33 54 53 54 79c0 18 -12 34 -39 34c-23 0 -41 -8 -55 -18l-16 37c18 14 46 28 82 28c53 0 82 -36 82 -72c0 -42 -27 -68 -50 -88z" />
    <glyph glyph-name="uni1EBC" unicode="&#x1ebc;" horiz-adv-x="401" 
d="M357 387v-52h-230v-283h255l-8 -52h-304v680h299v-52h-242v-241h230zM133 747h-42v14c0 55 27 76 63 76c46 0 96 -41 126 -41c15 0 25 6 25 33v10h42v-12c0 -58 -25 -80 -65 -80c-45 0 -90 41 -125 41c-14 0 -24 -8 -24 -28v-13z" />
    <glyph glyph-name="uni1EBE" unicode="&#x1ebe;" horiz-adv-x="401" 
d="M357 387v-52h-230v-283h255l-8 -52h-304v680h299v-52h-242v-241h230zM187 833h62l104 -96h-65l-71 60l-69 -60h-65zM394 922h71l-96 -97h-60z" />
    <glyph glyph-name="uni1EC0" unicode="&#x1ec0;" horiz-adv-x="401" 
d="M357 387v-52h-230v-283h255l-8 -52h-304v680h299v-52h-242v-241h230zM187 833h62l104 -96h-65l-71 60l-69 -60h-65zM267 914h75l89 -96h-58z" />
    <glyph glyph-name="uni1EC2" unicode="&#x1ec2;" horiz-adv-x="401" 
d="M357 387v-52h-230v-283h255l-8 -52h-304v680h299v-52h-242v-241h230zM375 819h-53c36 30 49 47 49 69c0 16 -8 29 -35 29c-18 0 -36 -6 -51 -17l-16 33c15 12 41 28 77 28c48 0 75 -30 75 -66c0 -34 -24 -59 -46 -76zM187 828h62l104 -96h-65l-71 60l-69 -60h-65z" />
    <glyph glyph-name="uni1EC4" unicode="&#x1ec4;" horiz-adv-x="401" 
d="M357 387v-52h-230v-283h255l-8 -52h-304v680h299v-52h-242v-241h230zM133 845h-39v9c0 50 26 69 60 69c46 0 94 -33 126 -33c14 0 25 4 25 25v8h40v-10c0 -49 -23 -68 -61 -68c-40 0 -95 34 -128 34c-13 0 -23 -9 -23 -27v-7zM188 812h60l107 -81h-69l-68 49l-67 -49h-68
z" />
    <glyph glyph-name="uni1EC6" unicode="&#x1ec6;" horiz-adv-x="401" 
d="M357 387v-52h-230v-283h255l-8 -52h-304v680h299v-52h-242v-241h230zM257 -160h-58v84h58v-84zM187 849h61l101 -112h-64l-68 74l-65 -74h-64z" />
    <glyph glyph-name="Eogonek" unicode="&#x118;" horiz-adv-x="401" 
d="M357 387v-52h-230v-283h255l-8 -52h-30c-35 -35 -50 -69 -50 -96c0 -31 19 -46 46 -46c16 0 31 2 45 9l7 -44c-19 -13 -42 -15 -67 -15c-52 0 -88 32 -88 86c0 34 17 74 47 106h-214v680h299v-52h-242v-241h230z" />
    <glyph glyph-name="Gcircumflex" unicode="&#x11c;" horiz-adv-x="468" 
d="M414 369v-369h-47c-2 18 -4 41 -4 79c-19 -45 -48 -88 -137 -88c-149 0 -183 161 -183 350c0 229 68 349 203 349c155 0 166 -140 168 -181h-58c-2 23 -7 129 -111 129c-103 0 -141 -116 -141 -296c0 -174 28 -300 130 -300s123 86 123 244v32h-128v51h185zM210 849h61
l101 -112h-64l-68 74l-65 -74h-64z" />
    <glyph glyph-name="Gbreve" unicode="&#x11e;" horiz-adv-x="468" 
d="M414 369v-369h-47c-2 18 -4 41 -4 79c-19 -45 -48 -88 -137 -88c-149 0 -183 161 -183 350c0 229 68 349 203 349c155 0 166 -140 168 -181h-58c-2 23 -7 129 -111 129c-103 0 -141 -116 -141 -296c0 -174 28 -300 130 -300s123 86 123 244v32h-128v51h185zM119 841h47
c7 -35 35 -59 76 -59c51 0 70 27 76 59h46c-9 -63 -51 -105 -122 -105c-81 0 -118 51 -123 105z" />
    <glyph glyph-name="Gdotaccent" unicode="&#x120;" horiz-adv-x="468" 
d="M414 369v-369h-47c-2 18 -4 41 -4 79c-19 -45 -48 -88 -137 -88c-149 0 -183 161 -183 350c0 229 68 349 203 349c155 0 166 -140 168 -181h-58c-2 23 -7 129 -111 129c-103 0 -141 -116 -141 -296c0 -174 28 -300 130 -300s123 86 123 244v32h-128v51h185zM270 746h-57
v96h57v-96z" />
    <glyph glyph-name="uni0122" unicode="&#x122;" horiz-adv-x="468" 
d="M414 369v-369h-47c-2 18 -4 41 -4 79c-19 -45 -48 -88 -137 -88c-149 0 -183 161 -183 350c0 229 68 349 203 349c155 0 166 -140 168 -181h-58c-2 23 -7 129 -111 129c-103 0 -141 -116 -141 -296c0 -174 28 -300 130 -300s123 86 123 244v32h-128v51h185zM233 -218h-52
c22 59 31 110 35 164h58c-5 -59 -21 -126 -41 -164z" />
    <glyph glyph-name="Gcaron" unicode="&#x1e6;" horiz-adv-x="468" 
d="M414 369v-369h-47c-2 18 -4 41 -4 79c-19 -45 -48 -88 -137 -88c-149 0 -183 161 -183 350c0 229 68 349 203 349c155 0 166 -140 168 -181h-58c-2 23 -7 129 -111 129c-103 0 -141 -116 -141 -296c0 -174 28 -300 130 -300s123 86 123 244v32h-128v51h185zM275 732h-65
l-99 111h65l67 -76l66 76h63z" />
    <glyph glyph-name="uni1E20" unicode="&#x1e20;" horiz-adv-x="468" 
d="M414 369v-369h-47c-2 18 -4 41 -4 79c-19 -45 -48 -88 -137 -88c-149 0 -183 161 -183 350c0 229 68 349 203 349c155 0 166 -140 168 -181h-58c-2 23 -7 129 -111 129c-103 0 -141 -116 -141 -296c0 -174 28 -300 130 -300s123 86 123 244v32h-128v51h185zM130 803h224
v-50h-224v50z" />
    <glyph glyph-name="uni00470303" horiz-adv-x="468" 
d="M414 369v-369h-47c-2 18 -4 41 -4 79c-19 -45 -48 -88 -137 -88c-149 0 -183 161 -183 350c0 229 68 349 203 349c155 0 166 -140 168 -181h-58c-2 23 -7 129 -111 129c-103 0 -141 -116 -141 -296c0 -174 28 -300 130 -300s123 86 123 244v32h-128v51h185zM156 747h-42
v14c0 55 27 76 63 76c46 0 96 -41 126 -41c15 0 25 6 25 33v10h42v-12c0 -58 -25 -80 -65 -80c-45 0 -90 41 -125 41c-14 0 -24 -8 -24 -28v-13z" />
    <glyph glyph-name="Hcircumflex" unicode="&#x124;" horiz-adv-x="497" 
d="M70 0v680h58v-294h241v294h57v-680h-57v334h-241v-334h-58zM216 849h61l101 -112h-64l-68 74l-65 -74h-64z" />
    <glyph glyph-name="uni1E24" unicode="&#x1e24;" horiz-adv-x="497" 
d="M70 0v680h58v-294h241v294h57v-680h-57v334h-241v-334h-58zM276 -160h-58v84h58v-84z" />
    <glyph glyph-name="uni1E2A" unicode="&#x1e2a;" horiz-adv-x="497" 
d="M70 0v680h58v-294h241v294h57v-680h-57v334h-241v-334h-58zM130 -60h46c7 -36 28 -65 71 -65c50 0 65 33 72 65h46c-8 -65 -47 -112 -118 -112c-78 0 -113 58 -117 112z" />
    <glyph glyph-name="Hbar" unicode="&#x126;" horiz-adv-x="497" 
d="M16 548h54v132h58v-132h241v132h57v-132h51v-47h-51v-501h-57v334h-241v-334h-58v501h-54v47zM128 385h241v116h-241v-116z" />
    <glyph glyph-name="Igrave" unicode="&#xcc;" horiz-adv-x="198" 
d="M70 680h58v-680h-58v680zM-52 853h77l111 -117h-63z" />
    <glyph glyph-name="Iacute" unicode="&#xcd;" horiz-adv-x="198" 
d="M70 680h58v-680h-58v680zM181 852h74l-126 -117h-62z" />
    <glyph glyph-name="Icircumflex" unicode="&#xce;" horiz-adv-x="198" 
d="M70 680h58v-680h-58v680zM67 847h61l101 -112h-64l-68 74l-65 -74h-64z" />
    <glyph glyph-name="Itilde" unicode="&#x128;" horiz-adv-x="198" 
d="M70 680h58v-680h-58v680zM13 747h-42v14c0 55 27 76 63 76c46 0 96 -41 126 -41c15 0 25 6 25 33v10h42v-12c0 -58 -25 -80 -65 -80c-45 0 -90 41 -125 41c-14 0 -24 -8 -24 -28v-13z" />
    <glyph glyph-name="Idieresis" unicode="&#xcf;" horiz-adv-x="198" 
d="M70 680h58v-680h-58v680zM50 744h-54v100h54v-100zM201 744h-54v100h54v-100z" />
    <glyph glyph-name="Imacron" unicode="&#x12a;" horiz-adv-x="198" 
d="M70 680h58v-680h-58v680zM-13 803h224v-50h-224v50z" />
    <glyph glyph-name="Idotaccent" unicode="&#x130;" horiz-adv-x="198" 
d="M70 680h58v-680h-58v680zM127 746h-57v96h57v-96z" />
    <glyph glyph-name="uni01CF" unicode="&#x1cf;" horiz-adv-x="198" 
d="M70 680h58v-680h-58v680zM132 732h-65l-99 111h65l67 -76l66 76h63z" />
    <glyph glyph-name="uni1EC8" unicode="&#x1ec8;" horiz-adv-x="198" 
d="M70 680h58v-680h-58v680zM127 729h-58c39 33 54 53 54 79c0 18 -12 34 -39 34c-23 0 -41 -8 -55 -18l-16 37c18 14 46 28 82 28c53 0 82 -36 82 -72c0 -42 -27 -68 -50 -88z" />
    <glyph glyph-name="uni1ECA" unicode="&#x1eca;" horiz-adv-x="198" 
d="M70 680h58v-680h-58v680zM128 -160h-58v84h58v-84z" />
    <glyph glyph-name="Iogonek" unicode="&#x12e;" horiz-adv-x="198" 
d="M70 680h58v-680h-2c-35 -35 -50 -69 -50 -96c0 -31 19 -46 46 -46c16 0 31 2 45 9l7 -44c-19 -13 -42 -15 -67 -15c-52 0 -88 32 -88 86c0 36 19 77 51 110v676z" />
    <glyph glyph-name="Jcircumflex" unicode="&#x134;" horiz-adv-x="240" 
d="M175 680v-523c0 -85 -10 -166 -121 -166c-18 0 -39 2 -50 4v51c12 -2 27 -3 44 -3c60 0 70 38 70 108v529h57zM113 840h61l101 -112h-64l-68 74l-65 -74h-64z" />
    <glyph glyph-name="uni0136" unicode="&#x136;" horiz-adv-x="431" 
d="M70 0v680h57v-347c53 72 173 243 248 347h65l-201 -279l208 -401h-66l-181 354l-73 -96v-258h-57zM234 -208h-52c22 59 31 110 35 164h58c-5 -59 -21 -126 -41 -164z" />
    <glyph glyph-name="Lacute" unicode="&#x139;" horiz-adv-x="371" 
d="M70 0v680h58v-628h246l-10 -52h-294zM177 851h74l-126 -117h-62z" />
    <glyph glyph-name="Lcaron" unicode="&#x13d;" horiz-adv-x="371" 
d="M70 0v680h58v-628h246l-10 -52h-294zM287 462h-42l-4 220h51z" />
    <glyph glyph-name="uni013B" unicode="&#x13b;" horiz-adv-x="371" 
d="M70 0v680h58v-628h246l-10 -52h-294zM204 -218h-52c22 59 31 110 35 164h58c-5 -59 -21 -126 -41 -164z" />
    <glyph glyph-name="Ldot" unicode="&#x13f;" horiz-adv-x="371" 
d="M281 307h-54v129h54v-129zM70 0v680h58v-628h246l-10 -52h-294z" />
    <glyph glyph-name="uni1E36" unicode="&#x1e36;" horiz-adv-x="371" 
d="M70 0v680h58v-628h246l-10 -52h-294zM251 -152h-58v84h58v-84z" />
    <glyph glyph-name="uni1E38" unicode="&#x1e38;" horiz-adv-x="371" 
d="M70 0v680h58v-628h246l-10 -52h-294zM260 -160h-58v84h58v-84zM-11 801h224v-50h-224v50z" />
    <glyph glyph-name="uni1E3A" unicode="&#x1e3a;" horiz-adv-x="371" 
d="M70 0v680h58v-628h246l-10 -52h-294zM114 -84h217v-52h-217v52z" />
    <glyph glyph-name="Lslash" unicode="&#x141;" horiz-adv-x="381" 
d="M257 397l-119 -68v-277h246l-10 -52h-294v295l-75 -43v50l75 44v334h58v-300l119 69v-52z" />
    <glyph glyph-name="uni1E42" unicode="&#x1e42;" horiz-adv-x="602" 
d="M474 0v303c0 131 2 257 4 326h-1c-26 -113 -96 -416 -154 -629h-58c-43 180 -118 507 -144 630h-2c4 -79 7 -231 7 -347v-283h-55v680h85c62 -223 123 -508 141 -593h1c12 67 87 378 148 593h85v-680h-57zM323 -152h-58v84h58v-84z" />
    <glyph glyph-name="Nacute" unicode="&#x143;" horiz-adv-x="507" 
d="M125 0h-55v680h75c206 -506 232 -567 241 -595h1c-5 95 -6 198 -6 308v287h55v-680h-71c-214 529 -237 588 -244 613h-1c5 -85 5 -201 5 -323v-290zM323 846h74l-126 -117h-62z" />
    <glyph glyph-name="Ncaron" unicode="&#x147;" horiz-adv-x="507" 
d="M125 0h-55v680h75c206 -506 232 -567 241 -595h1c-5 95 -6 198 -6 308v287h55v-680h-71c-214 529 -237 588 -244 613h-1c5 -85 5 -201 5 -323v-290zM284 725h-65l-99 111h65l67 -76l66 76h63z" />
    <glyph glyph-name="Ntilde" unicode="&#xd1;" horiz-adv-x="507" 
d="M125 0h-55v680h75c206 -506 232 -567 241 -595h1c-5 95 -6 198 -6 308v287h55v-680h-71c-214 529 -237 588 -244 613h-1c5 -85 5 -201 5 -323v-290zM165 747h-42v14c0 55 27 76 63 76c46 0 96 -41 126 -41c15 0 25 6 25 33v10h42v-12c0 -58 -25 -80 -65 -80
c-45 0 -90 41 -125 41c-14 0 -24 -8 -24 -28v-13z" />
    <glyph glyph-name="uni0145" unicode="&#x145;" horiz-adv-x="507" 
d="M125 0h-55v680h75c206 -506 232 -567 241 -595h1c-5 95 -6 198 -6 308v287h55v-680h-71c-214 529 -237 588 -244 613h-1c5 -85 5 -201 5 -323v-290zM249 -218h-52c22 59 31 110 35 164h58c-5 -59 -21 -126 -41 -164z" />
    <glyph glyph-name="uni1E44" unicode="&#x1e44;" horiz-adv-x="507" 
d="M125 0h-55v680h75c206 -506 232 -567 241 -595h1c-5 95 -6 198 -6 308v287h55v-680h-71c-214 529 -237 588 -244 613h-1c5 -85 5 -201 5 -323v-290zM279 744h-57v96h57v-96z" />
    <glyph glyph-name="uni1E46" unicode="&#x1e46;" horiz-adv-x="507" 
d="M125 0h-55v680h75c206 -506 232 -567 241 -595h1c-5 95 -6 198 -6 308v287h55v-680h-71c-214 529 -237 588 -244 613h-1c5 -85 5 -201 5 -323v-290zM279 -152h-58v84h58v-84z" />
    <glyph glyph-name="uni1E48" unicode="&#x1e48;" horiz-adv-x="507" 
d="M125 0h-55v680h75c206 -506 232 -567 241 -595h1c-5 95 -6 198 -6 308v287h55v-680h-71c-214 529 -237 588 -244 613h-1c5 -85 5 -201 5 -323v-290zM142 -92h217v-52h-217v52z" />
    <glyph glyph-name="Ograve" unicode="&#xd2;" horiz-adv-x="472" 
d="M237 690c138 0 192 -115 192 -344c0 -225 -51 -355 -195 -355c-138 0 -191 124 -191 353c0 227 63 346 194 346zM235 638c-86 0 -132 -94 -132 -292c0 -206 44 -304 133 -304c92 0 133 97 133 302c0 213 -45 294 -134 294zM94 854h77l111 -117h-63z" />
    <glyph glyph-name="Oacute" unicode="&#xd3;" horiz-adv-x="472" 
d="M237 690c138 0 192 -115 192 -344c0 -225 -51 -355 -195 -355c-138 0 -191 124 -191 353c0 227 63 346 194 346zM235 638c-86 0 -132 -94 -132 -292c0 -206 44 -304 133 -304c92 0 133 97 133 302c0 213 -45 294 -134 294zM307 854h74l-126 -117h-62z" />
    <glyph glyph-name="Ocircumflex" unicode="&#xd4;" horiz-adv-x="472" 
d="M237 690c138 0 192 -115 192 -344c0 -225 -51 -355 -195 -355c-138 0 -191 124 -191 353c0 227 63 346 194 346zM235 638c-86 0 -132 -94 -132 -292c0 -206 44 -304 133 -304c92 0 133 97 133 302c0 213 -45 294 -134 294zM203 849h61l101 -112h-64l-68 74l-65 -74h-64z
" />
    <glyph glyph-name="Otilde" unicode="&#xd5;" horiz-adv-x="472" 
d="M237 690c138 0 192 -115 192 -344c0 -225 -51 -355 -195 -355c-138 0 -191 124 -191 353c0 227 63 346 194 346zM235 638c-86 0 -132 -94 -132 -292c0 -206 44 -304 133 -304c92 0 133 97 133 302c0 213 -45 294 -134 294zM149 747h-42v14c0 55 27 76 63 76
c46 0 96 -41 126 -41c15 0 25 6 25 33v10h42v-12c0 -58 -25 -80 -65 -80c-45 0 -90 41 -125 41c-14 0 -24 -8 -24 -28v-13z" />
    <glyph glyph-name="Odieresis" unicode="&#xd6;" horiz-adv-x="472" 
d="M237 690c138 0 192 -115 192 -344c0 -225 -51 -355 -195 -355c-138 0 -191 124 -191 353c0 227 63 346 194 346zM235 638c-86 0 -132 -94 -132 -292c0 -206 44 -304 133 -304c92 0 133 97 133 302c0 213 -45 294 -134 294zM186 746h-54v100h54v-100zM337 746h-54v100h54
v-100z" />
    <glyph glyph-name="Omacron" unicode="&#x14c;" horiz-adv-x="472" 
d="M237 690c138 0 192 -115 192 -344c0 -225 -51 -355 -195 -355c-138 0 -191 124 -191 353c0 227 63 346 194 346zM235 638c-86 0 -132 -94 -132 -292c0 -206 44 -304 133 -304c92 0 133 97 133 302c0 213 -45 294 -134 294zM123 803h224v-50h-224v50z" />
    <glyph glyph-name="Ohungarumlaut" unicode="&#x150;" horiz-adv-x="472" 
d="M237 690c138 0 192 -115 192 -344c0 -225 -51 -355 -195 -355c-138 0 -191 124 -191 353c0 227 63 346 194 346zM235 638c-86 0 -132 -94 -132 -292c0 -206 44 -304 133 -304c92 0 133 97 133 302c0 213 -45 294 -134 294zM213 853h66l-97 -119h-56zM353 853h66l-97 -119
h-57z" />
    <glyph glyph-name="uni01D1" unicode="&#x1d1;" horiz-adv-x="472" 
d="M237 690c138 0 192 -115 192 -344c0 -225 -51 -355 -195 -355c-138 0 -191 124 -191 353c0 227 63 346 194 346zM235 638c-86 0 -132 -94 -132 -292c0 -206 44 -304 133 -304c92 0 133 97 133 302c0 213 -45 294 -134 294zM268 732h-65l-99 111h65l67 -76l66 76h63z" />
    <glyph glyph-name="uni1ECC" unicode="&#x1ecc;" horiz-adv-x="472" 
d="M237 690c138 0 192 -115 192 -344c0 -225 -51 -355 -195 -355c-138 0 -191 124 -191 353c0 227 63 346 194 346zM235 638c-86 0 -132 -94 -132 -292c0 -206 44 -304 133 -304c92 0 133 97 133 302c0 213 -45 294 -134 294zM263 -160h-58v84h58v-84z" />
    <glyph glyph-name="uni1ECE" unicode="&#x1ece;" horiz-adv-x="472" 
d="M237 690c138 0 192 -115 192 -344c0 -225 -51 -355 -195 -355c-138 0 -191 124 -191 353c0 227 63 346 194 346zM235 638c-86 0 -132 -94 -132 -292c0 -206 44 -304 133 -304c92 0 133 97 133 302c0 213 -45 294 -134 294zM261 729h-58c39 33 54 53 54 79
c0 18 -12 34 -39 34c-23 0 -41 -8 -55 -18l-16 37c18 14 46 28 82 28c53 0 82 -36 82 -72c0 -42 -27 -68 -50 -88z" />
    <glyph glyph-name="uni1ED0" unicode="&#x1ed0;" horiz-adv-x="472" 
d="M237 690c138 0 192 -115 192 -344c0 -225 -51 -355 -195 -355c-138 0 -191 124 -191 353c0 227 63 346 194 346zM235 638c-86 0 -132 -94 -132 -292c0 -206 44 -304 133 -304c92 0 133 97 133 302c0 213 -45 294 -134 294zM203 831h62l104 -96h-65l-71 60l-69 -60h-65z
M410 920h71l-96 -97h-60z" />
    <glyph glyph-name="uni1ED2" unicode="&#x1ed2;" horiz-adv-x="472" 
d="M237 690c138 0 192 -115 192 -344c0 -225 -51 -355 -195 -355c-138 0 -191 124 -191 353c0 227 63 346 194 346zM235 638c-86 0 -132 -94 -132 -292c0 -206 44 -304 133 -304c92 0 133 97 133 302c0 213 -45 294 -134 294zM203 831h62l104 -96h-65l-71 60l-69 -60h-65z
M283 912h75l89 -96h-58z" />
    <glyph glyph-name="uni1ED4" unicode="&#x1ed4;" horiz-adv-x="472" 
d="M237 690c138 0 192 -115 192 -344c0 -225 -51 -355 -195 -355c-138 0 -191 124 -191 353c0 227 63 346 194 346zM235 638c-86 0 -132 -94 -132 -292c0 -206 44 -304 133 -304c92 0 133 97 133 302c0 213 -45 294 -134 294zM391 822h-53c36 30 49 47 49 69
c0 16 -8 29 -35 29c-18 0 -36 -6 -51 -17l-16 33c15 12 41 28 77 28c48 0 75 -30 75 -66c0 -34 -24 -59 -46 -76zM203 831h62l104 -96h-65l-71 60l-69 -60h-65z" />
    <glyph glyph-name="uni1ED6" unicode="&#x1ed6;" horiz-adv-x="472" 
d="M237 690c138 0 192 -115 192 -344c0 -225 -51 -355 -195 -355c-138 0 -191 124 -191 353c0 227 63 346 194 346zM235 638c-86 0 -132 -94 -132 -292c0 -206 44 -304 133 -304c92 0 133 97 133 302c0 213 -45 294 -134 294zM149 844h-39v9c0 50 26 69 60 69
c46 0 94 -33 126 -33c14 0 25 4 25 25v8h40v-10c0 -49 -23 -68 -61 -68c-40 0 -95 34 -128 34c-13 0 -23 -9 -23 -27v-7zM204 811h60l107 -81h-69l-68 49l-67 -49h-68z" />
    <glyph glyph-name="uni1ED8" unicode="&#x1ed8;" horiz-adv-x="472" 
d="M237 690c138 0 192 -115 192 -344c0 -225 -51 -355 -195 -355c-138 0 -191 124 -191 353c0 227 63 346 194 346zM235 638c-86 0 -132 -94 -132 -292c0 -206 44 -304 133 -304c92 0 133 97 133 302c0 213 -45 294 -134 294zM263 -160h-58v84h58v-84zM203 849h61l101 -112
h-64l-68 74l-65 -74h-64z" />
    <glyph glyph-name="Oslash" unicode="&#xd8;" horiz-adv-x="472" 
d="M237 690c46 0 82 -13 110 -38l14 30h46l-30 -66c36 -57 52 -147 52 -270c0 -225 -50 -355 -195 -355c-51 0 -90 17 -119 49l-18 -40h-45l36 79c-32 60 -45 149 -45 265c0 226 62 346 194 346zM102 346c0 -82 6 -146 19 -193l201 444c-21 29 -50 41 -87 41
c-87 0 -133 -86 -133 -292zM236 41c92 0 134 92 134 303c0 93 -8 159 -23 205l-205 -450c22 -40 54 -58 94 -58z" />
    <glyph glyph-name="OE" unicode="&#x152;" horiz-adv-x="671" 
d="M640 680v-52h-240v-243h227v-52h-227v-281h253l-9 -52h-280c-19 0 -53 -5 -94 -5c-186 1 -227 165 -227 358c0 182 64 329 232 329c42 0 75 -2 88 -2h277zM342 51v577c-13 3 -37 4 -65 4c-107 0 -173 -90 -173 -278c0 -203 53 -307 171 -307c20 0 47 1 67 4z" />
    <glyph glyph-name="Ohorn" unicode="&#x1a0;" horiz-adv-x="472" 
d="M237 690c50 0 89 -15 118 -45c29 9 42 32 42 63c0 16 -3 31 -6 44h56c3 -12 5 -27 5 -43c0 -55 -28 -89 -68 -103c31 -57 45 -144 45 -260c0 -225 -51 -355 -195 -355c-138 0 -191 124 -191 353c0 227 63 346 194 346zM235 638c-86 0 -132 -94 -132 -292
c0 -206 44 -304 133 -304c92 0 133 97 133 302c0 213 -45 294 -134 294z" />
    <glyph glyph-name="uni1EDA" unicode="&#x1eda;" horiz-adv-x="472" 
d="M237 690c50 0 89 -15 118 -45c29 9 42 32 42 63c0 16 -3 31 -6 44h56c3 -12 5 -27 5 -43c0 -55 -28 -89 -68 -103c31 -57 45 -144 45 -260c0 -225 -51 -355 -195 -355c-138 0 -191 124 -191 353c0 227 63 346 194 346zM235 638c-86 0 -132 -94 -132 -292
c0 -206 44 -304 133 -304c92 0 133 97 133 302c0 213 -45 294 -134 294zM307 854h74l-126 -117h-62z" />
    <glyph glyph-name="uni1EDC" unicode="&#x1edc;" horiz-adv-x="472" 
d="M237 690c50 0 89 -15 118 -45c29 9 42 32 42 63c0 16 -3 31 -6 44h56c3 -12 5 -27 5 -43c0 -55 -28 -89 -68 -103c31 -57 45 -144 45 -260c0 -225 -51 -355 -195 -355c-138 0 -191 124 -191 353c0 227 63 346 194 346zM235 638c-86 0 -132 -94 -132 -292
c0 -206 44 -304 133 -304c92 0 133 97 133 302c0 213 -45 294 -134 294zM93 854h77l111 -117h-63z" />
    <glyph glyph-name="uni1EDE" unicode="&#x1ede;" horiz-adv-x="472" 
d="M237 690c50 0 89 -15 118 -45c29 9 42 32 42 63c0 16 -3 31 -6 44h56c3 -12 5 -27 5 -43c0 -55 -28 -89 -68 -103c31 -57 45 -144 45 -260c0 -225 -51 -355 -195 -355c-138 0 -191 124 -191 353c0 227 63 346 194 346zM235 638c-86 0 -132 -94 -132 -292
c0 -206 44 -304 133 -304c92 0 133 97 133 302c0 213 -45 294 -134 294zM260 729h-58c39 33 54 53 54 79c0 18 -12 34 -39 34c-23 0 -41 -8 -55 -18l-16 37c18 14 46 28 82 28c53 0 82 -36 82 -72c0 -42 -27 -68 -50 -88z" />
    <glyph glyph-name="uni1EE0" unicode="&#x1ee0;" horiz-adv-x="472" 
d="M237 690c50 0 89 -15 118 -45c29 9 42 32 42 63c0 16 -3 31 -6 44h56c3 -12 5 -27 5 -43c0 -55 -28 -89 -68 -103c31 -57 45 -144 45 -260c0 -225 -51 -355 -195 -355c-138 0 -191 124 -191 353c0 227 63 346 194 346zM235 638c-86 0 -132 -94 -132 -292
c0 -206 44 -304 133 -304c92 0 133 97 133 302c0 213 -45 294 -134 294zM149 749h-42v14c0 55 27 76 63 76c46 0 96 -41 126 -41c15 0 25 6 25 33v10h42v-12c0 -58 -25 -80 -65 -80c-45 0 -90 41 -125 41c-14 0 -24 -8 -24 -28v-13z" />
    <glyph glyph-name="uni1EE2" unicode="&#x1ee2;" horiz-adv-x="472" 
d="M237 690c50 0 89 -15 118 -45c29 9 42 32 42 63c0 16 -3 31 -6 44h56c3 -12 5 -27 5 -43c0 -55 -28 -89 -68 -103c31 -57 45 -144 45 -260c0 -225 -51 -355 -195 -355c-138 0 -191 124 -191 353c0 227 63 346 194 346zM235 638c-86 0 -132 -94 -132 -292
c0 -206 44 -304 133 -304c92 0 133 97 133 302c0 213 -45 294 -134 294zM263 -160h-58v84h58v-84z" />
    <glyph glyph-name="Racute" unicode="&#x154;" horiz-adv-x="448" 
d="M221 322h-93v-322h-58v680h167c110 0 166 -65 166 -172c0 -103 -48 -146 -92 -160c67 -22 85 -82 85 -175v-27c0 -58 1 -109 10 -146h-59c-9 31 -9 94 -9 148v22c0 99 -19 152 -117 152zM128 630v-258h97c87 0 119 53 119 135c0 72 -33 123 -113 123h-103zM296 854h74
l-126 -117h-62z" />
    <glyph glyph-name="Rcaron" unicode="&#x158;" horiz-adv-x="448" 
d="M221 322h-93v-322h-58v680h167c110 0 166 -65 166 -172c0 -103 -48 -146 -92 -160c67 -22 85 -82 85 -175v-27c0 -58 1 -109 10 -146h-59c-9 31 -9 94 -9 148v22c0 99 -19 152 -117 152zM128 630v-258h97c87 0 119 53 119 135c0 72 -33 123 -113 123h-103zM248 732h-65
l-99 111h65l67 -76l66 76h63z" />
    <glyph glyph-name="uni0156" unicode="&#x156;" horiz-adv-x="448" 
d="M221 322h-93v-322h-58v680h167c110 0 166 -65 166 -172c0 -103 -48 -146 -92 -160c67 -22 85 -82 85 -175v-27c0 -58 1 -109 10 -146h-59c-9 31 -9 94 -9 148v22c0 99 -19 152 -117 152zM128 630v-258h97c87 0 119 53 119 135c0 72 -33 123 -113 123h-103zM216 -218h-52
c22 59 31 110 35 164h58c-5 -59 -21 -126 -41 -164z" />
    <glyph glyph-name="uni1E5A" unicode="&#x1e5a;" horiz-adv-x="448" 
d="M221 322h-93v-322h-58v680h167c110 0 166 -65 166 -172c0 -103 -48 -146 -92 -160c67 -22 85 -82 85 -175v-27c0 -58 1 -109 10 -146h-59c-9 31 -9 94 -9 148v22c0 99 -19 152 -117 152zM128 630v-258h97c87 0 119 53 119 135c0 72 -33 123 -113 123h-103zM262 -150h-58
v84h58v-84z" />
    <glyph glyph-name="uni1E5C" unicode="&#x1e5c;" horiz-adv-x="448" 
d="M221 322h-93v-322h-58v680h167c110 0 166 -65 166 -172c0 -103 -48 -146 -92 -160c67 -22 85 -82 85 -175v-27c0 -58 1 -109 10 -146h-59c-9 31 -9 94 -9 148v22c0 99 -19 152 -117 152zM128 630v-258h97c87 0 119 53 119 135c0 72 -33 123 -113 123h-103zM262 -150h-58
v84h58v-84zM112 803h224v-50h-224v50z" />
    <glyph glyph-name="uni1E5E" unicode="&#x1e5e;" horiz-adv-x="448" 
d="M221 322h-93v-322h-58v680h167c110 0 166 -65 166 -172c0 -103 -48 -146 -92 -160c67 -22 85 -82 85 -175v-27c0 -58 1 -109 10 -146h-59c-9 31 -9 94 -9 148v22c0 99 -19 152 -117 152zM128 630v-258h97c87 0 119 53 119 135c0 72 -33 123 -113 123h-103zM125 -87h217
v-52h-217v52z" />
    <glyph glyph-name="Sacute" unicode="&#x15a;" horiz-adv-x="417" 
d="M27 174h58c5 -74 43 -133 122 -133c75 0 116 40 116 128c0 78 -29 118 -124 164c-103 49 -151 96 -151 193c0 88 56 163 163 163c123 0 158 -91 160 -168h-57c-3 31 -13 118 -106 118c-72 0 -102 -50 -102 -108c0 -71 32 -104 119 -146c118 -57 157 -114 157 -211
c0 -108 -58 -183 -177 -183c-129 0 -172 86 -178 183zM280 854h74l-126 -117h-62z" />
    <glyph glyph-name="Scircumflex" unicode="&#x15c;" horiz-adv-x="417" 
d="M27 174h58c5 -74 43 -133 122 -133c75 0 116 40 116 128c0 78 -29 118 -124 164c-103 49 -151 96 -151 193c0 88 56 163 163 163c123 0 158 -91 160 -168h-57c-3 31 -13 118 -106 118c-72 0 -102 -50 -102 -108c0 -71 32 -104 119 -146c118 -57 157 -114 157 -211
c0 -108 -58 -183 -177 -183c-129 0 -172 86 -178 183zM176 849h61l101 -112h-64l-68 74l-65 -74h-64z" />
    <glyph glyph-name="Scaron" unicode="&#x160;" horiz-adv-x="417" 
d="M27 174h58c5 -74 43 -133 122 -133c75 0 116 40 116 128c0 78 -29 118 -124 164c-103 49 -151 96 -151 193c0 88 56 163 163 163c123 0 158 -91 160 -168h-57c-3 31 -13 118 -106 118c-72 0 -102 -50 -102 -108c0 -71 32 -104 119 -146c118 -57 157 -114 157 -211
c0 -108 -58 -183 -177 -183c-129 0 -172 86 -178 183zM241 732h-65l-99 111h65l67 -76l66 76h63z" />
    <glyph glyph-name="uni015E" unicode="&#x15e;" horiz-adv-x="417" 
d="M27 174h58c5 -74 43 -133 122 -133c75 0 116 40 116 128c0 78 -29 118 -124 164c-103 49 -151 96 -151 193c0 88 56 163 163 163c123 0 158 -91 160 -168h-57c-3 31 -13 118 -106 118c-72 0 -102 -50 -102 -108c0 -71 32 -104 119 -146c118 -57 157 -114 157 -211
c0 -100 -50 -172 -153 -182l-19 -34c35 -8 80 -26 80 -79s-43 -77 -93 -77c-29 0 -54 6 -70 16l11 43c14 -8 40 -13 56 -13c30 0 42 10 42 29c0 28 -33 42 -80 46v20l26 49c-111 10 -149 91 -155 182z" />
    <glyph glyph-name="uni0218" unicode="&#x218;" horiz-adv-x="417" 
d="M27 174h58c5 -74 43 -133 122 -133c75 0 116 40 116 128c0 78 -29 118 -124 164c-103 49 -151 96 -151 193c0 88 56 163 163 163c123 0 158 -91 160 -168h-57c-3 31 -13 118 -106 118c-72 0 -102 -50 -102 -108c0 -71 32 -104 119 -146c118 -57 157 -114 157 -211
c0 -108 -58 -183 -177 -183c-129 0 -172 86 -178 183zM201 -218h-52c22 59 31 110 35 164h58c-5 -59 -21 -126 -41 -164z" />
    <glyph glyph-name="uni1E60" unicode="&#x1e60;" horiz-adv-x="417" 
d="M27 174h58c5 -74 43 -133 122 -133c75 0 116 40 116 128c0 78 -29 118 -124 164c-103 49 -151 96 -151 193c0 88 56 163 163 163c123 0 158 -91 160 -168h-57c-3 31 -13 118 -106 118c-72 0 -102 -50 -102 -108c0 -71 32 -104 119 -146c118 -57 157 -114 157 -211
c0 -108 -58 -183 -177 -183c-129 0 -172 86 -178 183zM236 746h-57v96h57v-96z" />
    <glyph glyph-name="uni1E62" unicode="&#x1e62;" horiz-adv-x="417" 
d="M27 174h58c5 -74 43 -133 122 -133c75 0 116 40 116 128c0 78 -29 118 -124 164c-103 49 -151 96 -151 193c0 88 56 163 163 163c123 0 158 -91 160 -168h-57c-3 31 -13 118 -106 118c-72 0 -102 -50 -102 -108c0 -71 32 -104 119 -146c118 -57 157 -114 157 -211
c0 -108 -58 -183 -177 -183c-129 0 -172 86 -178 183zM236 -160h-58v84h58v-84z" />
    <glyph glyph-name="uni1E9E" unicode="&#x1e9e;" horiz-adv-x="490" 
d="M130 506v-506h-59v504c0 158 96 186 178 186c129 0 179 -75 179 -163v-25l-137 -115v-3l62 -48c84 -65 103 -114 103 -182c0 -110 -70 -163 -159 -163c-58 0 -94 14 -120 37v65c30 -31 69 -52 119 -52c67 0 101 44 101 107c0 55 -19 95 -84 144l-79 60
c-20 15 -18 37 0 53l134 117c0 62 -31 117 -120 117c-46 0 -118 -11 -118 -133z" />
    <glyph glyph-name="Tcaron" unicode="&#x164;" horiz-adv-x="357" 
d="M150 0v628h-154v52h365v-52h-154v-628h-57zM211 732h-65l-99 111h65l67 -76l66 76h63z" />
    <glyph glyph-name="uni0162" unicode="&#x162;" horiz-adv-x="357" 
d="M150 0v628h-154v52h365v-52h-154v-628h-4l-23 -42c35 -8 80 -26 80 -79s-43 -77 -93 -77c-29 0 -54 6 -70 16l11 43c14 -8 40 -13 56 -13c30 0 42 10 42 29c0 28 -33 42 -80 46v20l30 57h-6z" />
    <glyph glyph-name="uni021A" unicode="&#x21a;" horiz-adv-x="357" 
d="M150 0v628h-154v52h365v-52h-154v-628h-57zM166 -218h-52c22 59 31 110 35 164h58c-5 -59 -21 -126 -41 -164z" />
    <glyph glyph-name="uni1E6C" unicode="&#x1e6c;" horiz-adv-x="357" 
d="M150 0v628h-154v52h365v-52h-154v-628h-57zM208 -160h-58v84h58v-84z" />
    <glyph glyph-name="uni1E6E" unicode="&#x1e6e;" horiz-adv-x="357" 
d="M150 0v628h-154v52h365v-52h-154v-628h-57zM69 -92h217v-52h-217v52z" />
    <glyph glyph-name="Ugrave" unicode="&#xd9;" horiz-adv-x="485" 
d="M64 680h59v-480c0 -83 24 -159 119 -159c97 0 121 64 121 159v480h57v-481c0 -124 -43 -209 -180 -209c-129 0 -176 80 -176 203v487zM101 847h77l111 -117h-63z" />
    <glyph glyph-name="Uacute" unicode="&#xda;" horiz-adv-x="485" 
d="M64 680h59v-480c0 -83 24 -159 119 -159c97 0 121 64 121 159v480h57v-481c0 -124 -43 -209 -180 -209c-129 0 -176 80 -176 203v487zM314 854h74l-126 -117h-62z" />
    <glyph glyph-name="Ucircumflex" unicode="&#xdb;" horiz-adv-x="485" 
d="M64 680h59v-480c0 -83 24 -159 119 -159c97 0 121 64 121 159v480h57v-481c0 -124 -43 -209 -180 -209c-129 0 -176 80 -176 203v487zM210 849h61l101 -112h-64l-68 74l-65 -74h-64z" />
    <glyph glyph-name="Utilde" unicode="&#x168;" horiz-adv-x="485" 
d="M64 680h59v-480c0 -83 24 -159 119 -159c97 0 121 64 121 159v480h57v-481c0 -124 -43 -209 -180 -209c-129 0 -176 80 -176 203v487zM156 747h-42v14c0 55 27 76 63 76c46 0 96 -41 126 -41c15 0 25 6 25 33v10h42v-12c0 -58 -25 -80 -65 -80c-45 0 -90 41 -125 41
c-14 0 -24 -8 -24 -28v-13z" />
    <glyph glyph-name="Udieresis" unicode="&#xdc;" horiz-adv-x="485" 
d="M64 680h59v-480c0 -83 24 -159 119 -159c97 0 121 64 121 159v480h57v-481c0 -124 -43 -209 -180 -209c-129 0 -176 80 -176 203v487zM193 746h-54v100h54v-100zM344 746h-54v100h54v-100z" />
    <glyph glyph-name="Umacron" unicode="&#x16a;" horiz-adv-x="485" 
d="M64 680h59v-480c0 -83 24 -159 119 -159c97 0 121 64 121 159v480h57v-481c0 -124 -43 -209 -180 -209c-129 0 -176 80 -176 203v487zM130 803h224v-50h-224v50z" />
    <glyph glyph-name="Ubreve" unicode="&#x16c;" horiz-adv-x="485" 
d="M64 680h59v-480c0 -83 24 -159 119 -159c97 0 121 64 121 159v480h57v-481c0 -124 -43 -209 -180 -209c-129 0 -176 80 -176 203v487zM119 834h47c7 -35 35 -59 76 -59c51 0 70 27 76 59h46c-9 -63 -51 -105 -122 -105c-81 0 -118 51 -123 105z" />
    <glyph glyph-name="Uring" unicode="&#x16e;" horiz-adv-x="485" 
d="M64 680h59v-480c0 -83 24 -159 119 -159c97 0 121 64 121 159v480h57v-481c0 -124 -43 -209 -180 -209c-129 0 -176 80 -176 203v487zM242 714c-52 0 -85 39 -85 83c0 46 31 85 84 85c54 0 86 -37 86 -84s-34 -84 -85 -84zM242 749c30 0 45 24 45 48s-14 50 -45 50
s-46 -22 -46 -48c0 -25 14 -50 46 -50z" />
    <glyph glyph-name="Uhungarumlaut" unicode="&#x170;" horiz-adv-x="485" 
d="M64 680h59v-480c0 -83 24 -159 119 -159c97 0 121 64 121 159v480h57v-481c0 -124 -43 -209 -180 -209c-129 0 -176 80 -176 203v487zM220 853h66l-97 -119h-56zM360 853h66l-97 -119h-57z" />
    <glyph glyph-name="uni01D3" unicode="&#x1d3;" horiz-adv-x="485" 
d="M64 680h59v-480c0 -83 24 -159 119 -159c97 0 121 64 121 159v480h57v-481c0 -124 -43 -209 -180 -209c-129 0 -176 80 -176 203v487zM275 732h-65l-99 111h65l67 -76l66 76h63z" />
    <glyph glyph-name="uni01D5" unicode="&#x1d5;" horiz-adv-x="485" 
d="M64 680h59v-480c0 -83 24 -159 119 -159c97 0 121 64 121 159v480h57v-481c0 -124 -43 -209 -180 -209c-129 0 -176 80 -176 203v487zM185 730h-51v72h51v-72zM345 847h-206v46h206v-46zM350 730h-51v72h51v-72z" />
    <glyph glyph-name="uni01D7" unicode="&#x1d7;" horiz-adv-x="485" 
d="M64 680h59v-480c0 -83 24 -159 119 -159c97 0 121 64 121 159v480h57v-481c0 -124 -43 -209 -180 -209c-129 0 -176 80 -176 203v487zM138 802h52v-74h-52v74zM206 831l78 98h75l-95 -98h-58zM345 728h-52v74h52v-74z" />
    <glyph glyph-name="uni01D9" unicode="&#x1d9;" horiz-adv-x="485" 
d="M64 680h59v-480c0 -83 24 -159 119 -159c97 0 121 64 121 159v480h57v-481c0 -124 -43 -209 -180 -209c-129 0 -176 80 -176 203v487zM270 833h-57l-92 93h58l63 -62l63 62h57zM190 728h-52v74h52v-74zM345 728h-52v74h52v-74z" />
    <glyph glyph-name="uni01DB" unicode="&#x1db;" horiz-adv-x="485" 
d="M64 680h59v-480c0 -83 24 -159 119 -159c97 0 121 64 121 159v480h57v-481c0 -124 -43 -209 -180 -209c-129 0 -176 80 -176 203v487zM138 802h52v-74h-52v74zM276 831h-59l-95 98h75zM345 728h-52v74h52v-74z" />
    <glyph glyph-name="uni1EE4" unicode="&#x1ee4;" horiz-adv-x="485" 
d="M64 680h59v-480c0 -83 24 -159 119 -159c97 0 121 64 121 159v480h57v-481c0 -124 -43 -209 -180 -209c-129 0 -176 80 -176 203v487zM270 -160h-58v84h58v-84z" />
    <glyph glyph-name="uni1EE6" unicode="&#x1ee6;" horiz-adv-x="485" 
d="M64 680h59v-480c0 -83 24 -159 119 -159c97 0 121 64 121 159v480h57v-481c0 -124 -43 -209 -180 -209c-129 0 -176 80 -176 203v487zM267 719h-58c39 33 54 53 54 79c0 18 -12 34 -39 34c-23 0 -41 -8 -55 -18l-16 37c18 14 46 28 82 28c53 0 82 -36 82 -72
c0 -42 -27 -68 -50 -88z" />
    <glyph glyph-name="Uogonek" unicode="&#x172;" horiz-adv-x="485" 
d="M64 680h59v-480c0 -83 24 -159 119 -159c97 0 121 64 121 159v480h57v-481c0 -93 -24 -165 -95 -194c-33 -34 -47 -67 -47 -93c0 -31 19 -46 46 -46c16 0 31 2 45 9l7 -44c-19 -13 -42 -15 -67 -15c-52 0 -88 32 -88 86c0 28 12 60 33 88h-14c-129 0 -176 80 -176 203
v487z" />
    <glyph glyph-name="Uhorn" unicode="&#x1af;" horiz-adv-x="485" 
d="M64 680h59v-480c0 -83 24 -159 119 -159c97 0 121 64 121 159v480h16v1c36 7 51 31 51 65c0 16 -3 31 -6 44h56c3 -12 5 -27 5 -43c0 -53 -27 -87 -65 -102v-446c0 -124 -43 -209 -180 -209c-129 0 -176 80 -176 203v487z" />
    <glyph glyph-name="uni1EE8" unicode="&#x1ee8;" horiz-adv-x="485" 
d="M64 680h59v-480c0 -83 24 -159 119 -159c97 0 121 64 121 159v480h16v1c36 7 51 31 51 65c0 16 -3 31 -6 44h56c3 -12 5 -27 5 -43c0 -53 -27 -87 -65 -102v-446c0 -124 -43 -209 -180 -209c-129 0 -176 80 -176 203v487zM314 854h74l-126 -117h-62z" />
    <glyph glyph-name="uni1EEA" unicode="&#x1eea;" horiz-adv-x="485" 
d="M64 680h59v-480c0 -83 24 -159 119 -159c97 0 121 64 121 159v480h16v1c36 7 51 31 51 65c0 16 -3 31 -6 44h56c3 -12 5 -27 5 -43c0 -53 -27 -87 -65 -102v-446c0 -124 -43 -209 -180 -209c-129 0 -176 80 -176 203v487zM101 854h77l111 -117h-63z" />
    <glyph glyph-name="uni1EEC" unicode="&#x1eec;" horiz-adv-x="485" 
d="M64 680h59v-480c0 -83 24 -159 119 -159c97 0 121 64 121 159v480h16v1c36 7 51 31 51 65c0 16 -3 31 -6 44h56c3 -12 5 -27 5 -43c0 -53 -27 -87 -65 -102v-446c0 -124 -43 -209 -180 -209c-129 0 -176 80 -176 203v487zM270 723h-58c39 33 54 53 54 79
c0 18 -12 34 -39 34c-23 0 -41 -8 -55 -18l-16 37c18 14 46 28 82 28c53 0 82 -36 82 -72c0 -42 -27 -68 -50 -88z" />
    <glyph glyph-name="uni1EEE" unicode="&#x1eee;" horiz-adv-x="485" 
d="M64 680h59v-480c0 -83 24 -159 119 -159c97 0 121 64 121 159v480h16v1c36 7 51 31 51 65c0 16 -3 31 -6 44h56c3 -12 5 -27 5 -43c0 -53 -27 -87 -65 -102v-446c0 -124 -43 -209 -180 -209c-129 0 -176 80 -176 203v487zM156 749h-42v14c0 55 27 76 63 76
c46 0 96 -41 126 -41c15 0 25 6 25 33v10h42v-12c0 -58 -25 -80 -65 -80c-45 0 -90 41 -125 41c-14 0 -24 -8 -24 -28v-13z" />
    <glyph glyph-name="uni1EF0" unicode="&#x1ef0;" horiz-adv-x="485" 
d="M64 680h59v-480c0 -83 24 -159 119 -159c97 0 121 64 121 159v480h16v1c36 7 51 31 51 65c0 16 -3 31 -6 44h56c3 -12 5 -27 5 -43c0 -53 -27 -87 -65 -102v-446c0 -124 -43 -209 -180 -209c-129 0 -176 80 -176 203v487zM270 -160h-58v84h58v-84z" />
    <glyph glyph-name="Wgrave" unicode="&#x1e80;" horiz-adv-x="683" 
d="M216 0h-63l-135 680h60c53 -272 100 -520 109 -601h1c9 81 88 435 122 601h58c33 -163 111 -525 120 -599h2c14 111 86 435 118 599h58l-148 -680h-64c-32 160 -104 503 -116 594h-2c-14 -101 -86 -433 -120 -594zM189 854h77l111 -117h-63z" />
    <glyph glyph-name="Wacute" unicode="&#x1e82;" horiz-adv-x="683" 
d="M216 0h-63l-135 680h60c53 -272 100 -520 109 -601h1c9 81 88 435 122 601h58c33 -163 111 -525 120 -599h2c14 111 86 435 118 599h58l-148 -680h-64c-32 160 -104 503 -116 594h-2c-14 -101 -86 -433 -120 -594zM413 854h74l-126 -117h-62z" />
    <glyph glyph-name="Wcircumflex" unicode="&#x174;" horiz-adv-x="683" 
d="M216 0h-63l-135 680h60c53 -272 100 -520 109 -601h1c9 81 88 435 122 601h58c33 -163 111 -525 120 -599h2c14 111 86 435 118 599h58l-148 -680h-64c-32 160 -104 503 -116 594h-2c-14 -101 -86 -433 -120 -594zM309 849h61l101 -112h-64l-68 74l-65 -74h-64z" />
    <glyph glyph-name="Wdieresis" unicode="&#x1e84;" horiz-adv-x="683" 
d="M216 0h-63l-135 680h60c53 -272 100 -520 109 -601h1c9 81 88 435 122 601h58c33 -163 111 -525 120 -599h2c14 111 86 435 118 599h58l-148 -680h-64c-32 160 -104 503 -116 594h-2c-14 -101 -86 -433 -120 -594zM292 745h-54v100h54v-100zM443 745h-54v100h54v-100z
" />
    <glyph glyph-name="Ygrave" unicode="&#x1ef2;" horiz-adv-x="396" 
d="M226 0h-58v266c0 6 -1 12 -3 16l-173 398h64c50 -118 122 -288 143 -345c23 59 97 233 144 345h61l-175 -398c-2 -3 -3 -9 -3 -16v-266zM56 852h77l111 -117h-63z" />
    <glyph glyph-name="Yacute" unicode="&#xdd;" horiz-adv-x="396" 
d="M226 0h-58v266c0 6 -1 12 -3 16l-173 398h64c50 -118 122 -288 143 -345c23 59 97 233 144 345h61l-175 -398c-2 -3 -3 -9 -3 -16v-266zM269 852h74l-126 -117h-62z" />
    <glyph glyph-name="Ycircumflex" unicode="&#x176;" horiz-adv-x="396" 
d="M226 0h-58v266c0 6 -1 12 -3 16l-173 398h64c50 -118 122 -288 143 -345c23 59 97 233 144 345h61l-175 -398c-2 -3 -3 -9 -3 -16v-266zM165 849h61l101 -112h-64l-68 74l-65 -74h-64z" />
    <glyph glyph-name="Ydieresis" unicode="&#x178;" horiz-adv-x="396" 
d="M226 0h-58v266c0 6 -1 12 -3 16l-173 398h64c50 -118 122 -288 143 -345c23 59 97 233 144 345h61l-175 -398c-2 -3 -3 -9 -3 -16v-266zM148 745h-54v100h54v-100zM299 745h-54v100h54v-100z" />
    <glyph glyph-name="uni1E8E" unicode="&#x1e8e;" horiz-adv-x="396" 
d="M226 0h-58v266c0 6 -1 12 -3 16l-173 398h64c50 -118 122 -288 143 -345c23 59 97 233 144 345h61l-175 -398c-2 -3 -3 -9 -3 -16v-266zM225 746h-57v96h57v-96z" />
    <glyph glyph-name="uni1EF4" unicode="&#x1ef4;" horiz-adv-x="396" 
d="M226 0h-58v266c0 6 -1 12 -3 16l-173 398h64c50 -118 122 -288 143 -345c23 59 97 233 144 345h61l-175 -398c-2 -3 -3 -9 -3 -16v-266zM226 -160h-58v84h58v-84z" />
    <glyph glyph-name="uni1EF6" unicode="&#x1ef6;" horiz-adv-x="396" 
d="M226 0h-58v266c0 6 -1 12 -3 16l-173 398h64c50 -118 122 -288 143 -345c23 59 97 233 144 345h61l-175 -398c-2 -3 -3 -9 -3 -16v-266zM220 716h-58c39 33 54 53 54 79c0 18 -12 34 -39 34c-23 0 -41 -8 -55 -18l-16 37c18 14 46 28 82 28c53 0 82 -36 82 -72
c0 -42 -27 -68 -50 -88z" />
    <glyph glyph-name="uni1EF8" unicode="&#x1ef8;" horiz-adv-x="396" 
d="M226 0h-58v266c0 6 -1 12 -3 16l-173 398h64c50 -118 122 -288 143 -345c23 59 97 233 144 345h61l-175 -398c-2 -3 -3 -9 -3 -16v-266zM111 747h-42v14c0 55 27 76 63 76c46 0 96 -41 126 -41c15 0 25 6 25 33v10h42v-12c0 -58 -25 -80 -65 -80c-45 0 -90 41 -125 41
c-14 0 -24 -8 -24 -28v-13z" />
    <glyph glyph-name="Zacute" unicode="&#x179;" horiz-adv-x="389" 
d="M13 0v44l298 584h-275v52h339v-47l-295 -581h300l-9 -52h-358zM266 854h74l-126 -117h-62z" />
    <glyph glyph-name="Zcaron" unicode="&#x17d;" horiz-adv-x="389" 
d="M13 0v44l298 584h-275v52h339v-47l-295 -581h300l-9 -52h-358zM237 732h-65l-99 111h65l67 -76l66 76h63z" />
    <glyph glyph-name="Zdotaccent" unicode="&#x17b;" horiz-adv-x="389" 
d="M13 0v44l298 584h-275v52h339v-47l-295 -581h300l-9 -52h-358zM222 746h-57v96h57v-96z" />
    <glyph glyph-name="uni1E92" unicode="&#x1e92;" horiz-adv-x="389" 
d="M13 0v44l298 584h-275v52h339v-47l-295 -581h300l-9 -52h-358zM222 -160h-58v84h58v-84z" />
    <glyph glyph-name="Eth" unicode="&#xd0;" horiz-adv-x="487" 
d="M8 384h72v296h142c150 0 222 -108 222 -321c0 -231 -64 -359 -233 -359h-131v333h-72v51zM138 629v-245h146v-51h-146v-282h69c135 0 177 108 177 305c0 190 -53 273 -176 273h-70z" />
    <glyph glyph-name="Thorn" unicode="&#xde;" horiz-adv-x="438" 
d="M70 0v680h58v-142h96c107 0 183 -55 183 -177c0 -143 -77 -196 -197 -196h-82v-165h-58zM128 487v-271h83c90 0 138 39 138 144c0 84 -53 127 -131 127h-90z" />
    <glyph glyph-name="uni018F" unicode="&#x18f;" horiz-adv-x="447" 
d="M404 355c0 -231 -46 -364 -185 -364c-135 0 -178 117 -178 329v33h303c1 184 -26 283 -127 283c-103 0 -112 -109 -113 -124h-58c3 27 22 178 173 178c155 0 185 -151 185 -335zM344 302h-243c0 -138 16 -259 123 -259c110 0 119 174 120 259z" />
    <glyph glyph-name="agrave" unicode="&#xe0;" horiz-adv-x="404" 
d="M341 373v-292c0 -34 2 -68 4 -81h-52c-3 12 -5 40 -5 61c-18 -44 -58 -70 -121 -70c-97 0 -131 75 -131 144c0 88 59 159 193 159c26 0 41 0 57 -1v71c0 43 -9 99 -84 99c-84 0 -88 -61 -91 -95h-55c2 71 36 143 147 143c94 0 138 -46 138 -138zM287 213v32
c-13 2 -28 3 -55 3c-98 0 -139 -48 -139 -109c0 -53 28 -98 86 -98c79 0 108 54 108 172zM56 724h69l111 -140h-55z" />
    <glyph glyph-name="aacute" unicode="&#xe1;" horiz-adv-x="404" 
d="M341 373v-292c0 -34 2 -68 4 -81h-52c-3 12 -5 40 -5 61c-18 -44 -58 -70 -121 -70c-97 0 -131 75 -131 144c0 88 59 159 193 159c26 0 41 0 57 -1v71c0 43 -9 99 -84 99c-84 0 -88 -61 -91 -95h-55c2 71 36 143 147 143c94 0 138 -46 138 -138zM287 213v32
c-13 2 -28 3 -55 3c-98 0 -139 -48 -139 -109c0 -53 28 -98 86 -98c79 0 108 54 108 172zM265 725h68l-124 -140h-56z" />
    <glyph glyph-name="acircumflex" unicode="&#xe2;" horiz-adv-x="404" 
d="M341 373v-292c0 -34 2 -68 4 -81h-52c-3 12 -5 40 -5 61c-18 -44 -58 -70 -121 -70c-97 0 -131 75 -131 144c0 88 59 159 193 159c26 0 41 0 57 -1v71c0 43 -9 99 -84 99c-84 0 -88 -61 -91 -95h-55c2 71 36 143 147 143c94 0 138 -46 138 -138zM287 213v32
c-13 2 -28 3 -55 3c-98 0 -139 -48 -139 -109c0 -53 28 -98 86 -98c79 0 108 54 108 172zM168 715h62l87 -136h-58l-60 98l-61 -98h-56z" />
    <glyph glyph-name="atilde" unicode="&#xe3;" horiz-adv-x="404" 
d="M341 373v-292c0 -34 2 -68 4 -81h-52c-3 12 -5 40 -5 61c-18 -44 -58 -70 -121 -70c-97 0 -131 75 -131 144c0 88 59 159 193 159c26 0 41 0 57 -1v71c0 43 -9 99 -84 99c-84 0 -88 -61 -91 -95h-55c2 71 36 143 147 143c94 0 138 -46 138 -138zM287 213v32
c-13 2 -28 3 -55 3c-98 0 -139 -48 -139 -109c0 -53 28 -98 86 -98c79 0 108 54 108 172zM125 597h-42v18c0 53 24 74 60 74c48 0 84 -44 115 -44c16 0 23 8 23 39v7h41v-16c0 -59 -25 -78 -62 -78c-44 0 -81 44 -113 44c-14 0 -22 -8 -22 -33v-11z" />
    <glyph glyph-name="adieresis" unicode="&#xe4;" horiz-adv-x="404" 
d="M341 373v-292c0 -34 2 -68 4 -81h-52c-3 12 -5 40 -5 61c-18 -44 -58 -70 -121 -70c-97 0 -131 75 -131 144c0 88 59 159 193 159c26 0 41 0 57 -1v71c0 43 -9 99 -84 99c-84 0 -88 -61 -91 -95h-55c2 71 36 143 147 143c94 0 138 -46 138 -138zM287 213v32
c-13 2 -28 3 -55 3c-98 0 -139 -48 -139 -109c0 -53 28 -98 86 -98c79 0 108 54 108 172zM154 613h-51v100h51v-100zM292 613h-51v100h51v-100z" />
    <glyph glyph-name="amacron" unicode="&#x101;" horiz-adv-x="404" 
d="M341 373v-292c0 -34 2 -68 4 -81h-52c-3 12 -5 40 -5 61c-18 -44 -58 -70 -121 -70c-97 0 -131 75 -131 144c0 88 59 159 193 159c26 0 41 0 57 -1v71c0 43 -9 99 -84 99c-84 0 -88 -61 -91 -95h-55c2 71 36 143 147 143c94 0 138 -46 138 -138zM287 213v32
c-13 2 -28 3 -55 3c-98 0 -139 -48 -139 -109c0 -53 28 -98 86 -98c79 0 108 54 108 172zM94 676h217v-52h-217v52z" />
    <glyph glyph-name="abreve" unicode="&#x103;" horiz-adv-x="404" 
d="M341 373v-292c0 -34 2 -68 4 -81h-52c-3 12 -5 40 -5 61c-18 -44 -58 -70 -121 -70c-97 0 -131 75 -131 144c0 88 59 159 193 159c26 0 41 0 57 -1v71c0 43 -9 99 -84 99c-84 0 -88 -61 -91 -95h-55c2 71 36 143 147 143c94 0 138 -46 138 -138zM287 213v32
c-13 2 -28 3 -55 3c-98 0 -139 -48 -139 -109c0 -53 28 -98 86 -98c79 0 108 54 108 172zM85 702h46c7 -36 28 -65 71 -65c50 0 65 33 72 65h46c-8 -65 -47 -112 -118 -112c-78 0 -113 58 -117 112z" />
    <glyph glyph-name="aring" unicode="&#xe5;" horiz-adv-x="404" 
d="M341 373v-292c0 -34 2 -68 4 -81h-52c-3 12 -5 40 -5 61c-18 -44 -58 -70 -121 -70c-97 0 -131 75 -131 144c0 88 59 159 193 159c26 0 41 0 57 -1v71c0 43 -9 99 -84 99c-84 0 -88 -61 -91 -95h-55c2 71 36 143 147 143c94 0 138 -46 138 -138zM287 213v32
c-13 2 -28 3 -55 3c-98 0 -139 -48 -139 -109c0 -53 28 -98 86 -98c79 0 108 54 108 172zM203 571c-52 0 -85 39 -85 83c0 46 31 85 84 85c54 0 86 -37 86 -84s-34 -84 -85 -84zM203 606c30 0 45 24 45 48s-14 50 -45 50s-46 -22 -46 -48c0 -25 14 -50 46 -50z" />
    <glyph glyph-name="uni01CE" unicode="&#x1ce;" horiz-adv-x="404" 
d="M341 373v-292c0 -34 2 -68 4 -81h-52c-3 12 -5 40 -5 61c-18 -44 -58 -70 -121 -70c-97 0 -131 75 -131 144c0 88 59 159 193 159c26 0 41 0 57 -1v71c0 43 -9 99 -84 99c-84 0 -88 -61 -91 -95h-55c2 71 36 143 147 143c94 0 138 -46 138 -138zM287 213v32
c-13 2 -28 3 -55 3c-98 0 -139 -48 -139 -109c0 -53 28 -98 86 -98c79 0 108 54 108 172zM234 580h-62l-88 135h58l61 -97l62 97h56z" />
    <glyph glyph-name="uni1EA1" unicode="&#x1ea1;" horiz-adv-x="404" 
d="M341 373v-292c0 -34 2 -68 4 -81h-52c-3 12 -5 40 -5 61c-18 -44 -58 -70 -121 -70c-97 0 -131 75 -131 144c0 88 59 159 193 159c26 0 41 0 57 -1v71c0 43 -9 99 -84 99c-84 0 -88 -61 -91 -95h-55c2 71 36 143 147 143c94 0 138 -46 138 -138zM287 213v32
c-13 2 -28 3 -55 3c-98 0 -139 -48 -139 -109c0 -53 28 -98 86 -98c79 0 108 54 108 172zM231 -160h-58v84h58v-84z" />
    <glyph glyph-name="uni1EA3" unicode="&#x1ea3;" horiz-adv-x="404" 
d="M341 373v-292c0 -34 2 -68 4 -81h-52c-3 12 -5 40 -5 61c-18 -44 -58 -70 -121 -70c-97 0 -131 75 -131 144c0 88 59 159 193 159c26 0 41 0 57 -1v71c0 43 -9 99 -84 99c-84 0 -88 -61 -91 -95h-55c2 71 36 143 147 143c94 0 138 -46 138 -138zM287 213v32
c-13 2 -28 3 -55 3c-98 0 -139 -48 -139 -109c0 -53 28 -98 86 -98c79 0 108 54 108 172zM231 578h-58c39 33 54 53 54 79c0 18 -12 34 -39 34c-23 0 -41 -8 -55 -18l-16 37c18 14 46 28 82 28c53 0 82 -36 82 -72c0 -42 -27 -68 -50 -88z" />
    <glyph glyph-name="uni1EA5" unicode="&#x1ea5;" horiz-adv-x="404" 
d="M341 373v-292c0 -34 2 -68 4 -81h-52c-3 12 -5 40 -5 61c-18 -44 -58 -70 -121 -70c-97 0 -131 75 -131 144c0 88 59 159 193 159c26 0 41 0 57 -1v71c0 43 -9 99 -84 99c-84 0 -88 -61 -91 -95h-55c2 71 36 143 147 143c94 0 138 -46 138 -138zM287 213v32
c-13 2 -28 3 -55 3c-98 0 -139 -48 -139 -109c0 -53 28 -98 86 -98c79 0 108 54 108 172zM171 701h61l91 -124h-58l-63 89l-63 -89h-57zM369 790h62l-89 -109h-54z" />
    <glyph glyph-name="uni1EA7" unicode="&#x1ea7;" horiz-adv-x="404" 
d="M341 373v-292c0 -34 2 -68 4 -81h-52c-3 12 -5 40 -5 61c-18 -44 -58 -70 -121 -70c-97 0 -131 75 -131 144c0 88 59 159 193 159c26 0 41 0 57 -1v71c0 43 -9 99 -84 99c-84 0 -88 -61 -91 -95h-55c2 71 36 143 147 143c94 0 138 -46 138 -138zM287 213v32
c-13 2 -28 3 -55 3c-98 0 -139 -48 -139 -109c0 -53 28 -98 86 -98c79 0 108 54 108 172zM171 701h61l91 -124h-58l-63 89l-63 -89h-57zM249 799h64l86 -119h-50z" />
    <glyph glyph-name="uni1EA9" unicode="&#x1ea9;" horiz-adv-x="404" 
d="M341 373v-292c0 -34 2 -68 4 -81h-52c-3 12 -5 40 -5 61c-18 -44 -58 -70 -121 -70c-97 0 -131 75 -131 144c0 88 59 159 193 159c26 0 41 0 57 -1v71c0 43 -9 99 -84 99c-84 0 -88 -61 -91 -95h-55c2 71 36 143 147 143c94 0 138 -46 138 -138zM287 213v32
c-13 2 -28 3 -55 3c-98 0 -139 -48 -139 -109c0 -53 28 -98 86 -98c79 0 108 54 108 172zM355 680h-53c36 30 50 49 50 72c0 16 -9 28 -33 28c-19 0 -38 -6 -52 -18l-16 32c15 14 43 29 78 29c48 0 73 -27 73 -65c0 -33 -24 -60 -47 -78zM171 702h62l92 -125h-59l-64 89
l-64 -89h-58z" />
    <glyph glyph-name="uni1EAB" unicode="&#x1eab;" horiz-adv-x="404" 
d="M341 373v-292c0 -34 2 -68 4 -81h-52c-3 12 -5 40 -5 61c-18 -44 -58 -70 -121 -70c-97 0 -131 75 -131 144c0 88 59 159 193 159c26 0 41 0 57 -1v71c0 43 -9 99 -84 99c-84 0 -88 -61 -91 -95h-55c2 71 36 143 147 143c94 0 138 -46 138 -138zM287 213v32
c-13 2 -28 3 -55 3c-98 0 -139 -48 -139 -109c0 -53 28 -98 86 -98c79 0 108 54 108 172zM128 695h-39v9c0 49 26 68 59 68c46 0 80 -33 107 -33c13 0 24 4 24 25v8h40v-10c0 -49 -23 -67 -60 -67c-41 0 -77 33 -107 33c-14 0 -24 -9 -24 -27v-6zM170 656h65l99 -89h-65
l-67 57l-65 -57h-63z" />
    <glyph glyph-name="uni1EAD" unicode="&#x1ead;" horiz-adv-x="404" 
d="M341 373v-292c0 -34 2 -68 4 -81h-52c-3 12 -5 40 -5 61c-18 -44 -58 -70 -121 -70c-97 0 -131 75 -131 144c0 88 59 159 193 159c26 0 41 0 57 -1v71c0 43 -9 99 -84 99c-84 0 -88 -61 -91 -95h-55c2 71 36 143 147 143c94 0 138 -46 138 -138zM287 213v32
c-13 2 -28 3 -55 3c-98 0 -139 -48 -139 -109c0 -53 28 -98 86 -98c79 0 108 54 108 172zM231 -160h-58v84h58v-84zM171 715h62l87 -136h-58l-60 98l-61 -98h-56z" />
    <glyph glyph-name="uni1EAF" unicode="&#x1eaf;" horiz-adv-x="404" 
d="M341 373v-292c0 -34 2 -68 4 -81h-52c-3 12 -5 40 -5 61c-18 -44 -58 -70 -121 -70c-97 0 -131 75 -131 144c0 88 59 159 193 159c26 0 41 0 57 -1v71c0 43 -9 99 -84 99c-84 0 -88 -61 -91 -95h-55c2 71 36 143 147 143c94 0 138 -46 138 -138zM287 213v32
c-13 2 -28 3 -55 3c-98 0 -139 -48 -139 -109c0 -53 28 -98 86 -98c79 0 108 54 108 172zM79 668h47c10 -30 34 -51 77 -51c50 0 67 23 78 51h45c-14 -60 -55 -98 -123 -98c-77 0 -114 50 -124 98zM256 796h68l-100 -106h-54z" />
    <glyph glyph-name="uni1EB1" unicode="&#x1eb1;" horiz-adv-x="404" 
d="M341 373v-292c0 -34 2 -68 4 -81h-52c-3 12 -5 40 -5 61c-18 -44 -58 -70 -121 -70c-97 0 -131 75 -131 144c0 88 59 159 193 159c26 0 41 0 57 -1v71c0 43 -9 99 -84 99c-84 0 -88 -61 -91 -95h-55c2 71 36 143 147 143c94 0 138 -46 138 -138zM287 213v32
c-13 2 -28 3 -55 3c-98 0 -139 -48 -139 -109c0 -53 28 -98 86 -98c79 0 108 54 108 172zM79 668h47c10 -30 34 -51 77 -51c50 0 67 23 78 51h45c-14 -60 -55 -98 -123 -98c-77 0 -114 50 -124 98zM77 796h74l89 -106h-57z" />
    <glyph glyph-name="uni1EB3" unicode="&#x1eb3;" horiz-adv-x="404" 
d="M341 373v-292c0 -34 2 -68 4 -81h-52c-3 12 -5 40 -5 61c-18 -44 -58 -70 -121 -70c-97 0 -131 75 -131 144c0 88 59 159 193 159c26 0 41 0 57 -1v71c0 43 -9 99 -84 99c-84 0 -88 -61 -91 -95h-55c2 71 36 143 147 143c94 0 138 -46 138 -138zM287 213v32
c-13 2 -28 3 -55 3c-98 0 -139 -48 -139 -109c0 -53 28 -98 86 -98c79 0 108 54 108 172zM221 681h-53c37 29 57 49 57 73c0 18 -11 29 -36 29c-19 0 -37 -8 -50 -19l-16 32c16 16 42 30 76 30c50 0 73 -28 73 -66c0 -33 -24 -62 -51 -79zM79 668h47c10 -30 34 -51 77 -51
c50 0 67 23 78 51h45c-14 -60 -55 -98 -123 -98c-77 0 -114 50 -124 98z" />
    <glyph glyph-name="uni1EB5" unicode="&#x1eb5;" horiz-adv-x="404" 
d="M341 373v-292c0 -34 2 -68 4 -81h-52c-3 12 -5 40 -5 61c-18 -44 -58 -70 -121 -70c-97 0 -131 75 -131 144c0 88 59 159 193 159c26 0 41 0 57 -1v71c0 43 -9 99 -84 99c-84 0 -88 -61 -91 -95h-55c2 71 36 143 147 143c94 0 138 -46 138 -138zM287 213v32
c-13 2 -28 3 -55 3c-98 0 -139 -48 -139 -109c0 -53 28 -98 86 -98c79 0 108 54 108 172zM127 699h-39v10c0 48 26 67 59 67c46 0 80 -32 107 -32c14 0 25 4 25 24v9h40v-11c0 -48 -24 -67 -61 -67c-40 0 -77 34 -107 34c-14 0 -24 -10 -24 -28v-6zM88 656h45
c10 -25 30 -47 70 -47c47 0 62 24 70 47h45c-9 -54 -50 -92 -115 -92c-74 0 -109 50 -115 92z" />
    <glyph glyph-name="uni1EB7" unicode="&#x1eb7;" horiz-adv-x="404" 
d="M341 373v-292c0 -34 2 -68 4 -81h-52c-3 12 -5 40 -5 61c-18 -44 -58 -70 -121 -70c-97 0 -131 75 -131 144c0 88 59 159 193 159c26 0 41 0 57 -1v71c0 43 -9 99 -84 99c-84 0 -88 -61 -91 -95h-55c2 71 36 143 147 143c94 0 138 -46 138 -138zM287 213v32
c-13 2 -28 3 -55 3c-98 0 -139 -48 -139 -109c0 -53 28 -98 86 -98c79 0 108 54 108 172zM85 702h46c7 -36 28 -65 71 -65c50 0 65 33 72 65h46c-8 -65 -47 -112 -118 -112c-78 0 -113 58 -117 112zM231 -160h-58v84h58v-84z" />
    <glyph glyph-name="aogonek" unicode="&#x105;" horiz-adv-x="404" 
d="M341 373v-292c0 -34 2 -68 4 -81h-2c-35 -35 -50 -69 -50 -96c0 -31 19 -46 46 -46c16 0 31 2 45 9l7 -44c-19 -13 -42 -15 -67 -15c-52 0 -88 32 -88 86c0 37 20 81 55 114c-2 14 -3 36 -3 53c-18 -44 -58 -70 -121 -70c-97 0 -131 75 -131 144c0 88 59 159 193 159
c26 0 41 0 57 -1v71c0 43 -9 99 -84 99c-84 0 -88 -61 -91 -95h-55c2 71 36 143 147 143c94 0 138 -46 138 -138zM287 213v32c-13 2 -28 3 -55 3c-98 0 -139 -48 -139 -109c0 -53 28 -98 86 -98c79 0 108 54 108 172z" />
    <glyph glyph-name="ae" unicode="&#xe6;" horiz-adv-x="640" 
d="M545 149h57c-6 -61 -40 -158 -157 -158c-74 0 -112 31 -135 86c-23 -53 -68 -86 -139 -86c-99 0 -135 75 -135 148c0 82 55 156 199 156h51v63c1 58 -19 104 -85 104c-59 0 -86 -33 -90 -94h-55c2 75 44 143 144 143c57 0 102 -17 124 -71c27 48 72 71 124 71
c123 1 157 -102 157 -207v-56h-265c-1 -127 26 -207 104 -207c74 0 92 54 101 108zM287 214v34h-49c-95 0 -145 -33 -145 -107c0 -55 28 -100 86 -100c85 0 108 67 108 173zM341 295h207c0 104 -27 166 -101 166c-82 0 -106 -84 -106 -166z" />
    <glyph glyph-name="ccedilla" unicode="&#xe7;" horiz-adv-x="382" 
d="M296 147h57c-2 -20 -13 -142 -133 -155l-16 -28c35 -8 80 -26 80 -79s-43 -77 -93 -77c-29 0 -54 6 -70 16l11 43c14 -8 40 -13 56 -13c30 0 42 10 42 29c0 28 -33 42 -80 46v20l23 44c-105 15 -136 124 -136 259c0 145 47 260 169 260c139 0 147 -133 147 -154h-58
c-1 21 -10 104 -89 104c-81 0 -111 -88 -111 -209c0 -131 32 -212 107 -212c79 0 90 80 94 106z" />
    <glyph glyph-name="cacute" unicode="&#x107;" horiz-adv-x="382" 
d="M296 147h57c-2 -21 -14 -156 -154 -156c-126 0 -162 116 -162 261s47 260 169 260c139 0 147 -133 147 -154h-58c-1 21 -10 104 -89 104c-81 0 -111 -88 -111 -209c0 -131 32 -212 107 -212c79 0 90 80 94 106zM263 725h68l-124 -140h-56z" />
    <glyph glyph-name="ccircumflex" unicode="&#x109;" horiz-adv-x="382" 
d="M296 147h57c-2 -21 -14 -156 -154 -156c-126 0 -162 116 -162 261s47 260 169 260c139 0 147 -133 147 -154h-58c-1 21 -10 104 -89 104c-81 0 -111 -88 -111 -209c0 -131 32 -212 107 -212c79 0 90 80 94 106zM169 715h62l87 -136h-58l-60 98l-61 -98h-56z" />
    <glyph glyph-name="ccaron" unicode="&#x10d;" horiz-adv-x="382" 
d="M296 147h57c-2 -21 -14 -156 -154 -156c-126 0 -162 116 -162 261s47 260 169 260c139 0 147 -133 147 -154h-58c-1 21 -10 104 -89 104c-81 0 -111 -88 -111 -209c0 -131 32 -212 107 -212c79 0 90 80 94 106zM232 580h-62l-88 135h58l61 -97l62 97h56z" />
    <glyph glyph-name="cdotaccent" unicode="&#x10b;" horiz-adv-x="382" 
d="M296 147h57c-2 -21 -14 -156 -154 -156c-126 0 -162 116 -162 261s47 260 169 260c139 0 147 -133 147 -154h-58c-1 21 -10 104 -89 104c-81 0 -111 -88 -111 -209c0 -131 32 -212 107 -212c79 0 90 80 94 106zM229 615h-57v100h57v-100z" />
    <glyph glyph-name="dcaron" unicode="&#x10f;" horiz-adv-x="436" 
d="M307 713h56v-588c0 -45 0 -95 1 -125h-54c-1 13 -3 49 -3 73c-15 -47 -48 -82 -120 -82c-104 0 -150 87 -150 266c0 163 63 254 164 254c69 0 94 -30 106 -57v259zM95 257c0 -156 38 -214 104 -214c85 0 109 74 109 216c0 159 -25 201 -103 201c-65 0 -110 -59 -110 -203
zM453 493h-42l-4 220h51z" />
    <glyph glyph-name="uni1E0D" unicode="&#x1e0d;" horiz-adv-x="426" 
d="M307 713h56v-588c0 -45 0 -95 1 -125h-54c-1 13 -3 49 -3 73c-15 -47 -48 -82 -120 -82c-104 0 -150 87 -150 266c0 163 63 254 164 254c69 0 94 -30 106 -57v259zM95 257c0 -156 38 -214 104 -214c85 0 109 74 109 216c0 159 -25 201 -103 201c-65 0 -110 -59 -110 -203
zM240 -160h-58v84h58v-84z" />
    <glyph glyph-name="uni1E0F" unicode="&#x1e0f;" horiz-adv-x="426" 
d="M307 713h56v-588c0 -45 0 -95 1 -125h-54c-1 13 -3 49 -3 73c-15 -47 -48 -82 -120 -82c-104 0 -150 87 -150 266c0 163 63 254 164 254c69 0 94 -30 106 -57v259zM95 257c0 -156 38 -214 104 -214c85 0 109 74 109 216c0 159 -25 201 -103 201c-65 0 -110 -59 -110 -203
zM103 -92h217v-52h-217v52z" />
    <glyph glyph-name="dcroat" unicode="&#x111;" horiz-adv-x="426" 
d="M306 713h56v-85h55v-45h-55v-458c0 -45 0 -95 1 -125h-55c-1 13 -2 49 -2 73c-16 -47 -48 -82 -120 -82c-104 0 -149 96 -149 267c0 161 63 250 163 250c67 0 94 -30 106 -58v133h-174v45h174v85zM95 258c0 -152 37 -215 104 -215c84 0 107 76 107 214
c0 154 -27 200 -101 200c-64 0 -110 -58 -110 -199z" />
    <glyph glyph-name="egrave" unicode="&#xe8;" horiz-adv-x="395" 
d="M360 244h-266c0 -111 20 -203 106 -203c87 0 98 84 101 99h56c-1 -12 -16 -149 -157 -149c-143 0 -163 135 -163 260c0 159 52 260 167 260c127 0 157 -108 157 -232c0 -7 0 -21 -1 -35zM95 291h209c0 101 -23 171 -101 171c-101 0 -106 -137 -108 -171zM59 724h69
l111 -140h-55z" />
    <glyph glyph-name="eacute" unicode="&#xe9;" horiz-adv-x="395" 
d="M360 244h-266c0 -111 20 -203 106 -203c87 0 98 84 101 99h56c-1 -12 -16 -149 -157 -149c-143 0 -163 135 -163 260c0 159 52 260 167 260c127 0 157 -108 157 -232c0 -7 0 -21 -1 -35zM95 291h209c0 101 -23 171 -101 171c-101 0 -106 -137 -108 -171zM268 725h68
l-124 -140h-56z" />
    <glyph glyph-name="ecircumflex" unicode="&#xea;" horiz-adv-x="395" 
d="M360 244h-266c0 -111 20 -203 106 -203c87 0 98 84 101 99h56c-1 -12 -16 -149 -157 -149c-143 0 -163 135 -163 260c0 159 52 260 167 260c127 0 157 -108 157 -232c0 -7 0 -21 -1 -35zM95 291h209c0 101 -23 171 -101 171c-101 0 -106 -137 -108 -171zM166 715h62
l87 -136h-58l-60 98l-61 -98h-56z" />
    <glyph glyph-name="ecaron" unicode="&#x11b;" horiz-adv-x="395" 
d="M360 244h-266c0 -111 20 -203 106 -203c87 0 98 84 101 99h56c-1 -12 -16 -149 -157 -149c-143 0 -163 135 -163 260c0 159 52 260 167 260c127 0 157 -108 157 -232c0 -7 0 -21 -1 -35zM95 291h209c0 101 -23 171 -101 171c-101 0 -106 -137 -108 -171zM229 580h-62
l-88 135h58l61 -97l62 97h56z" />
    <glyph glyph-name="edieresis" unicode="&#xeb;" horiz-adv-x="395" 
d="M360 244h-266c0 -111 20 -203 106 -203c87 0 98 84 101 99h56c-1 -12 -16 -149 -157 -149c-143 0 -163 135 -163 260c0 159 52 260 167 260c127 0 157 -108 157 -232c0 -7 0 -21 -1 -35zM95 291h209c0 101 -23 171 -101 171c-101 0 -106 -137 -108 -171zM154 613h-51v100
h51v-100zM292 613h-51v100h51v-100z" />
    <glyph glyph-name="emacron" unicode="&#x113;" horiz-adv-x="395" 
d="M360 244h-266c0 -111 20 -203 106 -203c87 0 98 84 101 99h56c-1 -12 -16 -149 -157 -149c-143 0 -163 135 -163 260c0 159 52 260 167 260c127 0 157 -108 157 -232c0 -7 0 -21 -1 -35zM95 291h209c0 101 -23 171 -101 171c-101 0 -106 -137 -108 -171zM89 676h217v-52
h-217v52z" />
    <glyph glyph-name="ebreve" unicode="&#x115;" horiz-adv-x="395" 
d="M360 244h-266c0 -111 20 -203 106 -203c87 0 98 84 101 99h56c-1 -12 -16 -149 -157 -149c-143 0 -163 135 -163 260c0 159 52 260 167 260c127 0 157 -108 157 -232c0 -7 0 -21 -1 -35zM95 291h209c0 101 -23 171 -101 171c-101 0 -106 -137 -108 -171zM80 702h46
c7 -36 28 -65 71 -65c50 0 65 33 72 65h46c-8 -65 -47 -112 -118 -112c-78 0 -113 58 -117 112z" />
    <glyph glyph-name="edotaccent" unicode="&#x117;" horiz-adv-x="395" 
d="M360 244h-266c0 -111 20 -203 106 -203c87 0 98 84 101 99h56c-1 -12 -16 -149 -157 -149c-143 0 -163 135 -163 260c0 159 52 260 167 260c127 0 157 -108 157 -232c0 -7 0 -21 -1 -35zM95 291h209c0 101 -23 171 -101 171c-101 0 -106 -137 -108 -171zM226 615h-57v100
h57v-100z" />
    <glyph glyph-name="uni1EB9" unicode="&#x1eb9;" horiz-adv-x="395" 
d="M360 244h-266c0 -111 20 -203 106 -203c87 0 98 84 101 99h56c-1 -12 -16 -149 -157 -149c-143 0 -163 135 -163 260c0 159 52 260 167 260c127 0 157 -108 157 -232c0 -7 0 -21 -1 -35zM95 291h209c0 101 -23 171 -101 171c-101 0 -106 -137 -108 -171zM234 -160h-58v84
h58v-84z" />
    <glyph glyph-name="uni1EBB" unicode="&#x1ebb;" horiz-adv-x="395" 
d="M360 244h-266c0 -111 20 -203 106 -203c87 0 98 84 101 99h56c-1 -12 -16 -149 -157 -149c-143 0 -163 135 -163 260c0 159 52 260 167 260c127 0 157 -108 157 -232c0 -7 0 -21 -1 -35zM95 291h209c0 101 -23 171 -101 171c-101 0 -106 -137 -108 -171zM226 578h-58
c39 33 54 53 54 79c0 18 -12 34 -39 34c-23 0 -41 -8 -55 -18l-16 37c18 14 46 28 82 28c53 0 82 -36 82 -72c0 -42 -27 -68 -50 -88z" />
    <glyph glyph-name="uni1EBD" unicode="&#x1ebd;" horiz-adv-x="395" 
d="M360 244h-266c0 -111 20 -203 106 -203c87 0 98 84 101 99h56c-1 -12 -16 -149 -157 -149c-143 0 -163 135 -163 260c0 159 52 260 167 260c127 0 157 -108 157 -232c0 -7 0 -21 -1 -35zM95 291h209c0 101 -23 171 -101 171c-101 0 -106 -137 -108 -171zM120 597h-42v18
c0 53 24 74 60 74c48 0 84 -44 115 -44c16 0 23 8 23 39v7h41v-16c0 -59 -25 -78 -62 -78c-44 0 -81 44 -113 44c-14 0 -22 -8 -22 -33v-11z" />
    <glyph glyph-name="uni1EBF" unicode="&#x1ebf;" horiz-adv-x="395" 
d="M360 244h-266c0 -111 20 -203 106 -203c87 0 98 84 101 99h56c-1 -12 -16 -149 -157 -149c-143 0 -163 135 -163 260c0 159 52 260 167 260c127 0 157 -108 157 -232c0 -7 0 -21 -1 -35zM95 291h209c0 101 -23 171 -101 171c-101 0 -106 -137 -108 -171zM166 701h61
l91 -124h-58l-63 89l-63 -89h-57zM364 790h62l-89 -109h-54z" />
    <glyph glyph-name="uni1EC1" unicode="&#x1ec1;" horiz-adv-x="395" 
d="M360 244h-266c0 -111 20 -203 106 -203c87 0 98 84 101 99h56c-1 -12 -16 -149 -157 -149c-143 0 -163 135 -163 260c0 159 52 260 167 260c127 0 157 -108 157 -232c0 -7 0 -21 -1 -35zM95 291h209c0 101 -23 171 -101 171c-101 0 -106 -137 -108 -171zM166 701h61
l91 -124h-58l-63 89l-63 -89h-57zM244 799h64l86 -119h-50z" />
    <glyph glyph-name="uni1EC3" unicode="&#x1ec3;" horiz-adv-x="395" 
d="M360 244h-266c0 -111 20 -203 106 -203c87 0 98 84 101 99h56c-1 -12 -16 -149 -157 -149c-143 0 -163 135 -163 260c0 159 52 260 167 260c127 0 157 -108 157 -232c0 -7 0 -21 -1 -35zM95 291h209c0 101 -23 171 -101 171c-101 0 -106 -137 -108 -171zM350 680h-53
c36 30 50 49 50 72c0 16 -9 28 -33 28c-19 0 -38 -6 -52 -18l-16 32c15 14 43 29 78 29c48 0 73 -27 73 -65c0 -33 -24 -60 -47 -78zM166 702h62l92 -125h-59l-64 89l-64 -89h-58z" />
    <glyph glyph-name="uni1EC5" unicode="&#x1ec5;" horiz-adv-x="395" 
d="M360 244h-266c0 -111 20 -203 106 -203c87 0 98 84 101 99h56c-1 -12 -16 -149 -157 -149c-143 0 -163 135 -163 260c0 159 52 260 167 260c127 0 157 -108 157 -232c0 -7 0 -21 -1 -35zM95 291h209c0 101 -23 171 -101 171c-101 0 -106 -137 -108 -171zM123 695h-39v9
c0 49 26 68 59 68c46 0 80 -33 107 -33c13 0 24 4 24 25v8h40v-10c0 -49 -23 -67 -60 -67c-41 0 -77 33 -107 33c-14 0 -24 -9 -24 -27v-6zM165 656h65l99 -89h-65l-67 57l-65 -57h-63z" />
    <glyph glyph-name="uni1EC7" unicode="&#x1ec7;" horiz-adv-x="395" 
d="M360 244h-266c0 -111 20 -203 106 -203c87 0 98 84 101 99h56c-1 -12 -16 -149 -157 -149c-143 0 -163 135 -163 260c0 159 52 260 167 260c127 0 157 -108 157 -232c0 -7 0 -21 -1 -35zM95 291h209c0 101 -23 171 -101 171c-101 0 -106 -137 -108 -171zM226 -160h-58v84
h58v-84zM166 715h62l87 -136h-58l-60 98l-61 -98h-56z" />
    <glyph glyph-name="eogonek" unicode="&#x119;" horiz-adv-x="395" 
d="M360 244h-266c0 -111 20 -203 106 -203c87 0 98 84 101 99h56c-1 -10 -11 -99 -87 -135c-33 -34 -48 -67 -48 -94c0 -31 19 -46 46 -46c16 0 31 2 45 9l7 -44c-19 -13 -42 -15 -67 -15c-52 0 -88 32 -88 86c0 29 12 61 34 90c-142 1 -162 135 -162 260
c0 159 52 260 167 260c127 0 157 -108 157 -232c0 -7 0 -21 -1 -35zM95 291h209c0 101 -23 171 -101 171c-101 0 -106 -137 -108 -171z" />
    <glyph glyph-name="gcircumflex" unicode="&#x11d;" horiz-adv-x="429" 
d="M364 360v-331c0 -128 -28 -223 -169 -223c-125 0 -152 84 -155 136h57c2 -32 23 -87 99 -87c93 0 112 67 112 174v55c-17 -55 -61 -83 -120 -83c-100 0 -152 83 -152 245c0 184 69 265 163 265c69 0 100 -33 109 -70c0 25 3 53 4 62h53c-1 -24 -1 -76 -1 -143zM95 246
c0 -129 36 -194 105 -194c85 0 110 85 110 205c0 129 -21 203 -103 203c-74 0 -112 -76 -112 -214zM182 715h62l87 -136h-58l-60 98l-61 -98h-56z" />
    <glyph glyph-name="gbreve" unicode="&#x11f;" horiz-adv-x="429" 
d="M364 360v-331c0 -128 -28 -223 -169 -223c-125 0 -152 84 -155 136h57c2 -32 23 -87 99 -87c93 0 112 67 112 174v55c-17 -55 -61 -83 -120 -83c-100 0 -152 83 -152 245c0 184 69 265 163 265c69 0 100 -33 109 -70c0 25 3 53 4 62h53c-1 -24 -1 -76 -1 -143zM95 246
c0 -129 36 -194 105 -194c85 0 110 85 110 205c0 129 -21 203 -103 203c-74 0 -112 -76 -112 -214zM96 702h46c7 -36 28 -65 71 -65c50 0 65 33 72 65h46c-8 -65 -47 -112 -118 -112c-78 0 -113 58 -117 112z" />
    <glyph glyph-name="gdotaccent" unicode="&#x121;" horiz-adv-x="429" 
d="M364 360v-331c0 -128 -28 -223 -169 -223c-125 0 -152 84 -155 136h57c2 -32 23 -87 99 -87c93 0 112 67 112 174v55c-17 -55 -61 -83 -120 -83c-100 0 -152 83 -152 245c0 184 69 265 163 265c69 0 100 -33 109 -70c0 25 3 53 4 62h53c-1 -24 -1 -76 -1 -143zM95 246
c0 -129 36 -194 105 -194c85 0 110 85 110 205c0 129 -21 203 -103 203c-74 0 -112 -76 -112 -214zM242 615h-57v100h57v-100z" />
    <glyph glyph-name="uni0123" unicode="&#x123;" horiz-adv-x="429" 
d="M216 751h55c-25 -58 -39 -116 -43 -167h-58c5 65 25 130 46 167zM364 360v-331c0 -128 -28 -223 -169 -223c-125 0 -152 84 -155 136h57c2 -32 23 -87 99 -87c93 0 112 67 112 174v55c-17 -55 -61 -83 -120 -83c-100 0 -152 83 -152 245c0 184 69 265 163 265
c69 0 100 -33 109 -70c0 25 3 53 4 62h53c-1 -24 -1 -76 -1 -143zM95 246c0 -129 36 -194 105 -194c85 0 110 85 110 205c0 129 -21 203 -103 203c-74 0 -112 -76 -112 -214z" />
    <glyph glyph-name="gcaron" unicode="&#x1e7;" horiz-adv-x="429" 
d="M364 360v-331c0 -128 -28 -223 -169 -223c-125 0 -152 84 -155 136h57c2 -32 23 -87 99 -87c93 0 112 67 112 174v55c-17 -55 -61 -83 -120 -83c-100 0 -152 83 -152 245c0 184 69 265 163 265c69 0 100 -33 109 -70c0 25 3 53 4 62h53c-1 -24 -1 -76 -1 -143zM95 246
c0 -129 36 -194 105 -194c85 0 110 85 110 205c0 129 -21 203 -103 203c-74 0 -112 -76 -112 -214zM245 580h-62l-88 135h58l61 -97l62 97h56z" />
    <glyph glyph-name="uni1E21" unicode="&#x1e21;" horiz-adv-x="429" 
d="M364 360v-331c0 -128 -28 -223 -169 -223c-125 0 -152 84 -155 136h57c2 -32 23 -87 99 -87c93 0 112 67 112 174v55c-17 -55 -61 -83 -120 -83c-100 0 -152 83 -152 245c0 184 69 265 163 265c69 0 100 -33 109 -70c0 25 3 53 4 62h53c-1 -24 -1 -76 -1 -143zM95 246
c0 -129 36 -194 105 -194c85 0 110 85 110 205c0 129 -21 203 -103 203c-74 0 -112 -76 -112 -214zM105 676h217v-52h-217v52z" />
    <glyph glyph-name="uni00670303" horiz-adv-x="429" 
d="M364 360v-331c0 -128 -28 -223 -169 -223c-125 0 -152 84 -155 136h57c2 -32 23 -87 99 -87c93 0 112 67 112 174v55c-17 -55 -61 -83 -120 -83c-100 0 -152 83 -152 245c0 184 69 265 163 265c69 0 100 -33 109 -70c0 25 3 53 4 62h53c-1 -24 -1 -76 -1 -143zM95 246
c0 -129 36 -194 105 -194c85 0 110 85 110 205c0 129 -21 203 -103 203c-74 0 -112 -76 -112 -214zM136 597h-42v18c0 53 24 74 60 74c48 0 84 -44 115 -44c16 0 23 8 23 39v7h41v-16c0 -59 -25 -78 -62 -78c-44 0 -81 44 -113 44c-14 0 -22 -8 -22 -33v-11z" />
    <glyph glyph-name="hcircumflex" unicode="&#x125;" horiz-adv-x="432" 
d="M63 842h63l98 -93h-64l-66 58l-65 -58h-63zM64 713h57v-276c17 44 59 75 123 75c70 0 127 -43 127 -153v-359h-57v347c0 66 -21 113 -87 113c-76 0 -106 -64 -106 -159v-301h-57v713z" />
    <glyph glyph-name="uni1E25" unicode="&#x1e25;" horiz-adv-x="432" 
d="M64 713h57v-276c17 44 59 75 123 75c70 0 127 -43 127 -153v-359h-57v347c0 66 -21 113 -87 113c-76 0 -106 -64 -106 -159v-301h-57v713zM244 -160h-58v84h58v-84z" />
    <glyph glyph-name="uni1E2B" unicode="&#x1e2b;" horiz-adv-x="432" 
d="M64 713h57v-276c17 44 59 75 123 75c70 0 127 -43 127 -153v-359h-57v347c0 66 -21 113 -87 113c-76 0 -106 -64 -106 -159v-301h-57v713zM98 -60h46c7 -36 28 -65 71 -65c50 0 65 33 72 65h46c-8 -65 -47 -112 -118 -112c-78 0 -113 58 -117 112z" />
    <glyph glyph-name="hbar" unicode="&#x127;" horiz-adv-x="432" 
d="M67 713h57v-85h173v-45h-173v-158c17 45 57 75 122 75c70 0 125 -43 125 -153v-347h-57v335c0 67 -18 112 -85 112c-76 0 -105 -62 -105 -158v-289h-57v583h-55v45h55v85z" />
    <glyph glyph-name="igrave" unicode="&#xec;" horiz-adv-x="182" 
d="M63 0v503h56v-503h-56zM-50 724h69l111 -140h-55z" />
    <glyph glyph-name="iacute" unicode="&#xed;" horiz-adv-x="182" 
d="M63 0v503h56v-503h-56zM162 725h68l-124 -140h-56z" />
    <glyph glyph-name="icircumflex" unicode="&#xee;" horiz-adv-x="182" 
d="M63 0v503h56v-503h-56zM59 715h62l87 -136h-58l-60 98l-61 -98h-56z" />
    <glyph glyph-name="itilde" unicode="&#x129;" horiz-adv-x="182" 
d="M63 0v503h56v-503h-56zM13 597h-42v18c0 53 24 74 60 74c48 0 84 -44 115 -44c16 0 23 8 23 39v7h41v-16c0 -59 -25 -78 -62 -78c-44 0 -81 44 -113 44c-14 0 -22 -8 -22 -33v-11z" />
    <glyph glyph-name="idieresis" unicode="&#xef;" horiz-adv-x="182" 
d="M63 0v503h56v-503h-56zM47 613h-51v100h51v-100zM185 613h-51v100h51v-100z" />
    <glyph glyph-name="imacron" unicode="&#x12b;" horiz-adv-x="182" 
d="M63 0v503h56v-503h-56zM-18 676h217v-52h-217v52z" />
    <glyph glyph-name="uni01D0" unicode="&#x1d0;" horiz-adv-x="182" 
d="M63 0v503h56v-503h-56zM122 580h-62l-88 135h58l61 -97l62 97h56z" />
    <glyph glyph-name="uni1EC9" unicode="&#x1ec9;" horiz-adv-x="182" 
d="M63 0v503h56v-503h-56zM119 578h-58c39 33 54 53 54 79c0 18 -12 34 -39 34c-23 0 -41 -8 -55 -18l-16 37c18 14 46 28 82 28c53 0 82 -36 82 -72c0 -42 -27 -68 -50 -88z" />
    <glyph glyph-name="uni1ECB" unicode="&#x1ecb;" horiz-adv-x="182" 
d="M63 0v503h56v-503h-56zM119 613h-56v100h56v-100zM119 -160h-58v84h58v-84z" />
    <glyph glyph-name="iogonek" unicode="&#x12f;" horiz-adv-x="182" 
d="M166 -177c-19 -13 -42 -15 -67 -15c-52 0 -88 32 -88 86c0 36 19 78 52 111v498h56v-503h-1c-35 -35 -50 -69 -50 -96c0 -31 19 -46 46 -46c16 0 31 2 45 9zM119 613h-56v100h56v-100z" />
    <glyph glyph-name="dotlessi" unicode="&#x131;" horiz-adv-x="182" 
d="M63 0v503h56v-503h-56z" />
    <glyph glyph-name="jcircumflex" unicode="&#x135;" horiz-adv-x="185" 
d="M64 503h57v-543c0 -88 -12 -154 -101 -154c-7 0 -17 1 -27 2v51c9 -1 18 -1 23 -1c41 0 48 26 48 87v558zM60 715h62l87 -136h-58l-60 98l-61 -98h-56z" />
    <glyph glyph-name="uni0137" unicode="&#x137;" horiz-adv-x="369" 
d="M119 713v-455c31 43 131 178 178 245h64c-47 -64 -99 -131 -147 -195l163 -308h-64l-136 263c-15 -18 -43 -55 -58 -74v-189h-56v713h56zM197 -209h-52c22 59 31 110 35 164h58c-5 -59 -21 -126 -41 -164z" />
    <glyph glyph-name="kgreenlandic" unicode="&#x138;" horiz-adv-x="370" 
d="M119 503v-251c25 36 131 184 178 251h64c-47 -67 -97 -134 -146 -201c53 -97 113 -210 162 -302h-64c-37 69 -94 178 -135 258c-15 -19 -44 -56 -59 -75v-183h-56v503h56z" />
    <glyph glyph-name="lacute" unicode="&#x13a;" horiz-adv-x="182" 
d="M150 845h68l-99 -94h-63zM119 0h-56v713h56v-713z" />
    <glyph glyph-name="lcaron" unicode="&#x13e;" horiz-adv-x="192" 
d="M119 0h-56v713h56v-713zM218 493h-42l-4 220h51z" />
    <glyph glyph-name="ldot" unicode="&#x140;" horiz-adv-x="217" 
d="M225 373h-54v130h54v-130zM119 0h-56v713h56v-713z" />
    <glyph glyph-name="uni013C" unicode="&#x13c;" horiz-adv-x="182" 
d="M119 0h-56v713h56v-713zM78 -218h-52c22 59 31 110 35 164h58c-5 -59 -21 -126 -41 -164z" />
    <glyph glyph-name="uni1E37" unicode="&#x1e37;" horiz-adv-x="182" 
d="M119 0h-56v713h56v-713zM120 -160h-58v84h58v-84z" />
    <glyph glyph-name="uni1E39" unicode="&#x1e39;" horiz-adv-x="182" 
d="M119 0h-56v713h56v-713zM-18 818h217v-52h-217v52zM120 -160h-58v84h58v-84z" />
    <glyph glyph-name="uni1E3B" unicode="&#x1e3b;" horiz-adv-x="182" 
d="M119 0h-56v713h56v-713zM-18 -92h217v-52h-217v52z" />
    <glyph glyph-name="lslash" unicode="&#x142;" horiz-adv-x="196" 
d="M131 0h-56v377l-59 -42v51l59 42v285h56v-245l65 46v-52l-65 -46v-416z" />
    <glyph glyph-name="uni1E43" unicode="&#x1e43;" horiz-adv-x="640" 
d="M63 0v352c0 86 0 127 -1 151h54c2 -16 3 -43 3 -69c18 46 53 77 113 77c52 0 90 -21 105 -77c17 43 56 77 121 77c59 0 120 -28 120 -144v-367h-56v356c0 55 -16 104 -78 104c-70 0 -95 -65 -95 -134v-326h-56v354c0 69 -23 106 -76 106c-66 0 -98 -63 -98 -143v-317h-56
zM349 -160h-58v84h58v-84z" />
    <glyph glyph-name="nacute" unicode="&#x144;" horiz-adv-x="433" 
d="M63 0v348c0 103 -1 133 -1 155h54c1 -12 3 -31 3 -71c17 44 53 80 122 80s129 -38 129 -154v-358h-57v349c0 65 -23 111 -85 111c-77 0 -108 -52 -108 -165v-295h-57zM286 725h68l-124 -140h-56z" />
    <glyph glyph-name="ncaron" unicode="&#x148;" horiz-adv-x="433" 
d="M63 0v348c0 103 -1 133 -1 155h54c1 -12 3 -31 3 -71c17 44 53 80 122 80s129 -38 129 -154v-358h-57v349c0 65 -23 111 -85 111c-77 0 -108 -52 -108 -165v-295h-57zM247 580h-62l-88 135h58l61 -97l62 97h56z" />
    <glyph glyph-name="ntilde" unicode="&#xf1;" horiz-adv-x="433" 
d="M63 0v348c0 103 -1 133 -1 155h54c1 -12 3 -31 3 -71c17 44 53 80 122 80s129 -38 129 -154v-358h-57v349c0 65 -23 111 -85 111c-77 0 -108 -52 -108 -165v-295h-57zM138 597h-42v18c0 53 24 74 60 74c48 0 84 -44 115 -44c16 0 23 8 23 39v7h41v-16
c0 -59 -25 -78 -62 -78c-44 0 -81 44 -113 44c-14 0 -22 -8 -22 -33v-11z" />
    <glyph glyph-name="uni0146" unicode="&#x146;" horiz-adv-x="433" 
d="M63 0v348c0 103 -1 133 -1 155h54c1 -12 3 -31 3 -71c17 44 53 80 122 80s129 -38 129 -154v-358h-57v349c0 65 -23 111 -85 111c-77 0 -108 -52 -108 -165v-295h-57zM207 -218h-52c22 59 31 110 35 164h58c-5 -59 -21 -126 -41 -164z" />
    <glyph glyph-name="uni1E45" unicode="&#x1e45;" horiz-adv-x="433" 
d="M63 0v348c0 103 -1 133 -1 155h54c1 -12 3 -31 3 -71c17 44 53 80 122 80s129 -38 129 -154v-358h-57v349c0 65 -23 111 -85 111c-77 0 -108 -52 -108 -165v-295h-57zM244 615h-57v100h57v-100z" />
    <glyph glyph-name="uni1E47" unicode="&#x1e47;" horiz-adv-x="433" 
d="M63 0v348c0 103 -1 133 -1 155h54c1 -12 3 -31 3 -71c17 44 53 80 122 80s129 -38 129 -154v-358h-57v349c0 65 -23 111 -85 111c-77 0 -108 -52 -108 -165v-295h-57zM244 -160h-58v84h58v-84z" />
    <glyph glyph-name="uni1E49" unicode="&#x1e49;" horiz-adv-x="433" 
d="M63 0v348c0 103 -1 133 -1 155h54c1 -12 3 -31 3 -71c17 44 53 80 122 80s129 -38 129 -154v-358h-57v349c0 65 -23 111 -85 111c-77 0 -108 -52 -108 -165v-295h-57zM107 -92h217v-52h-217v52z" />
    <glyph glyph-name="napostrophe" unicode="&#x149;" horiz-adv-x="433" 
d="M69 558h-47c21 64 30 120 33 163h53c-4 -72 -24 -131 -39 -163zM63 0v348c0 103 -1 133 -1 155h54c1 -12 3 -31 3 -71c17 44 53 80 122 80s129 -38 129 -154v-358h-57v349c0 65 -23 111 -85 111c-77 0 -108 -52 -108 -165v-295h-57z" />
    <glyph glyph-name="ograve" unicode="&#xf2;" horiz-adv-x="409" 
d="M207 511c106 0 164 -84 164 -253c0 -175 -56 -267 -166 -267c-115 0 -168 89 -168 266c0 173 66 254 170 254zM204 461c-67 0 -109 -58 -109 -205c0 -148 40 -215 110 -215s108 69 108 216c0 136 -37 204 -109 204zM55 725h69l111 -140h-55z" />
    <glyph glyph-name="oacute" unicode="&#xf3;" horiz-adv-x="409" 
d="M207 511c106 0 164 -84 164 -253c0 -175 -56 -267 -166 -267c-115 0 -168 89 -168 266c0 173 66 254 170 254zM204 461c-67 0 -109 -58 -109 -205c0 -148 40 -215 110 -215s108 69 108 216c0 136 -37 204 -109 204zM275 727h68l-124 -140h-56z" />
    <glyph glyph-name="ocircumflex" unicode="&#xf4;" horiz-adv-x="409" 
d="M207 511c106 0 164 -84 164 -253c0 -175 -56 -267 -166 -267c-115 0 -168 89 -168 266c0 173 66 254 170 254zM204 461c-67 0 -109 -58 -109 -205c0 -148 40 -215 110 -215s108 69 108 216c0 136 -37 204 -109 204zM172 715h62l87 -136h-58l-60 98l-61 -98h-56z" />
    <glyph glyph-name="otilde" unicode="&#xf5;" horiz-adv-x="409" 
d="M207 511c106 0 164 -84 164 -253c0 -175 -56 -267 -166 -267c-115 0 -168 89 -168 266c0 173 66 254 170 254zM204 461c-67 0 -109 -58 -109 -205c0 -148 40 -215 110 -215s108 69 108 216c0 136 -37 204 -109 204zM126 597h-42v18c0 53 24 74 60 74c48 0 84 -44 115 -44
c16 0 23 8 23 39v7h41v-16c0 -59 -25 -78 -62 -78c-44 0 -81 44 -113 44c-14 0 -22 -8 -22 -33v-11z" />
    <glyph glyph-name="odieresis" unicode="&#xf6;" horiz-adv-x="409" 
d="M207 511c106 0 164 -84 164 -253c0 -175 -56 -267 -166 -267c-115 0 -168 89 -168 266c0 173 66 254 170 254zM204 461c-67 0 -109 -58 -109 -205c0 -148 40 -215 110 -215s108 69 108 216c0 136 -37 204 -109 204zM160 613h-51v100h51v-100zM298 613h-51v100h51v-100z
" />
    <glyph glyph-name="omacron" unicode="&#x14d;" horiz-adv-x="409" 
d="M207 511c106 0 164 -84 164 -253c0 -175 -56 -267 -166 -267c-115 0 -168 89 -168 266c0 173 66 254 170 254zM204 461c-67 0 -109 -58 -109 -205c0 -148 40 -215 110 -215s108 69 108 216c0 136 -37 204 -109 204zM95 676h217v-52h-217v52z" />
    <glyph glyph-name="ohungarumlaut" unicode="&#x151;" horiz-adv-x="409" 
d="M207 511c106 0 164 -84 164 -253c0 -175 -56 -267 -166 -267c-115 0 -168 89 -168 266c0 173 66 254 170 254zM204 461c-67 0 -109 -58 -109 -205c0 -148 40 -215 110 -215s108 69 108 216c0 136 -37 204 -109 204zM146 574h-51l78 141h61zM286 574h-51l77 141h63z" />
    <glyph glyph-name="uni01D2" unicode="&#x1d2;" horiz-adv-x="409" 
d="M207 511c106 0 164 -84 164 -253c0 -175 -56 -267 -166 -267c-115 0 -168 89 -168 266c0 173 66 254 170 254zM204 461c-67 0 -109 -58 -109 -205c0 -148 40 -215 110 -215s108 69 108 216c0 136 -37 204 -109 204zM235 580h-62l-88 135h58l61 -97l62 97h56z" />
    <glyph glyph-name="uni1ECD" unicode="&#x1ecd;" horiz-adv-x="409" 
d="M207 511c106 0 164 -84 164 -253c0 -175 -56 -267 -166 -267c-115 0 -168 89 -168 266c0 173 66 254 170 254zM204 461c-67 0 -109 -58 -109 -205c0 -148 40 -215 110 -215s108 69 108 216c0 136 -37 204 -109 204zM232 -160h-58v84h58v-84z" />
    <glyph glyph-name="uni1ECF" unicode="&#x1ecf;" horiz-adv-x="409" 
d="M207 511c106 0 164 -84 164 -253c0 -175 -56 -267 -166 -267c-115 0 -168 89 -168 266c0 173 66 254 170 254zM204 461c-67 0 -109 -58 -109 -205c0 -148 40 -215 110 -215s108 69 108 216c0 136 -37 204 -109 204zM232 578h-58c39 33 54 53 54 79c0 18 -12 34 -39 34
c-23 0 -41 -8 -55 -18l-16 37c18 14 46 28 82 28c53 0 82 -36 82 -72c0 -42 -27 -68 -50 -88z" />
    <glyph glyph-name="uni1ED1" unicode="&#x1ed1;" horiz-adv-x="409" 
d="M207 511c106 0 164 -84 164 -253c0 -175 -56 -267 -166 -267c-115 0 -168 89 -168 266c0 173 66 254 170 254zM204 461c-67 0 -109 -58 -109 -205c0 -148 40 -215 110 -215s108 69 108 216c0 136 -37 204 -109 204zM172 701h61l91 -124h-58l-63 89l-63 -89h-57zM370 790
h62l-89 -109h-54z" />
    <glyph glyph-name="uni1ED3" unicode="&#x1ed3;" horiz-adv-x="409" 
d="M207 511c106 0 164 -84 164 -253c0 -175 -56 -267 -166 -267c-115 0 -168 89 -168 266c0 173 66 254 170 254zM204 461c-67 0 -109 -58 -109 -205c0 -148 40 -215 110 -215s108 69 108 216c0 136 -37 204 -109 204zM172 701h61l91 -124h-58l-63 89l-63 -89h-57zM250 799
h64l86 -119h-50z" />
    <glyph glyph-name="uni1ED5" unicode="&#x1ed5;" horiz-adv-x="409" 
d="M207 511c106 0 164 -84 164 -253c0 -175 -56 -267 -166 -267c-115 0 -168 89 -168 266c0 173 66 254 170 254zM204 461c-67 0 -109 -58 -109 -205c0 -148 40 -215 110 -215s108 69 108 216c0 136 -37 204 -109 204zM356 680h-53c36 30 50 49 50 72c0 16 -9 28 -33 28
c-19 0 -38 -6 -52 -18l-16 32c15 14 43 29 78 29c48 0 73 -27 73 -65c0 -33 -24 -60 -47 -78zM172 702h62l92 -125h-59l-64 89l-64 -89h-58z" />
    <glyph glyph-name="uni1ED7" unicode="&#x1ed7;" horiz-adv-x="409" 
d="M207 511c106 0 164 -84 164 -253c0 -175 -56 -267 -166 -267c-115 0 -168 89 -168 266c0 173 66 254 170 254zM204 461c-67 0 -109 -58 -109 -205c0 -148 40 -215 110 -215s108 69 108 216c0 136 -37 204 -109 204zM129 695h-39v9c0 49 26 68 59 68c46 0 80 -33 107 -33
c13 0 24 4 24 25v8h40v-10c0 -49 -23 -67 -60 -67c-41 0 -77 33 -107 33c-14 0 -24 -9 -24 -27v-6zM171 656h65l99 -89h-65l-67 57l-65 -57h-63z" />
    <glyph glyph-name="uni1ED9" unicode="&#x1ed9;" horiz-adv-x="409" 
d="M207 511c106 0 164 -84 164 -253c0 -175 -56 -267 -166 -267c-115 0 -168 89 -168 266c0 173 66 254 170 254zM204 461c-67 0 -109 -58 -109 -205c0 -148 40 -215 110 -215s108 69 108 216c0 136 -37 204 -109 204zM232 -160h-58v84h58v-84zM172 715h62l87 -136h-58
l-60 98l-61 -98h-56z" />
    <glyph glyph-name="oslash" unicode="&#xf8;" horiz-adv-x="409" 
d="M207 511c37 0 69 -10 94 -31l16 31h43l-32 -61c28 -42 43 -106 43 -192c0 -176 -56 -267 -166 -267c-42 0 -75 12 -101 35l-18 -34h-41l34 64c-29 44 -42 111 -42 201c0 173 65 254 170 254zM204 462c-67 0 -109 -57 -109 -206c0 -57 6 -102 17 -136l162 310
c-17 21 -41 32 -70 32zM205 40c70 0 109 67 109 219c0 55 -6 98 -18 131l-164 -311c18 -27 43 -39 73 -39z" />
    <glyph glyph-name="oe" unicode="&#x153;" horiz-adv-x="672" 
d="M475 -9c-73 0 -114 41 -134 99c-26 -65 -71 -99 -136 -99c-115 0 -168 88 -168 267c0 173 65 253 170 253c65 0 112 -33 137 -100c25 64 70 100 138 100c125 0 155 -107 155 -230c0 -3 0 -24 -1 -37h-266c0 -108 23 -203 109 -203c87 0 95 93 98 106h56
c-1 -11 -10 -156 -158 -156zM204 461c-67 0 -109 -57 -109 -204c0 -149 41 -216 110 -216c70 0 108 68 108 218c0 135 -37 202 -109 202zM371 291h209c0 102 -25 170 -101 170c-103 0 -106 -137 -108 -170z" />
    <glyph glyph-name="ohorn" unicode="&#x1a1;" horiz-adv-x="409" 
d="M207 511c36 0 66 -10 90 -29c27 10 39 32 39 62c0 16 -3 31 -6 44h56c3 -12 5 -27 5 -43c0 -51 -25 -84 -61 -100c27 -42 41 -104 41 -187c0 -175 -56 -267 -166 -267c-115 0 -168 89 -168 266c0 173 66 254 170 254zM204 461c-67 0 -109 -58 -109 -205
c0 -148 40 -215 110 -215s108 69 108 216c0 136 -37 204 -109 204z" />
    <glyph glyph-name="uni1EDB" unicode="&#x1edb;" horiz-adv-x="409" 
d="M207 511c36 0 66 -10 90 -29c27 10 39 32 39 62c0 16 -3 31 -6 44h56c3 -12 5 -27 5 -43c0 -51 -25 -84 -61 -100c27 -42 41 -104 41 -187c0 -175 -56 -267 -166 -267c-115 0 -168 89 -168 266c0 173 66 254 170 254zM204 461c-67 0 -109 -58 -109 -205
c0 -148 40 -215 110 -215s108 69 108 216c0 136 -37 204 -109 204zM274 725h68l-124 -140h-56z" />
    <glyph glyph-name="uni1EDD" unicode="&#x1edd;" horiz-adv-x="409" 
d="M207 511c36 0 66 -10 90 -29c27 10 39 32 39 62c0 16 -3 31 -6 44h56c3 -12 5 -27 5 -43c0 -51 -25 -84 -61 -100c27 -42 41 -104 41 -187c0 -175 -56 -267 -166 -267c-115 0 -168 89 -168 266c0 173 66 254 170 254zM204 461c-67 0 -109 -58 -109 -205
c0 -148 40 -215 110 -215s108 69 108 216c0 136 -37 204 -109 204zM65 724h69l111 -140h-55z" />
    <glyph glyph-name="uni1EDF" unicode="&#x1edf;" horiz-adv-x="409" 
d="M207 511c36 0 66 -10 90 -29c27 10 39 32 39 62c0 16 -3 31 -6 44h56c3 -12 5 -27 5 -43c0 -51 -25 -84 -61 -100c27 -42 41 -104 41 -187c0 -175 -56 -267 -166 -267c-115 0 -168 89 -168 266c0 173 66 254 170 254zM204 461c-67 0 -109 -58 -109 -205
c0 -148 40 -215 110 -215s108 69 108 216c0 136 -37 204 -109 204zM232 578h-58c39 33 54 53 54 79c0 18 -12 34 -39 34c-23 0 -41 -8 -55 -18l-16 37c18 14 46 28 82 28c53 0 82 -36 82 -72c0 -42 -27 -68 -50 -88z" />
    <glyph glyph-name="uni1EE1" unicode="&#x1ee1;" horiz-adv-x="409" 
d="M207 511c36 0 66 -10 90 -29c27 10 39 32 39 62c0 16 -3 31 -6 44h56c3 -12 5 -27 5 -43c0 -51 -25 -84 -61 -100c27 -42 41 -104 41 -187c0 -175 -56 -267 -166 -267c-115 0 -168 89 -168 266c0 173 66 254 170 254zM204 461c-67 0 -109 -58 -109 -205
c0 -148 40 -215 110 -215s108 69 108 216c0 136 -37 204 -109 204zM126 597h-42v18c0 53 24 74 60 74c48 0 84 -44 115 -44c16 0 23 8 23 39v7h41v-16c0 -59 -25 -78 -62 -78c-44 0 -81 44 -113 44c-14 0 -22 -8 -22 -33v-11z" />
    <glyph glyph-name="uni1EE3" unicode="&#x1ee3;" horiz-adv-x="409" 
d="M207 511c36 0 66 -10 90 -29c27 10 39 32 39 62c0 16 -3 31 -6 44h56c3 -12 5 -27 5 -43c0 -51 -25 -84 -61 -100c27 -42 41 -104 41 -187c0 -175 -56 -267 -166 -267c-115 0 -168 89 -168 266c0 173 66 254 170 254zM204 461c-67 0 -109 -58 -109 -205
c0 -148 40 -215 110 -215s108 69 108 216c0 136 -37 204 -109 204zM232 -160h-58v84h58v-84z" />
    <glyph glyph-name="racute" unicode="&#x155;" horiz-adv-x="261" 
d="M63 0v331c0 80 0 136 -1 172h54c1 -15 2 -39 2 -92c23 62 73 99 134 100v-62c-89 -4 -133 -70 -133 -162v-287h-56zM210 725h68l-124 -140h-56z" />
    <glyph glyph-name="uni0157" unicode="&#x157;" horiz-adv-x="261" 
d="M63 0v331c0 80 0 136 -1 172h54c1 -15 2 -39 2 -92c23 62 73 99 134 100v-62c-89 -4 -133 -70 -133 -162v-287h-56zM78 -218h-52c22 59 31 110 35 164h58c-5 -59 -21 -126 -41 -164z" />
    <glyph glyph-name="rcaron" unicode="&#x159;" horiz-adv-x="261" 
d="M63 0v331c0 80 0 136 -1 172h54c1 -15 2 -39 2 -92c23 62 73 99 134 100v-62c-89 -4 -133 -70 -133 -162v-287h-56zM179 580h-62l-88 135h58l61 -97l62 97h56z" />
    <glyph glyph-name="uni1E5B" unicode="&#x1e5b;" horiz-adv-x="261" 
d="M63 0v331c0 80 0 136 -1 172h54c1 -15 2 -39 2 -92c23 62 73 99 134 100v-62c-89 -4 -133 -70 -133 -162v-287h-56zM120 -160h-58v84h58v-84z" />
    <glyph glyph-name="uni1E5D" unicode="&#x1e5d;" horiz-adv-x="261" 
d="M63 0v331c0 80 0 136 -1 172h54c1 -15 2 -39 2 -92c23 62 73 99 134 100v-62c-89 -4 -133 -70 -133 -162v-287h-56zM43 676h217v-52h-217v52zM120 -160h-58v84h58v-84z" />
    <glyph glyph-name="uni1E5F" unicode="&#x1e5f;" horiz-adv-x="261" 
d="M63 0v331c0 80 0 136 -1 172h54c1 -15 2 -39 2 -92c23 62 73 99 134 100v-62c-89 -4 -133 -70 -133 -162v-287h-56zM-15 -92h217v-52h-217v52z" />
    <glyph glyph-name="sacute" unicode="&#x15b;" horiz-adv-x="358" 
d="M24 142h56c5 -61 37 -103 99 -103c61 0 90 39 90 90c0 58 -30 84 -99 111c-98 38 -129 74 -129 143c0 67 41 129 137 129c105 0 137 -71 138 -139h-56c-2 27 -9 90 -84 90c-54 0 -78 -33 -78 -78c0 -43 18 -65 91 -93c93 -37 138 -71 138 -159c0 -89 -56 -142 -152 -142
c-97 0 -148 59 -151 151zM243 725h68l-124 -140h-56z" />
    <glyph glyph-name="scircumflex" unicode="&#x15d;" horiz-adv-x="358" 
d="M24 142h56c5 -61 37 -103 99 -103c61 0 90 39 90 90c0 58 -30 84 -99 111c-98 38 -129 74 -129 143c0 67 41 129 137 129c105 0 137 -71 138 -139h-56c-2 27 -9 90 -84 90c-54 0 -78 -33 -78 -78c0 -43 18 -65 91 -93c93 -37 138 -71 138 -159c0 -89 -56 -142 -152 -142
c-97 0 -148 59 -151 151zM149 715h62l87 -136h-58l-60 98l-61 -98h-56z" />
    <glyph glyph-name="scaron" unicode="&#x161;" horiz-adv-x="358" 
d="M24 142h56c5 -61 37 -103 99 -103c61 0 90 39 90 90c0 58 -30 84 -99 111c-98 38 -129 74 -129 143c0 67 41 129 137 129c105 0 137 -71 138 -139h-56c-2 27 -9 90 -84 90c-54 0 -78 -33 -78 -78c0 -43 18 -65 91 -93c93 -37 138 -71 138 -159c0 -89 -56 -142 -152 -142
c-97 0 -148 59 -151 151zM212 580h-62l-88 135h58l61 -97l62 97h56z" />
    <glyph glyph-name="uni015F" unicode="&#x15f;" horiz-adv-x="358" 
d="M24 142h56c5 -61 37 -103 99 -103c61 0 90 39 90 90c0 58 -30 84 -99 111c-98 38 -129 74 -129 143c0 67 41 129 137 129c105 0 137 -71 138 -139h-56c-2 27 -9 90 -84 90c-54 0 -78 -33 -78 -78c0 -43 18 -65 91 -93c93 -37 138 -71 138 -159c0 -82 -47 -133 -129 -141
l-19 -34c35 -8 80 -26 80 -79s-43 -77 -93 -77c-29 0 -54 6 -70 16l11 43c14 -8 40 -13 56 -13c30 0 42 10 42 29c0 28 -33 42 -80 46v20l26 49c-81 9 -124 66 -127 150z" />
    <glyph glyph-name="uni0219" unicode="&#x219;" horiz-adv-x="358" 
d="M24 142h56c5 -61 37 -103 99 -103c61 0 90 39 90 90c0 58 -30 84 -99 111c-98 38 -129 74 -129 143c0 67 41 129 137 129c105 0 137 -71 138 -139h-56c-2 27 -9 90 -84 90c-54 0 -78 -33 -78 -78c0 -43 18 -65 91 -93c93 -37 138 -71 138 -159c0 -89 -56 -142 -152 -142
c-97 0 -148 59 -151 151zM166 -218h-52c22 59 31 110 35 164h58c-5 -59 -21 -126 -41 -164z" />
    <glyph glyph-name="uni1E61" unicode="&#x1e61;" horiz-adv-x="358" 
d="M24 142h56c5 -61 37 -103 99 -103c61 0 90 39 90 90c0 58 -30 84 -99 111c-98 38 -129 74 -129 143c0 67 41 129 137 129c105 0 137 -71 138 -139h-56c-2 27 -9 90 -84 90c-54 0 -78 -33 -78 -78c0 -43 18 -65 91 -93c93 -37 138 -71 138 -159c0 -89 -56 -142 -152 -142
c-97 0 -148 59 -151 151zM209 615h-57v100h57v-100z" />
    <glyph glyph-name="uni1E63" unicode="&#x1e63;" horiz-adv-x="358" 
d="M24 142h56c5 -61 37 -103 99 -103c61 0 90 39 90 90c0 58 -30 84 -99 111c-98 38 -129 74 -129 143c0 67 41 129 137 129c105 0 137 -71 138 -139h-56c-2 27 -9 90 -84 90c-54 0 -78 -33 -78 -78c0 -43 18 -65 91 -93c93 -37 138 -71 138 -159c0 -89 -56 -142 -152 -142
c-97 0 -148 59 -151 151zM209 -160h-58v84h58v-84z" />
    <glyph glyph-name="germandbls" unicode="&#xdf;" horiz-adv-x="436" 
d="M223 718c121 0 157 -80 157 -164v-39l-132 -118v-3l58 -54c72 -67 98 -115 98 -189c0 -93 -44 -160 -142 -160c-46 0 -84 14 -107 40v66c28 -32 60 -55 107 -55c61 0 86 44 86 105c0 49 -20 93 -80 146l-55 50c-35 32 -29 59 6 93l104 95c4 64 -14 137 -101 137
c-78 0 -103 -54 -103 -119v-549h-56v553c0 101 56 165 160 165z" />
    <glyph glyph-name="tcaron" unicode="&#x165;" horiz-adv-x="226" 
d="M238 591h-43l1 189h52zM-2 453v50h73v137h55v-137h91v-50h-91v-350c0 -37 8 -61 47 -61c12 0 29 1 38 3v-44c-16 -6 -39 -8 -55 -8c-51 0 -85 22 -85 97v363h-73z" />
    <glyph glyph-name="uni0163" unicode="&#x163;" horiz-adv-x="226" 
d="M-2 453v50h73v137h55v-137h91v-50h-91v-350c0 -37 8 -61 47 -61c12 0 29 1 38 3v-44c-16 -6 -39 -8 -55 -8h-2l-15 -27c35 -8 80 -26 80 -79s-43 -77 -93 -77c-29 0 -54 6 -70 16l11 43c14 -8 40 -13 56 -13c30 0 42 10 42 29c0 28 -33 42 -80 46v20l27 50
c-26 12 -41 39 -41 89v363h-73z" />
    <glyph glyph-name="uni021B" unicode="&#x21b;" horiz-adv-x="226" 
d="M-2 453v50h73v137h55v-137h91v-50h-91v-350c0 -37 8 -61 47 -61c12 0 29 1 38 3v-44c-16 -6 -39 -8 -55 -8c-51 0 -85 22 -85 97v363h-73zM122 -218h-52c22 59 31 110 35 164h58c-5 -59 -21 -126 -41 -164z" />
    <glyph glyph-name="uni1E6D" unicode="&#x1e6d;" horiz-adv-x="226" 
d="M-2 453v50h73v137h55v-137h91v-50h-91v-350c0 -37 8 -61 47 -61c12 0 29 1 38 3v-44c-16 -6 -39 -8 -55 -8c-51 0 -85 22 -85 97v363h-73zM159 -160h-58v84h58v-84z" />
    <glyph glyph-name="uni1E6F" unicode="&#x1e6f;" horiz-adv-x="226" 
d="M-2 453v50h73v137h55v-137h91v-50h-91v-350c0 -37 8 -61 47 -61c12 0 29 1 38 3v-44c-16 -6 -39 -8 -55 -8c-51 0 -85 22 -85 97v363h-73zM23 -92h217v-52h-217v52z" />
    <glyph glyph-name="uni1E97" unicode="&#x1e97;" horiz-adv-x="226" 
d="M-2 453v50h73v137h55v-137h91v-50h-91v-350c0 -37 8 -61 47 -61c12 0 29 1 38 3v-44c-16 -6 -39 -8 -55 -8c-51 0 -85 22 -85 97v363h-73zM55 671h-51v100h51v-100zM193 671h-51v100h51v-100z" />
    <glyph glyph-name="ugrave" unicode="&#xf9;" horiz-adv-x="428" 
d="M366 503v-369c0 -60 0 -110 1 -134h-53c-2 14 -3 33 -3 72c-17 -52 -61 -81 -123 -81c-53 0 -126 20 -126 150v362h57v-348c0 -70 21 -113 85 -113c59 0 105 37 105 157v304h57zM74 724h69l111 -140h-55z" />
    <glyph glyph-name="uacute" unicode="&#xfa;" horiz-adv-x="428" 
d="M366 503v-369c0 -60 0 -110 1 -134h-53c-2 14 -3 33 -3 72c-17 -52 -61 -81 -123 -81c-53 0 -126 20 -126 150v362h57v-348c0 -70 21 -113 85 -113c59 0 105 37 105 157v304h57zM285 725h68l-124 -140h-56z" />
    <glyph glyph-name="ucircumflex" unicode="&#xfb;" horiz-adv-x="428" 
d="M366 503v-369c0 -60 0 -110 1 -134h-53c-2 14 -3 33 -3 72c-17 -52 -61 -81 -123 -81c-53 0 -126 20 -126 150v362h57v-348c0 -70 21 -113 85 -113c59 0 105 37 105 157v304h57zM182 715h62l87 -136h-58l-60 98l-61 -98h-56z" />
    <glyph glyph-name="utilde" unicode="&#x169;" horiz-adv-x="428" 
d="M366 503v-369c0 -60 0 -110 1 -134h-53c-2 14 -3 33 -3 72c-17 -52 -61 -81 -123 -81c-53 0 -126 20 -126 150v362h57v-348c0 -70 21 -113 85 -113c59 0 105 37 105 157v304h57zM136 597h-42v18c0 53 24 74 60 74c48 0 84 -44 115 -44c16 0 23 8 23 39v7h41v-16
c0 -59 -25 -78 -62 -78c-44 0 -81 44 -113 44c-14 0 -22 -8 -22 -33v-11z" />
    <glyph glyph-name="udieresis" unicode="&#xfc;" horiz-adv-x="428" 
d="M366 503v-369c0 -60 0 -110 1 -134h-53c-2 14 -3 33 -3 72c-17 -52 -61 -81 -123 -81c-53 0 -126 20 -126 150v362h57v-348c0 -70 21 -113 85 -113c59 0 105 37 105 157v304h57zM170 613h-51v100h51v-100zM308 613h-51v100h51v-100z" />
    <glyph glyph-name="umacron" unicode="&#x16b;" horiz-adv-x="428" 
d="M366 503v-369c0 -60 0 -110 1 -134h-53c-2 14 -3 33 -3 72c-17 -52 -61 -81 -123 -81c-53 0 -126 20 -126 150v362h57v-348c0 -70 21 -113 85 -113c59 0 105 37 105 157v304h57zM105 676h217v-52h-217v52z" />
    <glyph glyph-name="ubreve" unicode="&#x16d;" horiz-adv-x="428" 
d="M366 503v-369c0 -60 0 -110 1 -134h-53c-2 14 -3 33 -3 72c-17 -52 -61 -81 -123 -81c-53 0 -126 20 -126 150v362h57v-348c0 -70 21 -113 85 -113c59 0 105 37 105 157v304h57zM96 702h46c7 -36 28 -65 71 -65c50 0 65 33 72 65h46c-8 -65 -47 -112 -118 -112
c-78 0 -113 58 -117 112z" />
    <glyph glyph-name="uring" unicode="&#x16f;" horiz-adv-x="428" 
d="M366 503v-369c0 -60 0 -110 1 -134h-53c-2 14 -3 33 -3 72c-17 -52 -61 -81 -123 -81c-53 0 -126 20 -126 150v362h57v-348c0 -70 21 -113 85 -113c59 0 105 37 105 157v304h57zM214 571c-52 0 -85 39 -85 83c0 46 31 85 84 85c54 0 86 -37 86 -84s-34 -84 -85 -84z
M214 606c30 0 45 24 45 48s-14 50 -45 50s-46 -22 -46 -48c0 -25 14 -50 46 -50z" />
    <glyph glyph-name="uhungarumlaut" unicode="&#x171;" horiz-adv-x="428" 
d="M366 503v-369c0 -60 0 -110 1 -134h-53c-2 14 -3 33 -3 72c-17 -52 -61 -81 -123 -81c-53 0 -126 20 -126 150v362h57v-348c0 -70 21 -113 85 -113c59 0 105 37 105 157v304h57zM156 574h-51l78 141h61zM296 574h-51l77 141h63z" />
    <glyph glyph-name="uni01D4" unicode="&#x1d4;" horiz-adv-x="428" 
d="M366 503v-369c0 -60 0 -110 1 -134h-53c-2 14 -3 33 -3 72c-17 -52 -61 -81 -123 -81c-53 0 -126 20 -126 150v362h57v-348c0 -70 21 -113 85 -113c59 0 105 37 105 157v304h57zM245 580h-62l-88 135h58l61 -97l62 97h56z" />
    <glyph glyph-name="uni01D6" unicode="&#x1d6;" horiz-adv-x="428" 
d="M366 503v-369c0 -60 0 -110 1 -134h-53c-2 14 -3 33 -3 72c-17 -52 -61 -81 -123 -81c-53 0 -126 20 -126 150v362h57v-348c0 -70 21 -113 85 -113c59 0 105 37 105 157v304h57zM162 572h-52v74h52v-74zM318 700h-209v47h209v-47zM317 572h-52v74h52v-74z" />
    <glyph glyph-name="uni01D8" unicode="&#x1d8;" horiz-adv-x="428" 
d="M366 503v-369c0 -60 0 -110 1 -134h-53c-2 14 -3 33 -3 72c-17 -52 -61 -81 -123 -81c-53 0 -126 20 -126 150v362h57v-348c0 -70 21 -113 85 -113c59 0 105 37 105 157v304h57zM110 642h53v-74h-53v74zM234 679h-55l78 103h71zM317 568h-52v74h52v-74z" />
    <glyph glyph-name="uni01DA" unicode="&#x1da;" horiz-adv-x="428" 
d="M366 503v-369c0 -60 0 -110 1 -134h-53c-2 14 -3 33 -3 72c-17 -52 -61 -81 -123 -81c-53 0 -126 20 -126 150v362h57v-348c0 -70 21 -113 85 -113c59 0 105 37 105 157v304h57zM242 672h-57l-92 101h58l63 -69l63 69h56zM162 567h-53v74h53v-74zM318 567h-52v74h52v-74z
" />
    <glyph glyph-name="uni01DC" unicode="&#x1dc;" horiz-adv-x="428" 
d="M366 503v-369c0 -60 0 -110 1 -134h-53c-2 14 -3 33 -3 72c-17 -52 -61 -81 -123 -81c-53 0 -126 20 -126 150v362h57v-348c0 -70 21 -113 85 -113c59 0 105 37 105 157v304h57zM110 642h53v-74h-53v74zM99 782h74l76 -102h-57zM317 568h-52v74h52v-74z" />
    <glyph glyph-name="uni1EE5" unicode="&#x1ee5;" horiz-adv-x="428" 
d="M366 503v-369c0 -60 0 -110 1 -134h-53c-2 14 -3 33 -3 72c-17 -52 -61 -81 -123 -81c-53 0 -126 20 -126 150v362h57v-348c0 -70 21 -113 85 -113c59 0 105 37 105 157v304h57zM242 -160h-58v84h58v-84z" />
    <glyph glyph-name="uni1EE7" unicode="&#x1ee7;" horiz-adv-x="428" 
d="M366 503v-369c0 -60 0 -110 1 -134h-53c-2 14 -3 33 -3 72c-17 -52 -61 -81 -123 -81c-53 0 -126 20 -126 150v362h57v-348c0 -70 21 -113 85 -113c59 0 105 37 105 157v304h57zM242 578h-58c39 33 54 53 54 79c0 18 -12 34 -39 34c-23 0 -41 -8 -55 -18l-16 37
c18 14 46 28 82 28c53 0 82 -36 82 -72c0 -42 -27 -68 -50 -88z" />
    <glyph glyph-name="uogonek" unicode="&#x173;" horiz-adv-x="428" 
d="M366 503v-369c0 -60 0 -110 1 -134c-35 -35 -50 -69 -50 -96c0 -31 19 -46 46 -46c16 0 31 2 45 9l7 -44c-19 -13 -42 -15 -67 -15c-52 0 -88 32 -88 86c0 36 19 79 53 112c-1 14 -2 32 -2 66c-17 -52 -61 -81 -123 -81c-53 0 -126 20 -126 150v362h57v-348
c0 -70 21 -113 85 -113c59 0 105 37 105 157v304h57z" />
    <glyph glyph-name="uhorn" unicode="&#x1b0;" horiz-adv-x="428" 
d="M311 72c-17 -52 -61 -81 -123 -81c-53 0 -126 20 -126 150v362h57v-348c0 -70 21 -113 85 -113c59 0 105 37 105 157v304h19v1c36 7 51 31 51 65c0 16 -3 31 -6 44h56c3 -12 5 -27 5 -43c0 -54 -28 -89 -68 -103v-333c0 -60 0 -110 1 -134h-53c-2 14 -3 33 -3 72z" />
    <glyph glyph-name="uni1EE9" unicode="&#x1ee9;" horiz-adv-x="428" 
d="M311 72c-17 -52 -61 -81 -123 -81c-53 0 -126 20 -126 150v362h57v-348c0 -70 21 -113 85 -113c59 0 105 37 105 157v304h19v1c36 7 51 31 51 65c0 16 -3 31 -6 44h56c3 -12 5 -27 5 -43c0 -54 -28 -89 -68 -103v-333c0 -60 0 -110 1 -134h-53c-2 14 -3 33 -3 72z
M284 725h68l-124 -140h-56z" />
    <glyph glyph-name="uni1EEB" unicode="&#x1eeb;" horiz-adv-x="428" 
d="M311 72c-17 -52 -61 -81 -123 -81c-53 0 -126 20 -126 150v362h57v-348c0 -70 21 -113 85 -113c59 0 105 37 105 157v304h19v1c36 7 51 31 51 65c0 16 -3 31 -6 44h56c3 -12 5 -27 5 -43c0 -54 -28 -89 -68 -103v-333c0 -60 0 -110 1 -134h-53c-2 14 -3 33 -3 72zM75 724
h69l111 -140h-55z" />
    <glyph glyph-name="uni1EED" unicode="&#x1eed;" horiz-adv-x="428" 
d="M311 72c-17 -52 -61 -81 -123 -81c-53 0 -126 20 -126 150v362h57v-348c0 -70 21 -113 85 -113c59 0 105 37 105 157v304h19v1c36 7 51 31 51 65c0 16 -3 31 -6 44h56c3 -12 5 -27 5 -43c0 -54 -28 -89 -68 -103v-333c0 -60 0 -110 1 -134h-53c-2 14 -3 33 -3 72z
M242 578h-58c39 33 54 53 54 79c0 18 -12 34 -39 34c-23 0 -41 -8 -55 -18l-16 37c18 14 46 28 82 28c53 0 82 -36 82 -72c0 -42 -27 -68 -50 -88z" />
    <glyph glyph-name="uni1EEF" unicode="&#x1eef;" horiz-adv-x="428" 
d="M311 72c-17 -52 -61 -81 -123 -81c-53 0 -126 20 -126 150v362h57v-348c0 -70 21 -113 85 -113c59 0 105 37 105 157v304h19v1c36 7 51 31 51 65c0 16 -3 31 -6 44h56c3 -12 5 -27 5 -43c0 -54 -28 -89 -68 -103v-333c0 -60 0 -110 1 -134h-53c-2 14 -3 33 -3 72z
M136 597h-42v18c0 53 24 74 60 74c48 0 84 -44 115 -44c16 0 23 8 23 39v7h41v-16c0 -59 -25 -78 -62 -78c-44 0 -81 44 -113 44c-14 0 -22 -8 -22 -33v-11z" />
    <glyph glyph-name="uni1EF1" unicode="&#x1ef1;" horiz-adv-x="428" 
d="M311 72c-17 -52 -61 -81 -123 -81c-53 0 -126 20 -126 150v362h57v-348c0 -70 21 -113 85 -113c59 0 105 37 105 157v304h19v1c36 7 51 31 51 65c0 16 -3 31 -6 44h56c3 -12 5 -27 5 -43c0 -54 -28 -89 -68 -103v-333c0 -60 0 -110 1 -134h-53c-2 14 -3 33 -3 72z
M242 -160h-58v84h58v-84z" />
    <glyph glyph-name="wgrave" unicode="&#x1e81;" horiz-adv-x="587" 
d="M18 503h60c53 -245 80 -368 90 -439h1c10 65 31 145 100 439h56c67 -292 88 -382 95 -436h1c8 56 30 153 94 436h58l-124 -503h-62c-38 169 -80 349 -92 429h-1c-10 -76 -49 -232 -96 -429h-64zM144 724h69l111 -140h-55z" />
    <glyph glyph-name="wacute" unicode="&#x1e83;" horiz-adv-x="587" 
d="M18 503h60c53 -245 80 -368 90 -439h1c10 65 31 145 100 439h56c67 -292 88 -382 95 -436h1c8 56 30 153 94 436h58l-124 -503h-62c-38 169 -80 349 -92 429h-1c-10 -76 -49 -232 -96 -429h-64zM375 725h68l-124 -140h-56z" />
    <glyph glyph-name="wcircumflex" unicode="&#x175;" horiz-adv-x="587" 
d="M18 503h60c53 -245 80 -368 90 -439h1c10 65 31 145 100 439h56c67 -292 88 -382 95 -436h1c8 56 30 153 94 436h58l-124 -503h-62c-38 169 -80 349 -92 429h-1c-10 -76 -49 -232 -96 -429h-64zM261 715h62l87 -136h-58l-60 98l-61 -98h-56z" />
    <glyph glyph-name="wdieresis" unicode="&#x1e85;" horiz-adv-x="587" 
d="M18 503h60c53 -245 80 -368 90 -439h1c10 65 31 145 100 439h56c67 -292 88 -382 95 -436h1c8 56 30 153 94 436h58l-124 -503h-62c-38 169 -80 349 -92 429h-1c-10 -76 -49 -232 -96 -429h-64zM249 613h-51v100h51v-100zM387 613h-51v100h51v-100z" />
    <glyph glyph-name="ygrave" unicode="&#x1ef3;" horiz-adv-x="368" 
d="M11 503h62c61 -229 105 -385 112 -436h1c9 53 59 235 112 436h59l-148 -529c-40 -144 -72 -168 -144 -168c-10 0 -24 1 -33 3v52c7 -2 21 -3 32 -3c56 0 71 41 93 130zM45 724h69l111 -140h-55z" />
    <glyph glyph-name="yacute" unicode="&#xfd;" horiz-adv-x="368" 
d="M11 503h62c61 -229 105 -385 112 -436h1c9 53 59 235 112 436h59l-148 -529c-40 -144 -72 -168 -144 -168c-10 0 -24 1 -33 3v52c7 -2 21 -3 32 -3c56 0 71 41 93 130zM254 725h68l-124 -140h-56z" />
    <glyph glyph-name="ycircumflex" unicode="&#x177;" horiz-adv-x="368" 
d="M11 503h62c61 -229 105 -385 112 -436h1c9 53 59 235 112 436h59l-148 -529c-40 -144 -72 -168 -144 -168c-10 0 -24 1 -33 3v52c7 -2 21 -3 32 -3c56 0 71 41 93 130zM152 715h62l87 -136h-58l-60 98l-61 -98h-56z" />
    <glyph glyph-name="ydieresis" unicode="&#xff;" horiz-adv-x="368" 
d="M11 503h62c61 -229 105 -385 112 -436h1c9 53 59 235 112 436h59l-148 -529c-40 -144 -72 -168 -144 -168c-10 0 -24 1 -33 3v52c7 -2 21 -3 32 -3c56 0 71 41 93 130zM140 613h-51v100h51v-100zM278 613h-51v100h51v-100z" />
    <glyph glyph-name="uni1E8F" unicode="&#x1e8f;" horiz-adv-x="368" 
d="M11 503h62c61 -229 105 -385 112 -436h1c9 53 59 235 112 436h59l-148 -529c-40 -144 -72 -168 -144 -168c-10 0 -24 1 -33 3v52c7 -2 21 -3 32 -3c56 0 71 41 93 130zM212 615h-57v100h57v-100z" />
    <glyph glyph-name="uni1EF5" unicode="&#x1ef5;" horiz-adv-x="368" 
d="M11 503h62c61 -229 105 -385 112 -436h1c9 53 59 235 112 436h59l-148 -529c-40 -144 -72 -168 -144 -168c-10 0 -24 1 -33 3v52c7 -2 21 -3 32 -3c56 0 71 41 93 130zM312 -160h-58v84h58v-84z" />
    <glyph glyph-name="uni1EF7" unicode="&#x1ef7;" horiz-adv-x="368" 
d="M11 503h62c61 -229 105 -385 112 -436h1c9 53 59 235 112 436h59l-148 -529c-40 -144 -72 -168 -144 -168c-10 0 -24 1 -33 3v52c7 -2 21 -3 32 -3c56 0 71 41 93 130zM212 578h-58c39 33 54 53 54 79c0 18 -12 34 -39 34c-23 0 -41 -8 -55 -18l-16 37c18 14 46 28 82 28
c53 0 82 -36 82 -72c0 -42 -27 -68 -50 -88z" />
    <glyph glyph-name="uni1EF9" unicode="&#x1ef9;" horiz-adv-x="368" 
d="M11 503h62c61 -229 105 -385 112 -436h1c9 53 59 235 112 436h59l-148 -529c-40 -144 -72 -168 -144 -168c-10 0 -24 1 -33 3v52c7 -2 21 -3 32 -3c56 0 71 41 93 130zM106 597h-42v18c0 53 24 74 60 74c48 0 84 -44 115 -44c16 0 23 8 23 39v7h41v-16
c0 -59 -25 -78 -62 -78c-44 0 -81 44 -113 44c-14 0 -22 -8 -22 -33v-11z" />
    <glyph glyph-name="zacute" unicode="&#x17a;" horiz-adv-x="323" 
d="M16 0v42c52 90 158 283 229 411h-213v50h278v-45c-52 -93 -161 -291 -228 -408h231l-9 -50h-288zM231 725h68l-124 -140h-56z" />
    <glyph glyph-name="zcaron" unicode="&#x17e;" horiz-adv-x="323" 
d="M16 0v42c52 90 158 283 229 411h-213v50h278v-45c-52 -93 -161 -291 -228 -408h231l-9 -50h-288zM202 580h-62l-88 135h58l61 -97l62 97h56z" />
    <glyph glyph-name="zdotaccent" unicode="&#x17c;" horiz-adv-x="323" 
d="M16 0v42c52 90 158 283 229 411h-213v50h278v-45c-52 -93 -161 -291 -228 -408h231l-9 -50h-288zM197 615h-57v100h57v-100z" />
    <glyph glyph-name="uni1E93" unicode="&#x1e93;" horiz-adv-x="323" 
d="M16 0v42c52 90 158 283 229 411h-213v50h278v-45c-52 -93 -161 -291 -228 -408h231l-9 -50h-288zM197 -160h-58v84h58v-84z" />
    <glyph glyph-name="eth" unicode="&#xf0;" horiz-adv-x="407" 
d="M68 667v50c69 -6 124 -23 167 -54l81 58l20 -33l-71 -51c74 -73 103 -196 103 -376c0 -152 -33 -270 -169 -270c-112 0 -162 91 -162 260c0 126 41 241 166 241c50 0 80 -19 91 -35c-6 53 -30 109 -72 149l-91 -65l-21 33l80 57c-33 21 -73 35 -122 36zM204 443
c-78 0 -109 -82 -109 -192c0 -129 29 -210 105 -210s110 64 110 213c0 119 -16 189 -106 189z" />
    <glyph glyph-name="thorn" unicode="&#xfe;" horiz-adv-x="425" 
d="M119 -186h-56v899h56v-282c18 48 56 80 122 80c96 0 147 -85 147 -253c0 -174 -62 -267 -161 -267c-64 0 -94 32 -108 65v-242zM330 255c0 131 -31 205 -103 205c-85 0 -110 -83 -110 -208c0 -119 13 -210 104 -210c72 0 109 86 109 213z" />
    <glyph glyph-name="uni0237" unicode="&#x237;" horiz-adv-x="185" 
d="M64 503h57v-543c0 -88 -12 -154 -101 -154c-7 0 -17 1 -27 2v51c9 -1 18 -1 23 -1c41 0 48 26 48 87v558z" />
    <glyph glyph-name="uni0251" unicode="&#x251;" horiz-adv-x="426" 
d="M308 503h55v-378c0 -45 2 -95 4 -125h-54c-3 13 -6 49 -6 73c-16 -47 -48 -82 -120 -82c-104 0 -150 95 -150 268c0 161 63 252 164 252c67 0 94 -37 106 -74c0 2 0 65 1 66zM95 259c0 -152 38 -216 104 -216c85 0 109 76 109 216c0 133 -29 201 -103 201
c-64 0 -110 -57 -110 -201z" />
    <glyph glyph-name="uni0259" unicode="&#x259;" horiz-adv-x="396" 
d="M36 258h266c0 111 -20 203 -106 203c-87 0 -98 -84 -101 -99h-56c1 12 16 149 157 149c143 0 163 -135 163 -260c0 -159 -52 -260 -167 -260c-127 0 -157 108 -157 232c0 7 0 21 1 35zM301 211h-209c0 -101 23 -171 101 -171c101 0 106 137 108 171z" />
    <glyph glyph-name="uni0261" unicode="&#x261;" horiz-adv-x="429" 
d="M364 360v-331c0 -128 -28 -223 -169 -223c-125 0 -152 84 -155 136h57c2 -32 23 -87 99 -87c93 0 112 67 112 174v55c-17 -55 -61 -83 -120 -83c-100 0 -152 83 -152 245c0 184 69 265 163 265c69 0 100 -33 109 -70c0 25 3 53 4 62h53c-1 -24 -1 -76 -1 -143zM95 246
c0 -129 36 -194 105 -194c85 0 110 85 110 205c0 129 -21 203 -103 203c-74 0 -112 -76 -112 -214z" />
    <glyph glyph-name="fi" unicode="&#xfb01;" horiz-adv-x="386" 
d="M126 0h-56v453h-69v50h69v77c0 71 22 138 111 138c12 0 29 -2 38 -5v-52c-9 2 -21 5 -35 5c-43 0 -58 -28 -58 -85v-78h82v-50h-82v-453zM270 0v503h56v-503h-56zM326 613h-56v100h56v-100z" />
    <glyph glyph-name="fl" unicode="&#xfb02;" horiz-adv-x="387" 
d="M126 0h-56v453h-69v50h69v77c0 71 22 138 111 138c12 0 29 -2 38 -5v-52c-9 2 -21 5 -35 5c-43 0 -58 -28 -58 -85v-78h82v-50h-82v-453zM327 0h-56v713h56v-713z" />
    <glyph glyph-name="ampersand" unicode="&#x26;" horiz-adv-x="529" 
d="M194 43c53 0 84 35 121 114l-135 170c-63 -51 -77 -94 -77 -154c0 -78 34 -130 91 -130zM429 416h57l-110 -246l136 -170h-72l-91 114c-39 -78 -82 -122 -158 -122c-101 0 -147 75 -147 178c0 82 32 133 108 193c-41 55 -64 101 -64 173c0 73 37 152 130 152
c86 0 126 -61 126 -137c0 -93 -41 -135 -120 -192l117 -145zM216 640c-47 0 -74 -39 -74 -103c0 -49 10 -84 55 -142c75 56 92 92 92 152c0 51 -17 93 -73 93z" />
    <glyph glyph-name="zero.slash" horiz-adv-x="424" 
d="M214 669c116 0 165 -102 165 -331c0 -233 -43 -348 -167 -348c-126 0 -167 125 -167 349c0 243 58 330 169 330zM213 619c-77 0 -111 -67 -111 -279c0 -67 4 -123 11 -167l175 400c-18 32 -43 46 -75 46zM212 40c85 0 110 97 110 298c0 77 -5 136 -15 179l-177 -408
c18 -46 44 -69 82 -69z" />
    <glyph glyph-name="zero" unicode="0" horiz-adv-x="424" 
d="M215 669c119 0 164 -101 164 -331c0 -236 -43 -348 -167 -348c-130 0 -167 124 -167 349c0 245 59 330 170 330zM214 619c-76 0 -111 -68 -111 -279c0 -198 23 -300 109 -300c85 0 109 97 109 298c0 204 -29 281 -107 281z" />
    <glyph glyph-name="one" unicode="1" horiz-adv-x="245" 
d="M165 0h-56v592c-21 -16 -76 -35 -101 -38v47c46 13 97 41 118 62h39v-663z" />
    <glyph glyph-name="two" unicode="2" horiz-adv-x="380" 
d="M355 0h-334v4c0 71 46 165 150 279c87 95 116 133 116 212c0 63 -19 125 -96 125c-67 0 -99 -51 -103 -134h-56c1 94 47 183 160 183c115 0 153 -81 153 -173c0 -95 -35 -141 -123 -235c-86 -92 -125 -164 -136 -210h278z" />
    <glyph glyph-name="three" unicode="3" horiz-adv-x="385" 
d="M91 510h-53c1 63 31 159 150 159c107 0 144 -74 144 -162c0 -86 -38 -128 -81 -144v-1c61 -20 101 -68 101 -172c0 -96 -39 -199 -168 -199c-122 0 -158 88 -161 168h55c2 -55 30 -119 107 -119c89 0 109 81 109 148c0 119 -58 147 -130 147h-28v49h29
c65 0 110 28 110 120c0 67 -23 116 -90 116c-84 0 -92 -83 -94 -110z" />
    <glyph glyph-name="four" unicode="4" horiz-adv-x="398" 
d="M317 0h-55v182h-240v49l223 430h72v-429h66l-6 -50h-60v-182zM262 232v200c0 54 -1 125 2 173c-33 -80 -129 -264 -184 -373h182z" />
    <glyph glyph-name="five" unicode="5" horiz-adv-x="403" 
d="M344 661l-8 -50h-209c-5 -70 -17 -192 -21 -231c19 28 52 51 109 51c106 0 150 -86 150 -205c0 -125 -39 -235 -168 -235c-121 0 -154 86 -159 167h57c4 -47 18 -118 104 -118c81 0 106 80 106 182c0 88 -22 160 -99 160c-62 0 -90 -37 -106 -88l-53 11
c9 75 25 254 32 356h265z" />
    <glyph glyph-name="six" unicode="6" horiz-adv-x="415" 
d="M362 528h-54c-1 9 -6 92 -86 92c-113 0 -116 -178 -119 -265c17 36 55 75 124 75c104 0 151 -86 151 -211c0 -118 -42 -229 -166 -229c-140 0 -167 138 -167 328c0 210 42 351 179 351c118 0 137 -105 138 -141zM213 39c65 0 108 55 108 176c0 99 -29 165 -104 165
c-83 0 -114 -71 -114 -132c0 -89 19 -209 110 -209z" />
    <glyph glyph-name="seven" unicode="7" horiz-adv-x="335" 
d="M7 661h319v-47c-89 -160 -167 -393 -199 -614h-60c28 205 119 468 202 609h-262v52z" />
    <glyph glyph-name="eight" unicode="8" horiz-adv-x="410" 
d="M203 -9c-113 0 -162 87 -162 193c0 112 51 154 87 172c-41 22 -70 70 -70 143c0 85 44 170 151 170c103 0 145 -79 145 -163c0 -91 -36 -132 -72 -148c49 -21 87 -73 87 -174c0 -110 -53 -193 -166 -193zM204 40c77 0 108 57 108 143c0 96 -31 147 -107 147
c-82 0 -107 -63 -107 -144c0 -80 31 -146 106 -146zM206 620c-69 0 -92 -59 -92 -117c0 -69 23 -123 93 -123c59 0 92 35 92 123c0 61 -25 117 -93 117z" />
    <glyph glyph-name="nine" unicode="9" horiz-adv-x="408" 
d="M45 124h56c6 -31 19 -84 92 -84c102 0 108 158 112 295c-20 -47 -57 -74 -118 -74c-96 0 -148 74 -148 196c0 144 66 212 162 212c100 0 161 -60 161 -277c0 -282 -37 -401 -171 -401c-127 0 -141 101 -146 133zM199 620c-63 0 -103 -53 -103 -160
c0 -82 26 -149 101 -149c73 0 105 60 105 139c0 83 -15 170 -103 170z" />
    <glyph glyph-name="zero.slashtab" horiz-adv-x="421" 
d="M212 669c116 0 165 -102 165 -331c0 -233 -43 -348 -167 -348c-126 0 -167 125 -167 349c0 243 58 330 169 330zM211 619c-77 0 -111 -67 -111 -279c0 -67 4 -123 11 -167l175 400c-18 32 -43 46 -75 46zM210 40c85 0 110 97 110 298c0 77 -5 136 -15 179l-177 -408
c18 -46 44 -69 82 -69z" />
    <glyph glyph-name="zero.tab" horiz-adv-x="421" 
d="M213 669c119 0 164 -101 164 -331c0 -236 -43 -348 -167 -348c-130 0 -167 124 -167 349c0 245 59 330 170 330zM212 619c-76 0 -111 -68 -111 -279c0 -198 23 -300 109 -300c85 0 109 97 109 298c0 204 -29 281 -107 281z" />
    <glyph glyph-name="one.tab" horiz-adv-x="421" 
d="M358 0h-294v51h122v540c-24 -15 -82 -34 -111 -36v46c42 7 94 33 128 62h40v-612h115v-51z" />
    <glyph glyph-name="two.tab" horiz-adv-x="421" 
d="M373 0h-334v4c0 71 46 165 150 279c87 95 116 133 116 212c0 63 -19 125 -96 125c-67 0 -99 -51 -103 -134h-56c1 94 47 183 160 183c115 0 153 -81 153 -173c0 -95 -35 -141 -123 -235c-86 -92 -125 -164 -136 -210h278z" />
    <glyph glyph-name="three.tab" horiz-adv-x="421" 
d="M107 510h-53c1 63 31 159 150 159c107 0 144 -74 144 -162c0 -86 -38 -128 -81 -144v-1c61 -20 101 -68 101 -172c0 -96 -39 -199 -168 -199c-122 0 -158 88 -161 168h55c2 -55 30 -119 107 -119c89 0 109 81 109 148c0 119 -58 147 -130 147h-28v49h29
c65 0 110 28 110 120c0 67 -23 116 -90 116c-84 0 -92 -83 -94 -110z" />
    <glyph glyph-name="four.tab" horiz-adv-x="421" 
d="M324 0h-55v182h-240v49l223 430h72v-429h66l-6 -50h-60v-182zM269 232v200c0 54 -1 125 2 173c-33 -80 -129 -264 -184 -373h182z" />
    <glyph glyph-name="five.tab" horiz-adv-x="421" 
d="M352 661l-8 -50h-209c-5 -70 -17 -192 -21 -231c19 28 52 51 109 51c106 0 150 -86 150 -205c0 -125 -39 -235 -168 -235c-121 0 -154 86 -159 167h57c4 -47 18 -118 104 -118c81 0 106 80 106 182c0 88 -22 160 -99 160c-62 0 -90 -37 -106 -88l-53 11
c9 75 25 254 32 356h265z" />
    <glyph glyph-name="six.tab" horiz-adv-x="421" 
d="M362 528h-54c-1 9 -6 92 -86 92c-113 0 -116 -178 -119 -265c17 36 55 75 124 75c104 0 151 -86 151 -211c0 -118 -42 -229 -166 -229c-140 0 -167 138 -167 328c0 210 42 351 179 351c118 0 137 -105 138 -141zM213 39c65 0 108 55 108 176c0 99 -29 165 -104 165
c-83 0 -114 -71 -114 -132c0 -89 19 -209 110 -209z" />
    <glyph glyph-name="seven.tab" horiz-adv-x="421" 
d="M52 661h319v-47c-89 -160 -167 -393 -199 -614h-60c28 205 119 468 202 609h-262v52z" />
    <glyph glyph-name="eight.tab" horiz-adv-x="421" 
d="M207 -9c-113 0 -162 87 -162 193c0 112 51 154 87 172c-41 22 -70 70 -70 143c0 85 44 170 151 170c103 0 145 -79 145 -163c0 -91 -36 -132 -72 -148c49 -21 87 -73 87 -174c0 -110 -53 -193 -166 -193zM208 40c77 0 108 57 108 143c0 96 -31 147 -107 147
c-82 0 -107 -63 -107 -144c0 -80 31 -146 106 -146zM210 620c-69 0 -92 -59 -92 -117c0 -69 23 -123 93 -123c59 0 92 35 92 123c0 61 -25 117 -93 117z" />
    <glyph glyph-name="nine.tab" horiz-adv-x="421" 
d="M51 124h56c6 -31 19 -84 92 -84c102 0 108 158 112 295c-20 -47 -57 -74 -118 -74c-96 0 -148 74 -148 196c0 144 66 212 162 212c100 0 161 -60 161 -277c0 -282 -37 -401 -171 -401c-127 0 -141 101 -146 133zM205 620c-63 0 -103 -53 -103 -160
c0 -82 26 -149 101 -149c73 0 105 60 105 139c0 83 -15 170 -103 170z" />
    <glyph glyph-name="zero.slashcap" horiz-adv-x="435" 
d="M220 689c124 0 169 -108 169 -344c0 -237 -45 -356 -173 -355c-130 1 -170 120 -170 354c0 254 61 345 174 345zM219 640c-78 0 -115 -82 -115 -296c0 -74 4 -132 11 -177l184 422c-18 37 -45 51 -80 51zM217 39c78 0 116 74 116 306c0 81 -5 142 -15 187l-186 -428
c18 -45 46 -65 85 -65z" />
    <glyph glyph-name="zero.cap" horiz-adv-x="435" 
d="M222 689c124 0 167 -108 167 -344c0 -242 -44 -356 -172 -355c-130 1 -171 121 -171 354c0 254 62 345 176 345zM221 639c-79 0 -116 -83 -116 -295c0 -215 33 -304 113 -304c78 0 113 75 113 305c0 220 -33 294 -110 294z" />
    <glyph glyph-name="one.cap" horiz-adv-x="251" 
d="M170 0h-58v608c-21 -16 -76 -37 -103 -40v45c43 10 97 44 120 69h41v-682z" />
    <glyph glyph-name="two.cap" horiz-adv-x="391" 
d="M364 0h-342v5c0 78 51 178 154 294c84 95 122 128 122 210c0 60 -19 130 -100 130c-67 0 -104 -46 -108 -138h-57c4 103 50 188 166 188s158 -77 158 -178c0 -94 -41 -139 -137 -245c-80 -88 -122 -162 -132 -215h284z" />
    <glyph glyph-name="three.cap" horiz-adv-x="404" 
d="M96 519h-55c4 76 37 170 155 170c107 0 148 -69 148 -171c0 -78 -35 -127 -75 -142v-1c62 -20 97 -77 97 -177c0 -107 -41 -208 -175 -208c-121 0 -162 88 -165 175h57c7 -70 37 -125 110 -125c94 0 114 83 114 154c0 124 -53 151 -125 151h-33v51h33
c61 0 105 27 105 119c0 81 -29 124 -93 124c-74 0 -95 -65 -98 -120z" />
    <glyph glyph-name="four.cap" horiz-adv-x="417" 
d="M332 0h-55v188h-252v49l234 443h73v-442h71l-8 -50h-63v-188zM277 238v206c0 56 -2 128 2 178c-26 -60 -138 -271 -195 -384h193z" />
    <glyph glyph-name="five.cap" horiz-adv-x="417" 
d="M356 680l-8 -51h-218c-4 -79 -16 -193 -21 -241c19 32 57 56 114 56c109 0 155 -90 155 -220c0 -115 -37 -233 -173 -233c-122 0 -161 84 -166 172h59c4 -55 28 -122 109 -122c85 0 111 85 111 178c0 102 -27 174 -105 174c-69 0 -94 -41 -111 -92l-54 11
c10 77 26 267 33 368h275z" />
    <glyph glyph-name="six.cap" horiz-adv-x="426" 
d="M375 542h-57c-4 16 -5 98 -94 98c-105 0 -115 -140 -120 -272c19 38 62 75 132 75c104 0 152 -87 152 -216c0 -127 -43 -237 -169 -237c-140 0 -173 135 -173 321c0 260 47 378 181 378c117 0 144 -88 148 -147zM219 40c68 0 111 56 111 180c0 98 -26 173 -108 173
c-85 0 -116 -76 -116 -140c0 -91 20 -213 113 -213z" />
    <glyph glyph-name="seven.cap" horiz-adv-x="343" 
d="M7 680h327v-46c-88 -156 -175 -399 -212 -634h-60c36 234 131 487 214 629h-269v51z" />
    <glyph glyph-name="eight.cap" horiz-adv-x="422" 
d="M208 -10c-116 0 -166 91 -166 201c0 115 53 158 89 175c-42 23 -71 73 -71 149c0 94 46 174 155 174c104 0 148 -80 148 -170s-37 -133 -73 -151c53 -21 90 -78 90 -176c0 -115 -54 -202 -172 -202zM210 40c80 0 113 64 113 153c0 87 -27 147 -112 147
c-84 0 -112 -65 -112 -146c0 -80 32 -154 111 -154zM212 639c-72 0 -96 -58 -96 -123c0 -73 25 -126 97 -126c61 0 94 39 94 127c0 66 -25 122 -95 122z" />
    <glyph glyph-name="nine.cap" horiz-adv-x="424" 
d="M47 140h58c4 -35 24 -99 97 -99c107 0 114 164 117 304c-22 -45 -58 -72 -126 -72c-96 0 -154 79 -154 203c0 146 69 212 168 212c113 0 169 -76 169 -292c0 -245 -23 -405 -176 -405c-129 0 -150 104 -153 149zM207 637c-68 0 -110 -48 -110 -159
c0 -80 30 -153 106 -153c80 0 112 58 112 142c0 63 -15 170 -108 170z" />
    <glyph glyph-name="period" unicode="." horiz-adv-x="132" 
d="M94 -1h-56v132h56v-132z" />
    <glyph glyph-name="comma" unicode="," horiz-adv-x="133" 
d="M49 -117h-48c30 72 49 156 54 235h55c-6 -92 -33 -185 -61 -235z" />
    <glyph glyph-name="colon" unicode=":" horiz-adv-x="188" 
d="M121 -1h-55v132h55v-132zM121 358h-55v131h55v-131z" />
    <glyph glyph-name="semicolon" unicode=";" horiz-adv-x="200" 
d="M72 -116h-48c25 62 49 158 52 235h55c-4 -92 -32 -185 -59 -235zM132 358h-54v131h54v-131z" />
    <glyph glyph-name="ellipsis" unicode="&#x2026;" horiz-adv-x="548" 
d="M95 -1h-56v132h56v-132zM275 -1h-56v132h56v-132zM458 -1h-56v132h56v-132z" />
    <glyph glyph-name="exclam" unicode="!" horiz-adv-x="222" 
d="M154 214h-50l-6 346v120h61v-121zM157 0h-58v95h58v-95z" />
    <glyph glyph-name="exclamdown" unicode="&#xa1;" horiz-adv-x="182" 
d="M54 286h51l5 -347v-120h-62v121zM50 502h60v-99h-60v99z" />
    <glyph glyph-name="question" unicode="?" horiz-adv-x="363" 
d="M207 201h-55v13c0 48 10 94 66 167c44 60 56 99 56 146c0 61 -22 112 -89 112c-59 0 -89 -49 -92 -129h-54c2 73 28 178 149 178c103 0 144 -70 144 -160c0 -72 -24 -116 -77 -186c-37 -51 -48 -91 -48 -133v-8zM207 -1h-56v116h56v-116z" />
    <glyph glyph-name="questiondown" unicode="&#xbf;" horiz-adv-x="328" 
d="M23 -26c0 72 23 116 76 187c37 50 48 90 48 133v7h56v-13c0 -47 -11 -93 -67 -167c-44 -60 -56 -98 -56 -146c0 -60 22 -112 89 -112c59 0 89 50 92 129h54c-2 -73 -27 -178 -149 -178c-103 0 -143 70 -143 160zM147 503h56v-115h-56v115z" />
    <glyph glyph-name="quotesingle" unicode="'" horiz-adv-x="113" 
d="M79 486h-44l-7 143v84h56v-85z" />
    <glyph glyph-name="quotedbl" unicode="&#x22;" horiz-adv-x="216" 
d="M78 490h-43l-7 143v80h55v-80zM182 490h-43l-6 143v80h55v-80z" />
    <glyph glyph-name="quoteleft" unicode="&#x2018;" horiz-adv-x="128" 
d="M66 715h47c-17 -62 -35 -142 -35 -224h-55c1 84 26 184 43 224z" />
    <glyph glyph-name="quoteright" unicode="&#x2019;" horiz-adv-x="128" 
d="M62 491h-47c17 62 35 143 35 224h55c-1 -84 -26 -184 -43 -224z" />
    <glyph glyph-name="quotedblleft" unicode="&#x201c;" horiz-adv-x="237" 
d="M177 715h45c-16 -60 -34 -144 -34 -224h-53c1 89 23 181 42 224zM65 715h45c-16 -58 -34 -153 -34 -224h-53c1 77 25 182 42 224z" />
    <glyph glyph-name="quotedblright" unicode="&#x201d;" horiz-adv-x="237" 
d="M60 491h-45c17 60 35 144 35 224h52c0 -88 -23 -181 -42 -224zM172 491h-45c17 58 34 153 35 224h52c0 -77 -25 -182 -42 -224z" />
    <glyph glyph-name="quotesinglbase" unicode="&#x201a;" horiz-adv-x="128" 
d="M62 -109h-47c17 62 35 143 35 225h55c-1 -84 -26 -185 -43 -225z" />
    <glyph glyph-name="quotedblbase" unicode="&#x201e;" horiz-adv-x="237" 
d="M60 -109h-45c17 61 35 144 35 225h52c0 -89 -23 -181 -42 -225zM172 -109h-45c17 59 34 153 35 225h52c0 -77 -25 -183 -42 -225z" />
    <glyph glyph-name="guilsinglleft" unicode="&#x2039;" horiz-adv-x="256" 
d="M219 426l-125 -171l126 -172h-58l-126 172l126 171h57z" />
    <glyph glyph-name="guilsinglright" unicode="&#x203a;" horiz-adv-x="256" 
d="M37 83l124 171l-125 172h56l128 -172l-128 -171h-55z" />
    <glyph glyph-name="guillemotleft" unicode="&#xab;" horiz-adv-x="386" 
d="M210 426l-118 -171l119 -172h-55l-120 172l120 171h54zM349 426l-118 -171l119 -172h-55l-120 172l120 171h54z" />
    <glyph glyph-name="guillemotright" unicode="&#xbb;" horiz-adv-x="386" 
d="M177 83l117 171l-118 172h54l120 -172l-120 -171h-53zM37 83l118 171l-119 172h55l120 -172l-120 -171h-54z" />
    <glyph glyph-name="uni00A0" unicode="&#xa0;" horiz-adv-x="193" 
 />
    <glyph glyph-name="uni2007" unicode="&#x2007;" horiz-adv-x="421" 
 />
    <glyph glyph-name="hyphen" unicode="-" horiz-adv-x="271" 
d="M36 284h199v-52h-199v52z" />
    <glyph glyph-name="uni2010" unicode="&#x2010;" horiz-adv-x="271" 
d="M36 284h199v-52h-199v52z" />
    <glyph glyph-name="uni00AD" unicode="&#xad;" horiz-adv-x="271" 
d="M36 284h199v-52h-199v52z" />
    <glyph glyph-name="endash" unicode="&#x2013;" horiz-adv-x="397" 
d="M40 283h317v-51h-317v51z" />
    <glyph glyph-name="emdash" unicode="&#x2014;" horiz-adv-x="669" 
d="M40 283h588v-51h-588v51z" />
    <glyph glyph-name="figuredash" unicode="&#x2012;" horiz-adv-x="421" 
d="M70 351h280v-51h-280v51z" />
    <glyph glyph-name="uni2015" unicode="&#x2015;" horiz-adv-x="669" 
d="M40 283h588v-51h-588v51z" />
    <glyph glyph-name="periodcentered" unicode="&#xb7;" horiz-adv-x="132" 
d="M94 199h-56v132h56v-132z" />
    <glyph glyph-name="bullet" unicode="&#x2022;" horiz-adv-x="238" 
d="M54 320h130v-137h-130v137z" />
    <glyph glyph-name="underscore" unicode="_" horiz-adv-x="520" 
d="M0 -78h520v-51h-520v51z" />
    <glyph glyph-name="parenleft" unicode="(" horiz-adv-x="259" 
d="M174 716h57c-68 -101 -127 -229 -127 -421c0 -176 46 -307 127 -433h-57c-60 88 -125 233 -125 434c0 198 69 336 125 420z" />
    <glyph glyph-name="parenright" unicode=")" horiz-adv-x="259" 
d="M85 -138h-57c68 101 127 229 127 421c0 175 -46 307 -127 433h57c61 -88 126 -233 126 -434c0 -198 -69 -336 -126 -420z" />
    <glyph glyph-name="bracketleft" unicode="[" horiz-adv-x="269" 
d="M241 -138h-175v854h175v-49h-123v-756h123v-49z" />
    <glyph glyph-name="bracketright" unicode="]" horiz-adv-x="269" 
d="M28 716h175v-854h-175v49h123v756h-123v49z" />
    <glyph glyph-name="braceleft" unicode="{" horiz-adv-x="303" 
d="M24 263v50c87 0 99 35 99 104l-5 151c0 104 48 147 137 147h21v-47h-15c-64 0 -89 -27 -89 -100l5 -142c1 -78 -17 -125 -72 -137c59 -16 73 -55 72 -139l-5 -142c0 -79 33 -98 87 -99h17v-48h-23c-76 0 -135 32 -135 143l5 156c0 67 -10 103 -99 103z" />
    <glyph glyph-name="braceright" unicode="}" horiz-adv-x="303" 
d="M279 313v-50c-87 0 -99 -36 -99 -104l5 -151c0 -104 -48 -147 -137 -147h-20v47h14c64 0 89 27 89 99l-5 143c-1 77 17 125 72 137c-58 16 -73 55 -72 138l5 143c0 78 -33 98 -87 99h-16v48h22c76 0 135 -33 135 -144l-5 -156c0 -66 7 -102 99 -102z" />
    <glyph glyph-name="slash" unicode="/" horiz-adv-x="309" 
d="M84 -20h-50l190 705h50z" />
    <glyph glyph-name="bar" unicode="|" horiz-adv-x="189" 
d="M69 780h51v-1042h-51v1042z" />
    <glyph glyph-name="backslash" unicode="\" horiz-adv-x="309" 
d="M224 -20l-190 705h50l191 -705h-51z" />
    <glyph glyph-name="brokenbar" unicode="&#xa6;" horiz-adv-x="188" 
d="M69 178h49v-357h-49v357zM69 687h49v-355h-49v355z" />
    <glyph glyph-name="asterisk" unicode="*" horiz-adv-x="317" 
d="M131 680h53l-12 -123l98 74l29 -48l-112 -53l110 -56l-28 -46l-97 74l13 -125h-54l11 125l-96 -74l-27 46l110 54l-110 55l27 46l97 -72z" />
    <glyph glyph-name="dagger" unicode="&#x2020;" horiz-adv-x="365" 
d="M147 629h54l-3 -205l129 3v-53l-129 4l3 -464h-54l4 464l-130 -4v53l130 -3z" />
    <glyph glyph-name="daggerdbl" unicode="&#x2021;" horiz-adv-x="364" 
d="M151 165v234l-130 -5v54l130 -5l-5 185h56l-4 -185l128 5v-54l-128 5v-234l128 4v-54l-128 6l4 -218h-56l5 218l-130 -6v54z" />
    <glyph glyph-name="section" unicode="&#xa7;" horiz-adv-x="420" 
d="M351 544h-53c-3 45 -23 97 -93 97c-58 0 -85 -36 -85 -88c0 -43 16 -70 112 -125c104 -58 142 -104 142 -185c0 -74 -29 -113 -62 -141c22 -25 35 -57 35 -104c0 -106 -65 -155 -152 -155c-104 0 -151 63 -155 154h56c2 -53 33 -107 99 -107c68 0 96 40 96 101
c0 56 -11 82 -138 150c-94 50 -122 95 -122 166c0 65 33 108 76 139c-26 25 -43 55 -43 101c0 77 43 142 142 142c105 0 142 -67 145 -145zM85 313c0 -41 13 -78 91 -121c65 -36 85 -47 101 -59c31 31 42 65 42 103c0 48 -12 85 -96 135c-61 37 -71 42 -80 47
c-38 -25 -58 -61 -58 -105z" />
    <glyph glyph-name="paragraph" unicode="&#xb6;" horiz-adv-x="426" 
d="M349 -133h-49v299h-82c-129 0 -188 65 -188 232c0 169 66 230 194 230h77c0 16 4 42 6 53h44c-2 -19 -2 -54 -2 -73v-741zM280 217h20v360h-19c-53 0 -74 -23 -74 -179c0 -152 17 -181 73 -181z" />
    <glyph glyph-name="at" unicode="@" horiz-adv-x="646" 
d="M451 -79l14 -42c-41 -28 -98 -37 -149 -37c-212 0 -271 177 -271 378c0 202 86 398 293 398c183 0 265 -122 265 -323c0 -134 -35 -287 -145 -287c-45 0 -72 20 -75 71c-21 -47 -53 -71 -98 -71c-57 0 -92 40 -92 146c0 186 49 304 136 304c51 0 69 -27 75 -55l4 46h52
l-34 -310c-7 -59 3 -83 37 -83c56 0 90 95 90 237c0 170 -61 277 -217 277c-180 0 -237 -182 -237 -350c0 -155 33 -329 222 -329c52 0 91 10 130 30zM335 408c-82 0 -89 -188 -89 -251s14 -98 50 -98c49 0 73 40 90 182c14 120 4 167 -51 167z" />
    <glyph glyph-name="copyright" unicode="&#xa9;" horiz-adv-x="637" 
d="M391 271h46c-2 -47 -28 -122 -118 -122c-93 0 -125 75 -125 188c0 111 35 191 129 191c84 0 112 -67 113 -120h-46c-2 36 -19 80 -69 80c-58 0 -80 -56 -80 -149c0 -80 16 -149 79 -149c55 0 67 49 71 81zM319 670c166 0 278 -134 278 -331c0 -207 -112 -333 -278 -333
c-168 0 -279 124 -279 333c0 196 115 331 279 331zM319 628c-138 0 -233 -106 -233 -292c0 -171 89 -288 233 -288c147 0 231 113 231 291c0 173 -90 289 -231 289z" />
    <glyph glyph-name="uni2117" unicode="&#x2117;" horiz-adv-x="637" 
d="M222 158v362h112c68 0 116 -43 116 -110c0 -71 -46 -116 -121 -116h-64v-136h-43zM266 481v-148h60c52 0 78 27 78 74s-26 74 -75 74h-63zM319 670c166 0 278 -134 278 -331c0 -207 -112 -333 -278 -333c-168 0 -279 124 -279 333c0 196 115 331 279 331zM319 628
c-138 0 -233 -106 -233 -292c0 -171 89 -288 233 -288c147 0 231 113 231 291c0 173 -90 289 -231 289z" />
    <glyph glyph-name="registered" unicode="&#xae;" horiz-adv-x="251" 
d="M114 490h-25v135h48c29 0 52 -11 52 -40c0 -17 -10 -27 -22 -31c16 -8 19 -23 19 -39c0 -6 1 -21 2 -25h-25c-2 6 -2 23 -2 27c0 18 -7 28 -27 28h-20v-55zM114 604v-40h24c13 0 26 4 26 19c0 14 -8 21 -27 21h-23zM138 687c75 0 125 -59 125 -133
c0 -78 -51 -133 -125 -133s-127 54 -127 133c0 77 51 133 127 133zM137 663c-69 0 -100 -50 -100 -109c0 -63 42 -109 101 -109c66 0 99 45 99 108c0 61 -39 110 -100 110z" />
    <glyph glyph-name="trademark" unicode="&#x2122;" horiz-adv-x="402" 
d="M400 452h-35v80c0 62 2 101 4 123h-2c-17 -58 -42 -142 -62 -203h-32c-19 67 -42 145 -58 203h-1c2 -21 4 -63 4 -141v-62h-34v229h55c18 -60 40 -135 52 -178h1c12 44 36 119 55 178h53v-229zM-3 681h163v-32h-63v-197h-35v197h-65v32z" />
    <glyph glyph-name="uni2120" unicode="&#x2120;" horiz-adv-x="411" 
d="M406 452h-35v80c0 62 1 101 3 123h-1c-18 -58 -43 -142 -62 -203h-32c-20 69 -43 145 -58 203h-1c2 -21 3 -62 3 -138v-65h-34v229h56c18 -60 40 -135 52 -178h1c15 50 37 119 55 178h53v-229zM12 521h34c3 -33 19 -45 44 -45s37 12 37 33c0 20 -9 31 -42 44
c-55 21 -64 42 -64 72c0 33 23 60 68 60c44 0 67 -24 68 -68h-32c-2 20 -11 40 -38 40c-22 0 -33 -12 -33 -30c0 -14 5 -26 39 -39c47 -18 68 -37 68 -75s-25 -66 -73 -66c-42 0 -74 22 -76 74z" />
    <glyph glyph-name="degree" unicode="&#xb0;" horiz-adv-x="264" 
d="M136 669c68 0 110 -50 110 -113c0 -73 -53 -114 -111 -114c-66 0 -110 45 -110 111c0 68 48 116 111 116zM135 630c-45 0 -65 -33 -65 -76c0 -41 24 -73 65 -73c40 0 66 30 66 75c0 37 -20 74 -66 74z" />
    <glyph glyph-name="numbersign" unicode="#" horiz-adv-x="416" 
d="M196 0l37 211h-103l-37 -211h-45l37 211h-70v50h79l30 169h-74v48h83l32 183h45l-32 -183h103l32 183h45l-32 -183h69v-48h-78l-30 -169h73v-50h-82l-37 -211h-45zM242 261l30 169h-103l-30 -169h103z" />
    <glyph glyph-name="uni2116" unicode="&#x2116;" horiz-adv-x="761" 
d="M122 0h-54v661h75c17 -60 221 -564 222 -569h1c-5 96 -5 180 -5 291v278h54v-661h-70c-18 62 -225 581 -227 587h-1c5 -85 5 -182 5 -305v-282zM525 437c0 -89 17 -151 73 -151c57 0 72 59 72 151c0 83 -19 136 -74 136c-47 0 -71 -43 -71 -136zM491 184h211v-48h-211v48
zM597 617c88 0 125 -71 125 -180c0 -129 -42 -195 -126 -195c-81 0 -123 60 -123 195c0 120 48 180 124 180z" />
    <glyph glyph-name="zero.sups" unicode="&#x2070;" horiz-adv-x="290" 
d="M149 794c71 0 112 -54 112 -183c0 -135 -40 -191 -118 -191c-73 0 -114 60 -114 191c0 130 46 183 120 183zM148 753c-44 0 -72 -34 -72 -142c0 -116 28 -150 69 -150c49 0 69 45 69 150c0 101 -22 142 -66 142z" />
    <glyph glyph-name="one.sups" unicode="&#xb9;" horiz-adv-x="186" 
d="M129 426h-46v311c-16 -11 -52 -20 -65 -21v38c36 6 66 26 81 41h30v-369z" />
    <glyph glyph-name="two.sups" unicode="&#xb2;" horiz-adv-x="269" 
d="M243 426h-217v4c0 55 38 115 106 171c48 43 57 67 57 96c0 28 -11 59 -55 59c-38 0 -58 -22 -61 -74h-44c2 62 32 114 108 114c77 0 100 -55 100 -97c0 -52 -20 -77 -76 -127c-49 -44 -74 -74 -82 -105h172z" />
    <glyph glyph-name="three.sups" unicode="&#xb3;" horiz-adv-x="278" 
d="M107 603v39h21c44 0 67 22 67 58c0 27 -12 56 -57 56c-46 0 -57 -33 -62 -58h-42c3 34 24 97 107 97c67 0 100 -38 100 -92c0 -46 -30 -69 -51 -77c33 -9 65 -38 65 -91c0 -64 -40 -113 -116 -113c-98 0 -116 73 -117 108h44c4 -32 22 -69 73 -69c46 0 69 27 69 73
c0 52 -34 69 -84 69h-17z" />
    <glyph glyph-name="four.sups" unicode="&#x2074;" horiz-adv-x="273" 
d="M213 426h-44v99h-152v35l141 230h55v-227h47l-4 -38h-43v-99zM65 563h104v93c0 20 1 68 2 89c-17 -32 -74 -127 -106 -182z" />
    <glyph glyph-name="five.sups" unicode="&#x2075;" horiz-adv-x="288" 
d="M245 791l-8 -40h-141c-3 -35 -9 -88 -13 -112c14 16 38 31 73 31c65 0 102 -43 102 -119c0 -70 -39 -129 -117 -129c-74 0 -110 47 -113 103h45c4 -34 24 -64 68 -64c51 0 69 39 69 88c0 53 -16 81 -64 81c-36 0 -53 -17 -66 -43l-43 10c9 50 18 156 22 194h186z" />
    <glyph glyph-name="six.sups" unicode="&#x2076;" horiz-adv-x="283" 
d="M250 705h-43c-4 22 -14 52 -58 52c-64 0 -74 -83 -74 -138c15 27 43 45 85 45c67 0 99 -49 99 -118c0 -64 -37 -125 -112 -125c-84 0 -118 66 -118 177c0 107 28 197 121 197c66 0 96 -37 100 -90zM147 460c42 0 67 34 67 84c0 47 -17 82 -65 82c-44 0 -72 -33 -72 -71
c0 -37 13 -95 70 -95z" />
    <glyph glyph-name="seven.sups" unicode="&#x2077;" horiz-adv-x="254" 
d="M16 791h218v-33c-55 -77 -111 -204 -131 -332h-48c20 132 87 269 127 325h-166v40z" />
    <glyph glyph-name="eight.sups" unicode="&#x2078;" horiz-adv-x="281" 
d="M139 421c-75 0 -112 50 -112 108c0 53 31 82 57 93c-25 13 -44 39 -44 79c0 51 34 95 103 95c66 0 98 -42 98 -94c0 -41 -17 -66 -44 -78c31 -13 57 -43 57 -93c0 -65 -42 -110 -115 -110zM140 459c46 0 68 29 68 74c0 50 -29 70 -67 70c-41 0 -69 -25 -69 -71
c0 -38 23 -73 68 -73zM141 758c-40 0 -56 -27 -56 -57c0 -33 15 -61 57 -61c35 0 54 21 54 59c0 36 -17 59 -55 59z" />
    <glyph glyph-name="nine.sups" unicode="&#x2079;" horiz-adv-x="282" 
d="M28 514h46c6 -28 19 -54 61 -54c63 0 69 82 72 147c-14 -27 -42 -42 -81 -42c-63 0 -102 45 -102 112c0 60 36 119 112 119c78 0 116 -52 116 -173c0 -126 -32 -202 -119 -202c-75 0 -100 48 -105 93zM136 757c-41 0 -66 -27 -66 -79c0 -43 22 -74 65 -74
c39 0 67 27 67 70c0 30 -7 83 -66 83z" />
    <glyph glyph-name="parenleft.sups" unicode="&#x207d;" horiz-adv-x="175" 
d="M109 855h44c-39 -62 -71 -142 -71 -255c0 -112 33 -192 71 -252h-45c-31 43 -71 133 -71 252c0 120 37 202 72 255z" />
    <glyph glyph-name="parenright.sups" unicode="&#x207e;" horiz-adv-x="175" 
d="M67 348h-45c39 62 72 141 72 255c0 112 -33 191 -72 252h45c32 -44 71 -134 71 -252c0 -120 -37 -203 -71 -255z" />
    <glyph glyph-name="period.sups" horiz-adv-x="107" 
d="M77 426h-46v92h46v-92z" />
    <glyph glyph-name="comma.sups" horiz-adv-x="128" 
d="M66 350h-42c17 57 26 118 27 168h46c-1 -66 -17 -137 -31 -168z" />
    <glyph glyph-name="dollar.sups" horiz-adv-x="277" 
d="M162 374h-43v52c-63 6 -97 47 -101 108h44c5 -42 32 -71 77 -71c51 0 71 25 71 62c0 35 -19 55 -78 72c-72 21 -103 47 -103 100c0 45 29 87 89 94v48h43v-49c62 -8 84 -52 87 -98h-46c-2 27 -14 63 -65 63c-46 0 -63 -24 -63 -54c0 -32 20 -46 74 -62
c87 -25 108 -62 108 -111c0 -52 -31 -93 -94 -101v-53z" />
    <glyph glyph-name="cent.sups" horiz-adv-x="274" 
d="M207 550h44c-6 -46 -29 -83 -83 -91v-49h-43v48c-67 10 -95 69 -95 153c0 82 37 133 95 143v46h42v-45c60 -9 81 -53 84 -93h-44c-5 34 -23 56 -63 56c-44 0 -68 -41 -68 -106c0 -74 20 -116 69 -116c37 0 55 19 62 54z" />
    <glyph glyph-name="hyphen.sups" horiz-adv-x="190" 
d="M26 629h137v-43h-137v43z" />
    <glyph glyph-name="zero.subs" unicode="&#x2080;" horiz-adv-x="290" 
d="M149 239c71 0 112 -54 112 -183c0 -135 -40 -191 -118 -191c-73 0 -114 60 -114 191c0 130 46 183 120 183zM148 198c-44 0 -72 -34 -72 -142c0 -116 28 -150 69 -150c49 0 69 45 69 150c0 101 -22 142 -66 142z" />
    <glyph glyph-name="one.subs" unicode="&#x2081;" horiz-adv-x="186" 
d="M129 -129h-46v311c-16 -11 -52 -20 -65 -21v38c36 6 66 26 81 41h30v-369z" />
    <glyph glyph-name="two.subs" unicode="&#x2082;" horiz-adv-x="269" 
d="M243 -129h-217v4c0 55 38 115 106 171c48 43 57 67 57 96c0 28 -11 59 -55 59c-38 0 -58 -22 -61 -74h-44c2 62 32 114 108 114c77 0 100 -55 100 -97c0 -52 -20 -77 -76 -127c-49 -44 -74 -74 -82 -105h172z" />
    <glyph glyph-name="three.subs" unicode="&#x2083;" horiz-adv-x="278" 
d="M107 48v39h21c44 0 67 22 67 58c0 27 -12 56 -57 56c-46 0 -57 -33 -62 -58h-42c3 34 24 97 107 97c67 0 100 -38 100 -92c0 -46 -30 -69 -51 -77c33 -9 65 -38 65 -91c0 -64 -40 -113 -116 -113c-98 0 -116 73 -117 108h44c4 -32 22 -69 73 -69c46 0 69 27 69 73
c0 52 -34 69 -84 69h-17z" />
    <glyph glyph-name="four.subs" unicode="&#x2084;" horiz-adv-x="273" 
d="M213 -129h-44v99h-152v35l141 230h55v-227h47l-4 -38h-43v-99zM65 8h104v93c0 20 1 68 2 89c-17 -32 -74 -127 -106 -182z" />
    <glyph glyph-name="five.subs" unicode="&#x2085;" horiz-adv-x="288" 
d="M245 236l-8 -40h-141c-3 -35 -9 -88 -13 -112c14 16 38 31 73 31c65 0 102 -43 102 -119c0 -70 -39 -129 -117 -129c-74 0 -110 47 -113 103h45c4 -34 24 -64 68 -64c51 0 69 39 69 88c0 53 -16 81 -64 81c-36 0 -53 -17 -66 -43l-43 10c9 50 18 156 22 194h186z" />
    <glyph glyph-name="six.subs" unicode="&#x2086;" horiz-adv-x="283" 
d="M250 150h-43c-4 22 -14 52 -58 52c-64 0 -74 -83 -74 -138c15 27 43 45 85 45c67 0 99 -49 99 -118c0 -64 -37 -125 -112 -125c-84 0 -118 66 -118 177c0 107 28 197 121 197c66 0 96 -37 100 -90zM147 -95c42 0 67 34 67 84c0 47 -17 82 -65 82c-44 0 -72 -33 -72 -71
c0 -37 13 -95 70 -95z" />
    <glyph glyph-name="seven.subs" unicode="&#x2087;" horiz-adv-x="254" 
d="M16 236h218v-33c-55 -77 -111 -204 -131 -332h-48c20 132 87 269 127 325h-166v40z" />
    <glyph glyph-name="eight.subs" unicode="&#x2088;" horiz-adv-x="281" 
d="M139 -134c-75 0 -112 50 -112 108c0 53 31 82 57 93c-25 13 -44 39 -44 79c0 51 34 95 103 95c66 0 98 -42 98 -94c0 -41 -17 -66 -44 -78c31 -13 57 -43 57 -93c0 -65 -42 -110 -115 -110zM140 -96c46 0 68 29 68 74c0 50 -29 70 -67 70c-41 0 -69 -25 -69 -71
c0 -38 23 -73 68 -73zM141 203c-40 0 -56 -27 -56 -57c0 -33 15 -61 57 -61c35 0 54 21 54 59c0 36 -17 59 -55 59z" />
    <glyph glyph-name="nine.subs" unicode="&#x2089;" horiz-adv-x="282" 
d="M28 -41h46c6 -28 19 -54 61 -54c63 0 69 82 72 147c-14 -27 -42 -42 -81 -42c-63 0 -102 45 -102 112c0 60 36 119 112 119c78 0 116 -52 116 -173c0 -126 -32 -202 -119 -202c-75 0 -100 48 -105 93zM136 202c-41 0 -66 -27 -66 -79c0 -43 22 -74 65 -74
c39 0 67 27 67 70c0 30 -7 83 -66 83z" />
    <glyph glyph-name="parenleft.subs" unicode="&#x208d;" horiz-adv-x="175" 
d="M109 300h44c-39 -62 -71 -142 -71 -255c0 -112 33 -192 71 -252h-45c-31 43 -71 133 -71 252c0 120 37 202 72 255z" />
    <glyph glyph-name="parenright.subs" unicode="&#x208e;" horiz-adv-x="175" 
d="M67 -207h-45c39 62 72 141 72 255c0 112 -33 191 -72 252h45c32 -44 71 -134 71 -252c0 -120 -37 -203 -71 -255z" />
    <glyph glyph-name="period.subs" horiz-adv-x="107" 
d="M77 -129h-46v92h46v-92z" />
    <glyph glyph-name="comma.subs" horiz-adv-x="128" 
d="M66 -205h-42c17 57 26 118 27 168h46c-1 -66 -17 -137 -31 -168z" />
    <glyph glyph-name="dollar.subs" horiz-adv-x="277" 
d="M162 -181h-43v52c-63 6 -97 47 -101 108h44c5 -42 32 -71 77 -71c51 0 71 25 71 62c0 35 -19 55 -78 72c-72 21 -103 47 -103 100c0 45 29 87 89 94v48h43v-49c62 -8 84 -52 87 -98h-46c-2 27 -14 63 -65 63c-46 0 -63 -24 -63 -54c0 -32 20 -46 74 -62
c87 -25 108 -62 108 -111c0 -52 -31 -93 -94 -101v-53z" />
    <glyph glyph-name="cent.subs" horiz-adv-x="274" 
d="M207 -5h44c-6 -46 -29 -83 -83 -91v-49h-43v48c-67 10 -95 69 -95 153c0 82 37 133 95 143v46h42v-45c60 -9 81 -53 84 -93h-44c-5 34 -23 56 -63 56c-44 0 -68 -41 -68 -106c0 -74 20 -116 69 -116c37 0 55 19 62 54z" />
    <glyph glyph-name="hyphen.subs" horiz-adv-x="190" 
d="M26 74h137v-43h-137v43z" />
    <glyph glyph-name="zero.numr" horiz-adv-x="290" 
d="M149 664c71 0 112 -54 112 -183c0 -135 -40 -191 -118 -191c-73 0 -114 60 -114 191c0 130 46 183 120 183zM148 623c-44 0 -72 -34 -72 -142c0 -116 28 -150 69 -150c49 0 69 45 69 150c0 101 -22 142 -66 142z" />
    <glyph glyph-name="one.numr" horiz-adv-x="186" 
d="M129 296h-46v311c-16 -11 -52 -20 -65 -21v38c36 6 66 26 81 41h30v-369z" />
    <glyph glyph-name="two.numr" horiz-adv-x="269" 
d="M243 296h-217v4c0 55 38 115 106 171c48 43 57 67 57 96c0 28 -11 59 -55 59c-38 0 -58 -22 -61 -74h-44c2 62 32 114 108 114c77 0 100 -55 100 -97c0 -52 -20 -77 -76 -127c-49 -44 -74 -74 -82 -105h172z" />
    <glyph glyph-name="three.numr" horiz-adv-x="278" 
d="M107 473v39h21c44 0 67 22 67 58c0 27 -12 56 -57 56c-46 0 -57 -33 -62 -58h-42c3 34 24 97 107 97c67 0 100 -38 100 -92c0 -46 -30 -69 -51 -77c33 -9 65 -38 65 -91c0 -64 -40 -113 -116 -113c-98 0 -116 73 -117 108h44c4 -32 22 -69 73 -69c46 0 69 27 69 73
c0 52 -34 69 -84 69h-17z" />
    <glyph glyph-name="four.numr" horiz-adv-x="273" 
d="M213 296h-44v99h-152v35l141 230h55v-227h47l-4 -38h-43v-99zM65 433h104v93c0 20 1 68 2 89c-17 -32 -74 -127 -106 -182z" />
    <glyph glyph-name="five.numr" horiz-adv-x="288" 
d="M245 661l-8 -40h-141c-3 -35 -9 -88 -13 -112c14 16 38 31 73 31c65 0 102 -43 102 -119c0 -70 -39 -129 -117 -129c-74 0 -110 47 -113 103h45c4 -34 24 -64 68 -64c51 0 69 39 69 88c0 53 -16 81 -64 81c-36 0 -53 -17 -66 -43l-43 10c9 50 18 156 22 194h186z" />
    <glyph glyph-name="six.numr" horiz-adv-x="283" 
d="M250 575h-43c-4 22 -14 52 -58 52c-64 0 -74 -83 -74 -138c15 27 43 45 85 45c67 0 99 -49 99 -118c0 -64 -37 -125 -112 -125c-84 0 -118 66 -118 177c0 107 28 197 121 197c66 0 96 -37 100 -90zM147 330c42 0 67 34 67 84c0 47 -17 82 -65 82c-44 0 -72 -33 -72 -71
c0 -37 13 -95 70 -95z" />
    <glyph glyph-name="seven.numr" horiz-adv-x="254" 
d="M16 661h218v-33c-55 -77 -111 -204 -131 -332h-48c20 132 87 269 127 325h-166v40z" />
    <glyph glyph-name="eight.numr" horiz-adv-x="281" 
d="M139 291c-75 0 -112 50 -112 108c0 53 31 82 57 93c-25 13 -44 39 -44 79c0 51 34 95 103 95c66 0 98 -42 98 -94c0 -41 -17 -66 -44 -78c31 -13 57 -43 57 -93c0 -65 -42 -110 -115 -110zM140 329c46 0 68 29 68 74c0 50 -29 70 -67 70c-41 0 -69 -25 -69 -71
c0 -38 23 -73 68 -73zM141 628c-40 0 -56 -27 -56 -57c0 -33 15 -61 57 -61c35 0 54 21 54 59c0 36 -17 59 -55 59z" />
    <glyph glyph-name="nine.numr" horiz-adv-x="282" 
d="M28 384h46c6 -28 19 -54 61 -54c63 0 69 82 72 147c-14 -27 -42 -42 -81 -42c-63 0 -102 45 -102 112c0 60 36 119 112 119c78 0 116 -52 116 -173c0 -126 -32 -202 -119 -202c-75 0 -100 48 -105 93zM136 627c-41 0 -66 -27 -66 -79c0 -43 22 -74 65 -74
c39 0 67 27 67 70c0 30 -7 83 -66 83z" />
    <glyph glyph-name="parenleft.numr" horiz-adv-x="175" 
d="M109 725h44c-39 -62 -71 -142 -71 -255c0 -112 33 -192 71 -252h-45c-31 43 -71 133 -71 252c0 120 37 202 72 255z" />
    <glyph glyph-name="parenright.numr" horiz-adv-x="175" 
d="M67 218h-45c39 62 72 141 72 255c0 112 -33 191 -72 252h45c32 -44 71 -134 71 -252c0 -120 -37 -203 -71 -255z" />
    <glyph glyph-name="period.numr" horiz-adv-x="107" 
d="M77 296h-46v92h46v-92z" />
    <glyph glyph-name="comma.numr" horiz-adv-x="128" 
d="M66 220h-42c17 57 26 118 27 168h46c-1 -66 -17 -137 -31 -168z" />
    <glyph glyph-name="dollar.numr" horiz-adv-x="277" 
d="M162 244h-43v52c-63 6 -97 47 -101 108h44c5 -42 32 -71 77 -71c51 0 71 25 71 62c0 35 -19 55 -78 72c-72 21 -103 47 -103 100c0 45 29 87 89 94v48h43v-49c62 -8 84 -52 87 -98h-46c-2 27 -14 63 -65 63c-46 0 -63 -24 -63 -54c0 -32 20 -46 74 -62
c87 -25 108 -62 108 -111c0 -52 -31 -93 -94 -101v-53z" />
    <glyph glyph-name="cent.numr" horiz-adv-x="274" 
d="M207 420h44c-6 -46 -29 -83 -83 -91v-49h-43v48c-67 10 -95 69 -95 153c0 82 37 133 95 143v46h42v-45c60 -9 81 -53 84 -93h-44c-5 34 -23 56 -63 56c-44 0 -68 -41 -68 -106c0 -74 20 -116 69 -116c37 0 55 19 62 54z" />
    <glyph glyph-name="hyphen.numr" horiz-adv-x="190" 
d="M26 499h137v-43h-137v43z" />
    <glyph glyph-name="zero.dnom" horiz-adv-x="290" 
d="M149 370c71 0 112 -54 112 -183c0 -135 -40 -191 -118 -191c-73 0 -114 60 -114 191c0 130 46 183 120 183zM148 329c-44 0 -72 -34 -72 -142c0 -116 28 -150 69 -150c49 0 69 45 69 150c0 101 -22 142 -66 142z" />
    <glyph glyph-name="one.dnom" horiz-adv-x="186" 
d="M129 2h-46v311c-16 -11 -52 -20 -65 -21v38c36 6 66 26 81 41h30v-369z" />
    <glyph glyph-name="two.dnom" horiz-adv-x="269" 
d="M243 2h-217v4c0 55 38 115 106 171c48 43 57 67 57 96c0 28 -11 59 -55 59c-38 0 -58 -22 -61 -74h-44c2 62 32 114 108 114c77 0 100 -55 100 -97c0 -52 -20 -77 -76 -127c-49 -44 -74 -74 -82 -105h172z" />
    <glyph glyph-name="three.dnom" horiz-adv-x="278" 
d="M107 179v39h21c44 0 67 22 67 58c0 27 -12 56 -57 56c-46 0 -57 -33 -62 -58h-42c3 34 24 97 107 97c67 0 100 -38 100 -92c0 -46 -30 -69 -51 -77c33 -9 65 -38 65 -91c0 -64 -40 -113 -116 -113c-98 0 -116 73 -117 108h44c4 -32 22 -69 73 -69c46 0 69 27 69 73
c0 52 -34 69 -84 69h-17z" />
    <glyph glyph-name="four.dnom" horiz-adv-x="273" 
d="M213 2h-44v99h-152v35l141 230h55v-227h47l-4 -38h-43v-99zM65 139h104v93c0 20 1 68 2 89c-17 -32 -74 -127 -106 -182z" />
    <glyph glyph-name="five.dnom" horiz-adv-x="288" 
d="M245 367l-8 -40h-141c-3 -35 -9 -88 -13 -112c14 16 38 31 73 31c65 0 102 -43 102 -119c0 -70 -39 -129 -117 -129c-74 0 -110 47 -113 103h45c4 -34 24 -64 68 -64c51 0 69 39 69 88c0 53 -16 81 -64 81c-36 0 -53 -17 -66 -43l-43 10c9 50 18 156 22 194h186z" />
    <glyph glyph-name="six.dnom" horiz-adv-x="283" 
d="M250 281h-43c-4 22 -14 52 -58 52c-64 0 -74 -83 -74 -138c15 27 43 45 85 45c67 0 99 -49 99 -118c0 -64 -37 -125 -112 -125c-84 0 -118 66 -118 177c0 107 28 197 121 197c66 0 96 -37 100 -90zM147 36c42 0 67 34 67 84c0 47 -17 82 -65 82c-44 0 -72 -33 -72 -71
c0 -37 13 -95 70 -95z" />
    <glyph glyph-name="seven.dnom" horiz-adv-x="254" 
d="M16 367h218v-33c-55 -77 -111 -204 -131 -332h-48c20 132 87 269 127 325h-166v40z" />
    <glyph glyph-name="eight.dnom" horiz-adv-x="281" 
d="M139 -3c-75 0 -112 50 -112 108c0 53 31 82 57 93c-25 13 -44 39 -44 79c0 51 34 95 103 95c66 0 98 -42 98 -94c0 -41 -17 -66 -44 -78c31 -13 57 -43 57 -93c0 -65 -42 -110 -115 -110zM140 35c46 0 68 29 68 74c0 50 -29 70 -67 70c-41 0 -69 -25 -69 -71
c0 -38 23 -73 68 -73zM141 334c-40 0 -56 -27 -56 -57c0 -33 15 -61 57 -61c35 0 54 21 54 59c0 36 -17 59 -55 59z" />
    <glyph glyph-name="nine.dnom" horiz-adv-x="282" 
d="M28 90h46c6 -28 19 -54 61 -54c63 0 69 82 72 147c-14 -27 -42 -42 -81 -42c-63 0 -102 45 -102 112c0 60 36 119 112 119c78 0 116 -52 116 -173c0 -126 -32 -202 -119 -202c-75 0 -100 48 -105 93zM136 333c-41 0 -66 -27 -66 -79c0 -43 22 -74 65 -74
c39 0 67 27 67 70c0 30 -7 83 -66 83z" />
    <glyph glyph-name="parenleft.dnom" horiz-adv-x="175" 
d="M109 431h44c-39 -62 -71 -142 -71 -255c0 -112 33 -192 71 -252h-45c-31 43 -71 133 -71 252c0 120 37 202 72 255z" />
    <glyph glyph-name="parenright.dnom" horiz-adv-x="175" 
d="M67 -76h-45c39 62 72 141 72 255c0 112 -33 191 -72 252h45c32 -44 71 -134 71 -252c0 -120 -37 -203 -71 -255z" />
    <glyph glyph-name="period.dnom" horiz-adv-x="107" 
d="M77 2h-46v92h46v-92z" />
    <glyph glyph-name="comma.dnom" horiz-adv-x="128" 
d="M66 -74h-42c17 57 26 118 27 168h46c-1 -66 -17 -137 -31 -168z" />
    <glyph glyph-name="dollar.dnom" horiz-adv-x="277" 
d="M162 -50h-43v52c-63 6 -97 47 -101 108h44c5 -42 32 -71 77 -71c51 0 71 25 71 62c0 35 -19 55 -78 72c-72 21 -103 47 -103 100c0 45 29 87 89 94v48h43v-49c62 -8 84 -52 87 -98h-46c-2 27 -14 63 -65 63c-46 0 -63 -24 -63 -54c0 -32 20 -46 74 -62
c87 -25 108 -62 108 -111c0 -52 -31 -93 -94 -101v-53z" />
    <glyph glyph-name="cent.dnom" horiz-adv-x="274" 
d="M207 126h44c-6 -46 -29 -83 -83 -91v-49h-43v48c-67 10 -95 69 -95 153c0 82 37 133 95 143v46h42v-45c60 -9 81 -53 84 -93h-44c-5 34 -23 56 -63 56c-44 0 -68 -41 -68 -106c0 -74 20 -116 69 -116c37 0 55 19 62 54z" />
    <glyph glyph-name="hyphen.dnom" horiz-adv-x="190" 
d="M26 205h137v-43h-137v43z" />
    <glyph glyph-name="ordfeminine" unicode="&#xaa;" horiz-adv-x="268" 
d="M231 526v-163c0 -26 1 -54 2 -70h-41c-3 10 -4 29 -4 42c-19 -36 -47 -46 -82 -46c-62 0 -87 51 -87 94c0 83 72 103 138 103c9 0 18 0 30 -1v36c0 36 -7 67 -55 67c-41 0 -54 -23 -57 -58h-43c2 40 21 95 102 95c80 0 97 -46 97 -99zM187 421v29c-12 1 -20 1 -28 1
c-54 0 -94 -16 -94 -64c0 -32 16 -59 54 -59c41 0 68 30 68 93z" />
    <glyph glyph-name="ordmasculine" unicode="&#xba;" horiz-adv-x="274" 
d="M136 624c84 0 113 -71 113 -167c0 -113 -36 -169 -114 -169c-76 0 -111 64 -111 169c0 96 32 167 112 167zM137 585c-53 0 -67 -55 -67 -128c0 -80 19 -130 67 -130c50 0 68 48 68 131c0 73 -16 127 -68 127z" />
    <glyph glyph-name="a.sups" horiz-adv-x="268" 
d="M231 526v-163c0 -26 1 -54 2 -70h-41c-3 10 -4 29 -4 42c-19 -36 -47 -46 -82 -46c-62 0 -87 51 -87 94c0 83 72 103 138 103c9 0 18 0 30 -1v36c0 36 -7 67 -55 67c-41 0 -54 -23 -57 -58h-43c2 40 21 95 102 95c80 0 97 -46 97 -99zM187 421v29c-12 1 -20 1 -28 1
c-54 0 -94 -16 -94 -64c0 -32 16 -59 54 -59c41 0 68 30 68 93z" />
    <glyph glyph-name="b.sups" horiz-adv-x="290" 
d="M39 403v349h43v-178c14 30 41 50 84 50c62 0 99 -50 99 -162c0 -123 -41 -173 -108 -173c-42 0 -64 19 -76 45c0 -15 -1 -28 -2 -39h-41c1 26 1 65 1 108zM220 461c0 80 -16 123 -65 123c-51 0 -73 -44 -73 -122c0 -77 13 -133 68 -133c54 0 70 47 70 132z" />
    <glyph glyph-name="c.sups" horiz-adv-x="252" 
d="M194 395h44c-2 -32 -18 -107 -105 -107c-78 0 -109 64 -109 172c0 96 36 164 113 164c82 0 99 -66 101 -106h-44c-1 15 -6 67 -57 67c-48 0 -67 -47 -67 -124c0 -70 16 -135 65 -135c43 0 56 37 59 69z" />
    <glyph glyph-name="d.sups" horiz-adv-x="291" 
d="M206 751h45v-367c0 -27 0 -74 1 -89h-43c-2 9 -3 23 -4 43c-12 -29 -35 -50 -78 -50c-72 0 -102 62 -102 169c0 114 47 167 110 167c47 0 63 -20 71 -39v166zM70 458c0 -77 17 -128 65 -128c52 0 71 38 71 134c0 80 -10 118 -66 118c-49 0 -70 -44 -70 -124z" />
    <glyph glyph-name="e.sups" horiz-adv-x="269" 
d="M247 449h-178c1 -69 17 -123 68 -123c57 0 62 53 64 61h42c-1 -8 -10 -99 -107 -99c-87 0 -112 74 -112 169c0 101 39 167 115 167c87 0 108 -75 108 -142v-33zM70 484h133c0 47 -8 102 -64 102c-55 0 -67 -54 -69 -102z" />
    <glyph glyph-name="f.sups" horiz-adv-x="136" 
d="M89 295h-44v285h-40v38h40v42c0 49 17 97 76 97c14 0 22 -2 30 -5l-3 -39c-5 1 -12 3 -21 3c-29 0 -38 -19 -38 -58v-40h56v-38h-56v-285z" />
    <glyph glyph-name="g.sups" horiz-adv-x="292" 
d="M251 526v-209c0 -89 -25 -152 -117 -152c-76 0 -105 46 -107 97h45c4 -36 24 -59 65 -59c55 0 71 41 71 109v33c-14 -30 -40 -48 -81 -48c-63 0 -102 49 -102 163c0 111 43 163 110 163c36 0 62 -14 74 -45c0 12 2 34 3 40h40c-1 -18 -1 -49 -1 -92zM70 460
c0 -84 23 -123 66 -123c54 0 71 43 71 126c0 87 -20 120 -68 120c-44 0 -69 -35 -69 -123z" />
    <glyph glyph-name="h.sups" horiz-adv-x="291" 
d="M38 295v456h45v-174c12 24 37 47 83 47c44 0 86 -25 86 -107v-222h-45v212c0 43 -12 74 -55 74c-47 0 -69 -30 -69 -103v-183h-45z" />
    <glyph glyph-name="i.sups" horiz-adv-x="121" 
d="M82 295h-44v323h44v-323zM82 686h-44v65h44v-65z" />
    <glyph glyph-name="j.sups" horiz-adv-x="124" 
d="M-4 166l1 41c4 -1 7 -1 11 -1c27 0 33 17 33 69v343h44v-337c0 -65 -7 -116 -72 -116c-7 0 -11 0 -17 1zM85 686h-44v65h44v-65z" />
    <glyph glyph-name="k.sups" horiz-adv-x="256" 
d="M83 751v-292c22 30 84 114 116 159h50c-33 -43 -61 -81 -93 -123c37 -71 72 -139 104 -200h-50c-27 52 -56 110 -85 167c-9 -11 -32 -39 -42 -50v-117h-44v456h44z" />
    <glyph glyph-name="l.sups" horiz-adv-x="122" 
d="M83 295h-44v456h44v-456z" />
    <glyph glyph-name="m.sups" horiz-adv-x="442" 
d="M403 295h-44v213c0 40 -9 75 -52 75s-64 -31 -64 -92v-196h-45v216c0 42 -9 72 -51 72c-44 0 -65 -38 -65 -94v-194h-44v217c0 63 0 90 -1 106h42c1 -10 2 -26 2 -48c11 25 34 54 80 54c36 0 61 -15 73 -50c13 24 39 50 85 50s84 -24 84 -108v-221z" />
    <glyph glyph-name="n.sups" unicode="&#x207f;" horiz-adv-x="290" 
d="M38 295v217c0 62 0 86 -1 106h42c1 -7 2 -25 2 -48c12 30 38 54 84 54c43 0 87 -21 87 -108v-221h-45v210c0 47 -12 78 -57 78c-46 0 -68 -38 -68 -103v-185h-44z" />
    <glyph glyph-name="o.sups" horiz-adv-x="274" 
d="M136 624c84 0 113 -71 113 -167c0 -113 -36 -169 -114 -169c-76 0 -111 64 -111 169c0 96 32 167 112 167zM137 585c-53 0 -67 -55 -67 -128c0 -80 19 -130 67 -130c50 0 68 48 68 131c0 73 -16 127 -68 127z" />
    <glyph glyph-name="p.sups" horiz-adv-x="290" 
d="M82 174h-43v350c0 38 0 70 -1 94h41c1 -6 2 -33 2 -49c13 31 39 55 86 55c64 0 98 -56 98 -158c0 -124 -40 -177 -109 -177c-40 0 -63 18 -74 45v-160zM220 466c0 81 -21 118 -66 118c-52 0 -72 -45 -72 -126c0 -80 16 -129 70 -129c52 0 68 49 68 137z" />
    <glyph glyph-name="q.sups" horiz-adv-x="289" 
d="M207 173v165c-15 -34 -40 -50 -80 -50c-68 0 -102 62 -102 167c0 116 47 169 110 169c46 0 64 -21 73 -44c0 13 2 31 2 37h43c-2 -27 -2 -67 -2 -110v-334h-44zM70 455c0 -82 21 -127 67 -127c53 0 70 53 70 130c0 91 -15 126 -67 126c-46 0 -70 -41 -70 -129z" />
    <glyph glyph-name="r.sups" horiz-adv-x="182" 
d="M38 295v213c0 51 -1 87 -2 110h42c1 -8 3 -30 3 -61c16 44 56 67 93 67v-50c-59 -3 -92 -37 -92 -101v-178h-44z" />
    <glyph glyph-name="s.sups" horiz-adv-x="243" 
d="M21 384h42c4 -32 21 -59 59 -59c40 0 56 21 56 51c0 33 -17 51 -62 67c-71 25 -88 53 -88 95c0 49 34 86 95 86c69 0 90 -49 92 -88h-42c-2 16 -9 52 -52 52c-35 0 -49 -21 -49 -46c0 -26 12 -42 58 -59c71 -26 92 -52 92 -102c0 -56 -34 -93 -101 -93
c-63 0 -97 39 -100 96z" />
    <glyph glyph-name="t.sups" horiz-adv-x="154" 
d="M1 618h42v89h44v-89h59v-38h-59v-214c0 -28 8 -38 34 -38c7 0 19 1 25 3v-38c-10 -3 -24 -5 -37 -5c-46 0 -66 19 -66 73v219h-42v38z" />
    <glyph glyph-name="u.sups" horiz-adv-x="287" 
d="M250 618v-222c0 -56 1 -86 2 -101h-41c-1 7 -4 23 -4 44c-11 -27 -37 -50 -81 -50c-49 0 -88 24 -88 106v223h44v-214c0 -43 12 -74 54 -74c48 0 69 35 69 108v180h45z" />
    <glyph glyph-name="v.sups" horiz-adv-x="256" 
d="M8 618h47c30 -110 61 -226 72 -277h1c6 31 46 171 77 277h43l-95 -323h-53z" />
    <glyph glyph-name="w.sups" horiz-adv-x="404" 
d="M10 618h47c37 -163 52 -237 58 -271h1c6 35 22 97 65 271h45c46 -193 58 -238 62 -271h1c6 33 20 96 61 271h44l-81 -323h-49c-28 118 -54 219 -61 268h-1c-8 -49 -34 -143 -65 -268h-49z" />
    <glyph glyph-name="x.sups" horiz-adv-x="228" 
d="M-1 618h50c37 -67 56 -104 65 -123h1c11 19 33 59 67 123h47l-89 -154l91 -169h-50c-37 71 -58 113 -68 133h-1c-9 -19 -30 -62 -68 -133h-47l91 164z" />
    <glyph glyph-name="y.sups" horiz-adv-x="255" 
d="M6 617h49c41 -137 68 -238 75 -273h1c8 40 35 144 72 273h46c-26 -81 -62 -210 -100 -339c-30 -96 -53 -108 -102 -108c-12 0 -20 1 -28 2v40c7 -1 15 -2 26 -2c34 0 45 19 62 76z" />
    <glyph glyph-name="z.sups" horiz-adv-x="229" 
d="M11 295v29c15 24 110 186 152 254h-145v39h197v-30c-9 -17 -115 -196 -149 -253h154l-8 -39h-201z" />
    <glyph glyph-name="egrave.sups" horiz-adv-x="269" 
d="M45 746h56l67 -88h-47zM247 449h-178c1 -69 17 -123 68 -123c57 0 62 53 64 61h42c-1 -8 -10 -99 -107 -99c-87 0 -112 74 -112 169c0 101 39 167 115 167c87 0 108 -75 108 -142v-33zM70 484h133c0 47 -8 102 -64 102c-55 0 -67 -54 -69 -102z" />
    <glyph glyph-name="eacute.sups" horiz-adv-x="269" 
d="M180 746h55l-75 -88h-48zM247 449h-178c1 -69 17 -123 68 -123c57 0 62 53 64 61h42c-1 -8 -10 -99 -107 -99c-87 0 -112 74 -112 169c0 101 39 167 115 167c87 0 108 -75 108 -142v-33zM70 484h133c0 47 -8 102 -64 102c-55 0 -67 -54 -69 -102z" />
    <glyph glyph-name="currency" unicode="&#xa4;" 
d="M199 524c36 0 67 -11 91 -33l53 60l35 -36l-58 -62c16 -29 25 -67 25 -112c0 -49 -8 -88 -23 -118l56 -62l-35 -37l-52 57c-25 -24 -57 -35 -94 -35c-35 0 -66 12 -91 35l-52 -57l-35 37l56 63c-14 30 -23 69 -23 117c0 44 9 82 25 111l-58 63l35 36l54 -60
c25 22 56 33 91 33zM197 477c-63 0 -95 -47 -95 -137c0 -103 42 -147 96 -147c61 0 96 40 96 149c0 82 -30 135 -97 135z" />
    <glyph glyph-name="dollar" unicode="$" horiz-adv-x="407" 
d="M93 509c0 -55 27 -88 87 -121v229c-59 -6 -87 -45 -87 -108zM314 165c0 60 -27 100 -93 138v-260c61 7 93 43 93 122zM221 -79h-41v75c-107 9 -149 77 -156 166h56c5 -59 35 -111 100 -119v281c-89 45 -141 91 -141 182c0 90 51 152 141 158v59h41v-59
c101 -10 134 -84 136 -153h-54c-2 41 -19 94 -82 105v-248c102 -51 149 -107 149 -199c0 -95 -47 -166 -149 -173v-75z" />
    <glyph glyph-name="sterling" unicode="&#xa3;" horiz-adv-x="404" 
d="M375 0h-349v45c52 43 67 100 67 209c0 23 -1 46 -1 69h-83v47h81c-2 39 -4 76 -4 110c0 120 45 189 143 189c103 0 137 -69 138 -152h-53c-2 51 -17 102 -86 102c-67 0 -87 -51 -87 -135c0 -34 2 -72 5 -114h116v-47h-114c1 -20 1 -40 1 -61c-1 -90 -11 -159 -50 -211
h285z" />
    <glyph glyph-name="yen" unicode="&#xa5;" horiz-adv-x="366" 
d="M313 195h-108v-195h-55v195h-106v44h106v61h-106v45h99l-148 316h62c97 -220 113 -258 122 -283h1c8 24 29 72 121 283h60l-149 -316h101v-45h-108v-61h108v-44z" />
    <glyph glyph-name="Euro" unicode="&#x20ac;" horiz-adv-x="428" 
d="M343 155h54c-3 -37 -25 -163 -154 -163c-115 0 -156 97 -164 273h-62v41h60v35v26h-60v42h62c11 166 65 260 171 260c125 0 144 -109 144 -153h-54c-1 25 -12 103 -91 103c-70 0 -105 -68 -112 -210h157v-42h-159v-25v-36h159v-41h-158c7 -145 34 -223 110 -223
c86 0 96 97 97 113z" />
    <glyph glyph-name="cent" unicode="&#xa2;" horiz-adv-x="410" 
d="M305 226h54c-1 -38 -20 -131 -126 -142v-90h-43v90c-93 11 -137 93 -137 247c0 152 48 232 137 243v70h43v-69c101 -9 126 -89 127 -147h-56c-3 31 -13 88 -71 98v-392c64 10 70 73 72 92zM110 332c0 -108 21 -183 80 -197v391c-61 -14 -80 -86 -80 -194z" />
    <glyph glyph-name="florin" unicode="&#x192;" horiz-adv-x="382" 
d="M370 679l-12 -49c-13 9 -36 12 -50 12c-48 0 -63 -52 -74 -128l-14 -97h97v-47h-104l-42 -288c-16 -110 -40 -185 -127 -185c-26 0 -52 6 -69 18l13 50c17 -9 36 -15 54 -15c44 0 59 47 71 130l43 290h-81v47h89l13 90c13 95 39 187 130 187c29 0 54 -6 63 -15z" />
    <glyph glyph-name="colonmonetary" unicode="&#x20a1;" horiz-adv-x="417" 
d="M218 50c6 0 12 0 18 1v559c-5 1 -10 1 -15 1c-8 0 -16 -1 -23 -3v-556c6 -1 13 -2 20 -2zM105 341c0 -138 15 -230 56 -269v516c-39 -38 -56 -121 -56 -247zM198 -72h-37v80c-91 35 -114 163 -114 333c0 157 32 271 114 308v77h37v-67c8 1 16 2 25 2h13v65h38v-71
c79 -22 100 -95 103 -154h-56c-2 26 -9 73 -47 97v-534c37 23 46 70 48 101h55c-4 -59 -25 -134 -103 -158v-79h-38v72c-6 -1 -13 -1 -20 -1c-6 0 -12 0 -18 1v-72z" />
    <glyph glyph-name="lira" unicode="&#x20a4;" horiz-adv-x="404" 
d="M375 0h-349v45c50 36 66 102 66 213h-80v40h80c-1 22 -2 43 -3 63h-77v42h75c-2 26 -3 52 -3 77c0 120 46 189 144 189c103 0 137 -69 137 -152h-52c-3 51 -18 102 -87 102c-66 0 -87 -51 -87 -135c0 -26 2 -53 3 -81h127v-42h-124c1 -20 2 -41 2 -63h122v-40h-122
c-2 -89 -10 -159 -48 -207h285z" />
    <glyph glyph-name="franc" unicode="&#x20a3;" horiz-adv-x="381" 
d="M84 0v162h-73v43h73v456h276v-51h-220v-228h204v-51h-204v-126h111v-43h-111v-162h-56z" />
    <glyph glyph-name="uni20A6" unicode="&#x20a6;" horiz-adv-x="415" 
d="M101 597c3 -60 4 -115 4 -181h51l-54 181h-1zM302 86h5c-4 66 -6 122 -7 186h-53zM105 0h-48v272h-43v40h43v63h-43v41h43v245h74l73 -245h96v245h48v-245h44v-41h-44v-63h44v-40h-44v-272h-68l-81 272h-94v-272zM300 312v63h-84l19 -63h65zM187 312l-19 63h-63v-63h82z
" />
    <glyph glyph-name="peseta" unicode="&#x20a7;" horiz-adv-x="419" 
d="M58 0v446h-49v44h49v171h134c111 0 165 -67 170 -171h42v-44h-43c-8 -108 -67 -173 -187 -173h-59v-273h-57zM115 613v-123h190c-5 80 -43 123 -118 123h-72zM115 322h59c84 0 123 42 130 124h-189v-124z" />
    <glyph glyph-name="dong" unicode="&#x20ab;" horiz-adv-x="413" 
d="M47 -70h303v-44h-303v44zM289 684h56v-76h55v-44h-55v-440c0 -44 0 -92 3 -124h-50c-2 12 -4 34 -5 75c-16 -48 -52 -84 -119 -84c-93 0 -145 70 -145 261c0 154 62 241 157 241c65 0 90 -29 103 -56v127h-174v44h174v76zM86 252c0 -159 36 -208 99 -208
c72 0 106 55 106 213c0 141 -31 184 -97 184c-71 0 -108 -61 -108 -189z" />
    <glyph glyph-name="dong.alt" horiz-adv-x="413" 
d="M289 684h56v-76h55v-44h-55v-440c0 -44 0 -92 3 -124h-50c-2 12 -4 34 -5 75c-16 -48 -52 -84 -119 -84c-93 0 -145 70 -145 261c0 154 62 241 157 241c65 0 90 -29 103 -56v127h-174v44h174v76zM86 252c0 -159 36 -208 99 -208c72 0 106 55 106 213
c0 141 -31 184 -97 184c-71 0 -108 -61 -108 -189z" />
    <glyph glyph-name="uni20B1" unicode="&#x20b1;" horiz-adv-x="425" 
d="M62 0v397h-57v42h57v55h-57v40h57v127h131c95 0 148 -48 165 -127h47v-40h-42c1 -7 1 -15 1 -23c0 -11 0 -22 -1 -32h42v-42h-49c-20 -81 -78 -129 -179 -129h-58v-268h-57zM118 613v-79h182c-15 52 -51 79 -111 79h-71zM308 470c0 8 0 17 -1 24h-189v-55h189
c1 10 1 20 1 31zM118 316h59c67 0 106 27 122 81h-181v-81z" />
    <glyph glyph-name="uni20B2" unicode="&#x20b2;" horiz-adv-x="424" 
d="M373 509h-55c-2 24 -8 94 -83 104v-564c35 0 59 6 78 16v269h56v-305c-29 -13 -76 -30 -134 -30v-83h-43v86c-112 19 -153 131 -153 347c0 180 47 298 153 313v68h43v-67c110 -8 136 -90 138 -154zM97 351c0 -179 28 -272 95 -296v556c-70 -18 -95 -118 -95 -260z" />
    <glyph glyph-name="uni20B4" unicode="&#x20b4;" horiz-adv-x="398" 
d="M106 515h-53c5 74 42 154 149 154c104 0 143 -70 143 -150c0 -47 -12 -81 -38 -114h55v-41h-94c-17 -15 -36 -30 -59 -47c-4 -3 -9 -7 -13 -10h153v-41h-200c-40 -41 -50 -72 -50 -114c0 -67 38 -112 97 -112c85 0 108 57 111 120h53c-2 -86 -43 -169 -165 -169
c-91 0 -152 56 -152 162c0 40 9 74 39 113h-53v41h91c17 16 38 33 63 51c3 2 5 4 8 6h-149v41h198c38 37 50 69 49 113c-1 47 -19 104 -90 104c-70 0 -86 -54 -93 -107z" />
    <glyph glyph-name="uni20B5" unicode="&#x20b5;" horiz-adv-x="412" 
d="M105 341c0 -173 27 -274 97 -289v556c-68 -16 -97 -107 -97 -267zM243 -86h-41v86c-122 12 -155 140 -155 341c0 185 45 304 155 318v67h41v-66c108 -8 140 -93 142 -167h-55c-4 36 -18 106 -87 117v-558c68 10 83 70 88 121h54c-5 -77 -34 -163 -142 -173v-86z" />
    <glyph glyph-name="uni20B9" unicode="&#x20b9;" horiz-adv-x="396" 
d="M39 293v49h57c92 0 149 39 149 141c0 6 0 11 -1 16h-205v43h197c-17 48 -60 73 -128 73h-69v47h336v-43h-128c22 -19 40 -44 49 -77h79v-43h-72v-15c0 -102 -52 -161 -132 -182l175 -302h-66l-171 293h-13h-57z" />
    <glyph glyph-name="uni20BA" unicode="&#x20ba;" horiz-adv-x="421" 
d="M159 0h-54v287l-87 -36v48l87 36v70l-87 -36v47l87 36v209h56v-186l116 48v-47l-116 -48v-70l116 47v-48l-116 -47v-257c117 0 168 65 180 198h53c-7 -135 -68 -251 -235 -251z" />
    <glyph glyph-name="uni20BD" unicode="&#x20bd;" horiz-adv-x="421" 
d="M82 0v202h-76v46h76v77h-76v47h76v289h131c135 0 186 -74 186 -167c0 -92 -54 -169 -185 -169h-76v-77h134v-46h-134v-202h-56zM138 613v-241h77c99 0 128 59 128 121c0 68 -35 120 -129 120h-76z" />
    <glyph glyph-name="currency.tab" horiz-adv-x="421" 
d="M214 524c36 0 67 -11 91 -33l53 60l35 -36l-58 -62c16 -29 25 -67 25 -112c0 -49 -8 -88 -23 -118l56 -62l-35 -37l-52 57c-25 -24 -57 -35 -94 -35c-35 0 -66 12 -91 35l-52 -57l-35 37l56 63c-14 30 -23 69 -23 117c0 44 9 82 25 111l-58 63l35 36l54 -60
c25 22 56 33 91 33zM212 477c-63 0 -95 -47 -95 -137c0 -103 42 -147 96 -147c61 0 96 40 96 149c0 82 -30 135 -97 135z" />
    <glyph glyph-name="dollar.tab" horiz-adv-x="421" 
d="M110 509c0 -55 27 -88 87 -121v229c-59 -6 -87 -45 -87 -108zM331 165c0 60 -27 100 -93 138v-260c61 7 93 43 93 122zM238 -79h-41v75c-107 9 -149 77 -156 166h56c5 -59 35 -111 100 -119v281c-89 45 -141 91 -141 182c0 90 51 152 141 158v59h41v-59
c101 -10 134 -84 136 -153h-54c-2 41 -19 94 -82 105v-248c102 -51 149 -107 149 -199c0 -95 -47 -166 -149 -173v-75z" />
    <glyph glyph-name="sterling.tab" horiz-adv-x="421" 
d="M385 0h-349v45c52 43 67 100 67 209c0 23 -1 46 -1 69h-83v47h81c-2 39 -4 76 -4 110c0 120 45 189 143 189c103 0 137 -69 138 -152h-53c-2 51 -17 102 -86 102c-67 0 -87 -51 -87 -135c0 -34 2 -72 5 -114h116v-47h-114c1 -20 1 -40 1 -61c-1 -90 -11 -159 -50 -211
h285z" />
    <glyph glyph-name="yen.tab" horiz-adv-x="421" 
d="M341 195h-108v-195h-55v195h-106v44h106v61h-106v45h99l-148 316h62c97 -220 113 -258 122 -283h1c8 24 29 72 121 283h60l-149 -316h101v-45h-108v-61h108v-44z" />
    <glyph glyph-name="Euro.tab" horiz-adv-x="421" 
d="M345 155h54c-3 -37 -25 -163 -154 -163c-115 0 -156 97 -164 273h-62v41h60v35v26h-60v42h62c11 166 65 260 171 260c125 0 144 -109 144 -153h-54c-1 25 -12 103 -91 103c-70 0 -105 -68 -112 -210h157v-42h-159v-25v-36h159v-41h-158c7 -145 34 -223 110 -223
c86 0 96 97 97 113z" />
    <glyph glyph-name="cent.tab" horiz-adv-x="421" 
d="M312 226h54c-1 -38 -20 -131 -126 -142v-90h-43v90c-93 11 -137 93 -137 247c0 152 48 232 137 243v70h43v-69c101 -9 126 -89 127 -147h-56c-3 31 -13 88 -71 98v-392c64 10 70 73 72 92zM117 332c0 -108 21 -183 80 -197v391c-61 -14 -80 -86 -80 -194z" />
    <glyph glyph-name="florin.tab" horiz-adv-x="421" 
d="M397 679l-12 -49c-13 9 -36 12 -50 12c-48 0 -63 -52 -74 -128l-14 -97h97v-47h-104l-42 -288c-16 -110 -40 -185 -127 -185c-26 0 -52 6 -69 18l13 50c17 -9 36 -15 54 -15c44 0 59 47 71 130l43 290h-81v47h89l13 90c13 95 39 187 130 187c29 0 54 -6 63 -15z" />
    <glyph glyph-name="colonmonetary.tab" horiz-adv-x="421" 
d="M223 50c6 0 12 0 18 1v559c-5 1 -10 1 -15 1c-8 0 -16 -1 -23 -3v-556c6 -1 13 -2 20 -2zM110 341c0 -138 15 -230 56 -269v516c-39 -38 -56 -121 -56 -247zM203 -72h-37v80c-91 35 -114 163 -114 333c0 157 32 271 114 308v77h37v-67c8 1 16 2 25 2h13v65h38v-71
c79 -22 100 -95 103 -154h-56c-2 26 -9 73 -47 97v-534c37 23 46 70 48 101h55c-4 -59 -25 -134 -103 -158v-79h-38v72c-6 -1 -13 -1 -20 -1c-6 0 -12 0 -18 1v-72z" />
    <glyph glyph-name="lira.tab" horiz-adv-x="421" 
d="M387 0h-349v45c50 36 66 102 66 213h-80v40h80c-1 22 -2 43 -3 63h-77v42h75c-2 26 -3 52 -3 77c0 120 46 189 144 189c103 0 137 -69 137 -152h-52c-3 51 -18 102 -87 102c-66 0 -87 -51 -87 -135c0 -26 2 -53 3 -81h127v-42h-124c1 -20 2 -41 2 -63h122v-40h-122
c-2 -89 -10 -159 -48 -207h285z" />
    <glyph glyph-name="franc.tab" horiz-adv-x="421" 
d="M103 0v162h-73v43h73v456h276v-51h-220v-228h204v-51h-204v-126h111v-43h-111v-162h-56z" />
    <glyph glyph-name="uni20A6.tab" horiz-adv-x="421" 
d="M104 597c3 -60 4 -115 4 -181h51l-54 181h-1zM305 86h5c-4 66 -6 122 -7 186h-53zM108 0h-48v272h-43v40h43v63h-43v41h43v245h74l73 -245h96v245h48v-245h44v-41h-44v-63h44v-40h-44v-272h-68l-81 272h-94v-272zM303 312v63h-84l19 -63h65zM190 312l-19 63h-63v-63h82z
" />
    <glyph glyph-name="peseta.tab" horiz-adv-x="421" 
d="M55 0v446h-49v44h49v171h134c111 0 165 -67 170 -171h42v-44h-43c-8 -108 -67 -173 -187 -173h-59v-273h-57zM112 613v-123h190c-5 80 -43 123 -118 123h-72zM112 322h59c84 0 123 42 130 124h-189v-124z" />
    <glyph glyph-name="dong.tab" horiz-adv-x="421" 
d="M56 -70h303v-44h-303v44zM298 684h56v-76h55v-44h-55v-440c0 -44 0 -92 3 -124h-50c-2 12 -4 34 -5 75c-16 -48 -52 -84 -119 -84c-93 0 -145 70 -145 261c0 154 62 241 157 241c65 0 90 -29 103 -56v127h-174v44h174v76zM95 252c0 -159 36 -208 99 -208
c72 0 106 55 106 213c0 141 -31 184 -97 184c-71 0 -108 -61 -108 -189z" />
    <glyph glyph-name="dong.alttab" horiz-adv-x="421" 
d="M290 684h56v-76h55v-44h-55v-440c0 -44 0 -92 3 -124h-50c-2 12 -4 34 -5 75c-16 -48 -52 -84 -119 -84c-93 0 -145 70 -145 261c0 154 62 241 157 241c65 0 90 -29 103 -56v127h-174v44h174v76zM87 252c0 -159 36 -208 99 -208c72 0 106 55 106 213
c0 141 -31 184 -97 184c-71 0 -108 -61 -108 -189z" />
    <glyph glyph-name="uni20B1.tab" horiz-adv-x="421" 
d="M61 0v397h-57v42h57v55h-57v40h57v127h131c95 0 148 -48 165 -127h47v-40h-42c1 -7 1 -15 1 -23c0 -11 0 -22 -1 -32h42v-42h-49c-20 -81 -78 -129 -179 -129h-58v-268h-57zM117 613v-79h182c-15 52 -51 79 -111 79h-71zM307 470c0 8 0 17 -1 24h-189v-55h189
c1 10 1 20 1 31zM117 316h59c67 0 106 27 122 81h-181v-81z" />
    <glyph glyph-name="uni20B2.tab" horiz-adv-x="421" 
d="M372 509h-55c-2 24 -8 94 -83 104v-564c35 0 59 6 78 16v269h56v-305c-29 -13 -76 -30 -134 -30v-83h-43v86c-112 19 -153 131 -153 347c0 180 47 298 153 313v68h43v-67c110 -8 136 -90 138 -154zM96 351c0 -179 28 -272 95 -296v556c-70 -18 -95 -118 -95 -260z" />
    <glyph glyph-name="uni20B4.tab" horiz-adv-x="421" 
d="M116 515h-53c5 74 42 154 149 154c104 0 143 -70 143 -150c0 -47 -12 -81 -38 -114h55v-41h-94c-17 -15 -36 -30 -59 -47c-4 -3 -9 -7 -13 -10h153v-41h-200c-40 -41 -50 -72 -50 -114c0 -67 38 -112 97 -112c85 0 108 57 111 120h53c-2 -86 -43 -169 -165 -169
c-91 0 -152 56 -152 162c0 40 9 74 39 113h-53v41h91c17 16 38 33 63 51c3 2 5 4 8 6h-149v41h198c38 37 50 69 49 113c-1 47 -19 104 -90 104c-70 0 -86 -54 -93 -107z" />
    <glyph glyph-name="uni20B5.tab" horiz-adv-x="421" 
d="M107 341c0 -173 27 -274 97 -289v556c-68 -16 -97 -107 -97 -267zM245 -86h-41v86c-122 12 -155 140 -155 341c0 185 45 304 155 318v67h41v-66c108 -8 140 -93 142 -167h-55c-4 36 -18 106 -87 117v-558c68 10 83 70 88 121h54c-5 -77 -34 -163 -142 -173v-86z" />
    <glyph glyph-name="uni20B9.tab" horiz-adv-x="421" 
d="M50 293v49h57c92 0 149 39 149 141c0 6 0 11 -1 16h-205v43h197c-17 48 -60 73 -128 73h-69v47h336v-43h-128c22 -19 40 -44 49 -77h79v-43h-72v-15c0 -102 -52 -161 -132 -182l175 -302h-66l-171 293h-13h-57z" />
    <glyph glyph-name="uni20BA.tab" horiz-adv-x="421" 
d="M153 0h-54v287l-87 -36v48l87 36v70l-87 -36v47l87 36v209h56v-186l116 48v-47l-116 -48v-70l116 47v-48l-116 -47v-257c117 0 168 65 180 198h53c-7 -135 -68 -251 -235 -251z" />
    <glyph glyph-name="uni20BD.tab" horiz-adv-x="421" 
d="M82 0v202h-76v46h76v77h-76v47h76v289h131c135 0 186 -74 186 -167c0 -92 -54 -169 -185 -169h-76v-77h134v-46h-134v-202h-56zM138 613v-241h77c99 0 128 59 128 121c0 68 -35 120 -129 120h-76z" />
    <glyph glyph-name="currency.cap" 
d="M199 537c36 0 67 -11 91 -33l53 60l35 -36l-58 -62c16 -29 25 -67 25 -112c0 -49 -8 -88 -23 -118l56 -62l-35 -37l-52 57c-25 -24 -57 -35 -94 -35c-35 0 -66 12 -91 35l-52 -57l-35 37l56 63c-14 30 -23 69 -23 117c0 44 9 82 25 111l-58 63l35 36l54 -60
c25 22 56 33 91 33zM197 490c-63 0 -95 -47 -95 -137c0 -103 42 -147 96 -147c61 0 96 40 96 149c0 82 -30 135 -97 135z" />
    <glyph glyph-name="dollar.cap" horiz-adv-x="410" 
d="M94 523c0 -58 25 -92 86 -126v232c-59 -7 -86 -54 -86 -106zM317 171c0 63 -30 101 -93 136v-256c59 8 93 47 93 120zM224 -88h-44v89c-97 6 -146 69 -154 170h57c8 -76 45 -113 97 -121v280c-94 47 -143 97 -143 186c0 87 53 154 143 162v67h44v-67
c104 -11 138 -89 138 -159h-57c-2 46 -22 97 -81 109v-253c112 -55 150 -114 150 -200c0 -93 -46 -164 -150 -174v-89z" />
    <glyph glyph-name="sterling.cap" horiz-adv-x="407" 
d="M375 0h-349v45c55 36 71 118 71 219c0 21 -1 44 -2 67h-86v47h83c-4 49 -7 96 -7 133c0 112 46 178 144 178c99 0 137 -69 137 -157h-52c-2 68 -34 106 -86 106c-68 0 -86 -50 -86 -124c0 -36 3 -85 6 -136h123v-47h-120c0 -20 1 -40 1 -60c0 -98 -11 -168 -51 -220h283z
" />
    <glyph glyph-name="yen.cap" horiz-adv-x="377" 
d="M324 202h-113v-202h-56v202h-109v44h109v64h-109v44h102l-151 326h65c97 -225 114 -265 123 -291h1c8 25 29 71 126 291h62l-156 -326h106v-44h-113v-64h113v-44z" />
    <glyph glyph-name="Euro.cap" horiz-adv-x="431" 
d="M344 165h55c-9 -92 -52 -173 -159 -173c-124 0 -161 97 -168 284h-58v42h57v31v32h-57v42h59c11 170 63 265 173 265c123 0 148 -101 151 -169h-57c-2 50 -18 117 -94 117c-72 0 -106 -63 -114 -213h153v-42h-155v-32v-31h155v-42h-154c5 -154 28 -232 112 -232
c71 0 95 60 101 121z" />
    <glyph glyph-name="cent.cap" horiz-adv-x="394" 
d="M303 244h55c-2 -68 -31 -147 -130 -158v-78h-45v78c-94 11 -138 93 -138 253c0 155 50 238 138 251v70h45v-69c98 -8 130 -84 131 -157h-57c-3 44 -18 96 -74 106v-403c61 12 72 72 75 107zM103 340c0 -101 19 -186 80 -202v401c-57 -15 -80 -87 -80 -199z" />
    <glyph glyph-name="florin.cap" horiz-adv-x="361" 
d="M357 699l-12 -49c-14 7 -37 10 -52 10c-49 0 -62 -44 -74 -123l-16 -109h100v-48h-107l-46 -304c-17 -118 -40 -182 -127 -182c-28 0 -51 4 -72 16l13 51c18 -10 36 -14 55 -14c46 0 58 35 72 126l46 307h-83v48h91l15 102c15 98 39 183 132 183c30 0 56 -6 65 -14z" />
    <glyph glyph-name="colonmonetary.cap" horiz-adv-x="431" 
d="M226 50c7 0 13 0 19 1v576c-5 1 -10 1 -16 1c-7 0 -14 -1 -20 -2v-575c5 -1 11 -1 17 -1zM107 356c0 -161 18 -253 64 -289v542c-44 -35 -64 -118 -64 -253zM209 -85h-38v92c-97 32 -123 158 -123 345c0 165 36 282 123 317v75h38v-65c7 1 14 1 22 1h14v64h39v-71
c80 -22 106 -95 108 -163h-58c-2 34 -11 81 -50 104v-549c39 24 48 74 52 115h56c-3 -66 -26 -147 -108 -173v-92h-39v85c-7 -1 -14 -1 -21 -1c-5 0 -10 0 -15 1v-85z" />
    <glyph glyph-name="lira.cap" horiz-adv-x="404" 
d="M375 0h-349v45c56 45 71 113 71 214v11h-83v40h82c-1 22 -3 45 -4 68h-78v41h75c-2 34 -4 66 -4 92c0 112 46 178 144 178c99 0 135 -74 137 -156h-52c-4 69 -32 106 -86 106c-68 0 -86 -51 -86 -125c0 -26 2 -59 4 -95h126v-41h-124c1 -22 3 -45 3 -68h121v-40h-120v-4
c0 -90 -14 -164 -53 -215h285z" />
    <glyph glyph-name="franc.cap" 
d="M86 0v165h-75v46h75v469h282v-51h-226v-238h209v-51h-209v-129h111v-46h-111v-165h-56z" />
    <glyph glyph-name="uni20A6.cap" horiz-adv-x="430" 
d="M104 615c3 -62 4 -118 4 -187h53l-55 187h-2zM308 386h-87l20 -65h67v65zM310 87h6c-5 68 -7 126 -7 192h-56zM108 0h-50v279h-44v42h44v65h-44v42h44v252h76l75 -252h99v252h50v-252h45v-42h-45v-65h45v-42h-45v-279h-70l-83 279h-97v-279zM193 321l-19 65h-66v-65h85z
" />
    <glyph glyph-name="peseta.cap" horiz-adv-x="431" 
d="M64 0v470h-56v45h56v165h136c111 0 167 -67 174 -165h45v-45h-45c-7 -103 -67 -172 -191 -172h-62v-298h-57zM121 633v-118h195c-7 72 -46 118 -121 118h-74zM121 347h62c88 0 128 42 133 123h-195v-123z" />
    <glyph glyph-name="dong.cap" horiz-adv-x="424" 
d="M48 -72h312v-46h-312v46zM297 703h57v-78h57v-46h-57v-452c0 -45 1 -94 2 -127h-53c-1 12 -3 42 -3 77c-16 -48 -54 -86 -123 -86c-95 0 -147 78 -147 251c0 163 63 247 159 247c67 0 95 -31 108 -59v149h-179v46h179v78zM88 242c0 -145 37 -197 102 -197
c74 0 109 50 109 211c0 145 -35 180 -104 180c-71 -1 -107 -63 -107 -194z" />
    <glyph glyph-name="dong.altcap" horiz-adv-x="424" 
d="M297 703h57v-78h57v-46h-57v-452c0 -45 1 -94 2 -127h-53c-1 12 -3 42 -3 77c-16 -48 -54 -86 -123 -86c-95 0 -147 78 -147 251c0 163 63 247 159 247c67 0 95 -31 108 -59v149h-179v46h179v78zM88 242c0 -145 37 -197 102 -197c74 0 109 50 109 211
c0 145 -35 180 -104 180c-71 -1 -107 -63 -107 -194z" />
    <glyph glyph-name="uni20B1.cap" horiz-adv-x="431" 
d="M64 0v415h-52v40h52v53h-52v39h52v133h136c97 0 152 -52 169 -133h44v-39h-39c1 -7 1 -15 1 -23c0 -10 0 -20 -1 -30h39v-40h-46c-20 -83 -79 -135 -184 -135h-62v-280h-57zM121 632v-85h189c-15 55 -53 85 -115 85h-74zM317 485c0 8 0 16 -1 23h-195v-53h195
c1 9 1 20 1 30zM121 329h62c69 0 109 31 125 86h-187v-86z" />
    <glyph glyph-name="uni20B2.cap" horiz-adv-x="442" 
d="M389 511h-56c-4 35 -12 109 -85 120v-580c36 0 61 5 80 16v277h57v-315c-30 -14 -77 -30 -137 -30v-87h-43v90c-116 18 -159 132 -159 357c0 192 47 308 159 323v69h43v-69c109 -8 140 -91 141 -171zM105 360c0 -190 31 -281 100 -303v574c-75 -17 -100 -120 -100 -271z
" />
    <glyph glyph-name="uni20B4.cap" horiz-adv-x="412" 
d="M109 518h-55c2 104 57 170 154 170c100 0 146 -65 146 -155c0 -48 -12 -83 -38 -116h56v-43h-98c-17 -15 -36 -30 -59 -47c-5 -3 -9 -7 -14 -10h157v-42h-207c-40 -39 -49 -70 -49 -119c0 -69 40 -115 100 -115c82 0 111 55 114 126h55c-5 -102 -48 -176 -171 -176
c-93 0 -156 57 -156 165c0 46 9 81 39 119h-53v42h93c18 16 39 33 65 52c2 2 5 3 7 5h-152v43h203c40 39 52 70 51 116c-1 57 -22 106 -93 106c-67 0 -91 -50 -95 -121z" />
    <glyph glyph-name="uni20B5.cap" horiz-adv-x="423" 
d="M109 356c0 -193 23 -287 92 -303v572c-66 -17 -92 -105 -92 -269zM244 -88h-43v88c-123 13 -151 142 -151 356c0 185 41 305 151 322v73h43v-71c111 -8 140 -94 142 -177h-57c-2 50 -14 115 -85 124v-576c72 11 82 81 86 133h56c-1 -75 -28 -173 -142 -184v-88z" />
    <glyph glyph-name="uni20B9.cap" horiz-adv-x="407" 
d="M37 301v50h55c93 0 156 44 156 142c0 15 -1 29 -4 42h-207v43h191c-22 35 -63 53 -122 53h-69v49h350v-45h-139c18 -15 33 -34 43 -57h96v-43h-83c2 -12 3 -26 3 -40c0 -107 -57 -167 -145 -187l175 -308h-67l-171 301h-7h-55z" />
    <glyph glyph-name="uni20BA.cap" horiz-adv-x="421" 
d="M394 251c-7 -135 -68 -251 -235 -251h-54v287l-87 -36v48l87 36v70l-87 -36v47l87 36v228h56v-205l116 48v-47l-116 -48v-70l116 47v-48l-116 -47v-257c117 0 168 65 180 198h53z" />
    <glyph glyph-name="uni20BD.cap" horiz-adv-x="429" 
d="M82 0v213h-76v45h76v78h-76v47h76v297h135c134 0 186 -76 186 -169c0 -94 -55 -175 -186 -175h-79v-78h137v-45h-137v-213h-56zM138 632v-249h81c98 0 127 65 127 126c0 69 -35 123 -129 123h-79z" />
    <glyph glyph-name="at.cap" horiz-adv-x="646" 
d="M451 -17l14 -42c-41 -28 -98 -37 -149 -37c-212 0 -271 177 -271 378c0 202 86 398 293 398c183 0 265 -122 265 -323c0 -134 -35 -287 -145 -287c-45 0 -72 20 -75 71c-21 -47 -53 -71 -98 -71c-57 0 -92 40 -92 146c0 186 49 304 136 304c51 0 69 -27 75 -55l4 46h52
l-34 -310c-7 -59 3 -83 37 -83c56 0 90 95 90 237c0 170 -61 277 -217 277c-180 0 -237 -182 -237 -350c0 -155 33 -329 222 -329c52 0 91 10 130 30zM335 470c-82 0 -89 -188 -89 -251s14 -98 50 -98c49 0 73 40 90 182c14 120 4 167 -51 167z" />
    <glyph glyph-name="emdash.cap" horiz-adv-x="669" 
d="M41 376h588v-51h-588v51z" />
    <glyph glyph-name="endash.cap" horiz-adv-x="397" 
d="M41 376h317v-51h-317v51z" />
    <glyph glyph-name="hyphen.cap" horiz-adv-x="271" 
d="M36 377h199v-52h-199v52z" />
    <glyph glyph-name="uni00AD.cap" horiz-adv-x="271" 
d="M36 377h199v-52h-199v52z" />
    <glyph glyph-name="exclamdown.cap" horiz-adv-x="182" 
d="M55 466h51l5 -347v-120h-62v121zM51 682h60v-99h-60v99z" />
    <glyph glyph-name="questiondown.cap" horiz-adv-x="328" 
d="M27 150c0 72 23 116 76 187c37 50 48 90 48 133v7h56v-13c0 -47 -11 -93 -67 -167c-44 -60 -56 -98 -56 -146c0 -60 22 -112 89 -112c59 0 89 50 92 129h54c-2 -73 -27 -178 -149 -178c-103 0 -143 70 -143 160zM151 679h56v-115h-56v115z" />
    <glyph glyph-name="guillemotleft.cap" horiz-adv-x="386" 
d="M210 514l-118 -171l119 -172h-55l-120 172l120 171h54zM349 514l-118 -171l119 -172h-55l-120 172l120 171h54z" />
    <glyph glyph-name="guillemotright.cap" horiz-adv-x="386" 
d="M177 171l117 171l-118 172h54l120 -172l-120 -171h-53zM37 171l118 171l-119 172h55l120 -172l-120 -171h-54z" />
    <glyph glyph-name="guilsinglleft.cap" horiz-adv-x="256" 
d="M224 514l-125 -171l126 -172h-58l-126 172l126 171h57z" />
    <glyph glyph-name="guilsinglright.cap" horiz-adv-x="256" 
d="M42 171l124 171l-125 172h56l128 -172l-128 -171h-55z" />
    <glyph glyph-name="parenleft.cap" horiz-adv-x="259" 
d="M168 743h57c-68 -101 -127 -229 -127 -421c0 -176 46 -307 127 -433h-57c-60 88 -125 233 -125 434c0 198 69 336 125 420z" />
    <glyph glyph-name="parenright.cap" horiz-adv-x="259" 
d="M85 -111h-57c68 101 127 229 127 421c0 175 -46 307 -127 433h57c61 -88 126 -233 126 -434c0 -198 -69 -336 -126 -420z" />
    <glyph glyph-name="braceleft.cap" horiz-adv-x="303" 
d="M24 290v50c87 0 99 35 99 104l-5 151c0 104 48 147 137 147h21v-47h-15c-64 0 -89 -27 -89 -100l5 -142c1 -78 -17 -125 -72 -137c59 -16 73 -55 72 -139l-5 -142c0 -79 33 -98 87 -99h17v-48h-23c-76 0 -135 32 -135 143l5 156c0 67 -10 103 -99 103z" />
    <glyph glyph-name="braceright.cap" horiz-adv-x="303" 
d="M279 340v-50c-87 0 -99 -36 -99 -104l5 -151c0 -104 -48 -147 -137 -147h-20v47h14c64 0 89 27 89 99l-5 143c-1 77 17 125 72 137c-58 16 -73 55 -72 138l5 143c0 78 -33 98 -87 99h-16v48h22c76 0 135 -33 135 -144l-5 -156c0 -66 7 -102 99 -102z" />
    <glyph glyph-name="bracketleft.cap" horiz-adv-x="269" 
d="M241 -111h-175v854h175v-49h-123v-756h123v-49z" />
    <glyph glyph-name="bracketright.cap" horiz-adv-x="269" 
d="M28 722h175v-854h-175v49h123v756h-123v49z" />
    <glyph glyph-name="bullet.cap" horiz-adv-x="238" 
d="M57 413h130v-137h-130v137z" />
    <glyph glyph-name="periodcentered.cap" horiz-adv-x="132" 
d="M94 281h-56v132h56v-132z" />
    <glyph glyph-name="bulletoperator.cap" horiz-adv-x="132" 
d="M94 281h-56v132h56v-132z" />
    <glyph glyph-name="fraction" unicode="&#x2044;" horiz-adv-x="115" 
d="M-99 0h-46l359 661h46z" />
    <glyph glyph-name="uni2215" unicode="&#x2215;" horiz-adv-x="115" 
d="M-99 0h-46l359 661h46z" />
    <glyph glyph-name="slash.frac" horiz-adv-x="115" 
d="M-99 0h-46l359 661h46z" />
    <glyph glyph-name="percent" unicode="%" horiz-adv-x="647" 
d="M158 669c74 0 118 -53 118 -179c0 -115 -32 -188 -120 -189c-87 0 -118 71 -118 186c0 119 45 182 120 182zM157 625c-46 0 -70 -38 -70 -137c0 -102 23 -143 71 -143c47 0 69 41 69 144c0 89 -18 136 -70 136zM166 0h-49l363 661h49zM491 359c74 0 118 -56 118 -179
c0 -116 -32 -189 -120 -190c-87 0 -118 69 -118 187c0 116 46 182 120 182zM490 314c-46 0 -70 -43 -70 -137c0 -101 24 -143 71 -143s69 41 69 144c0 86 -18 136 -70 136z" />
    <glyph glyph-name="percent.alt" horiz-adv-x="420" 
d="M99 387c-46 0 -76 31 -76 121c0 75 32 114 77 114c51 0 79 -39 79 -112c0 -95 -35 -123 -80 -123zM101 590c-25 0 -43 -22 -43 -82c0 -67 14 -89 43 -89s43 22 43 88c0 61 -15 83 -43 83zM83 214l220 400h34l-220 -400h-34zM316 206c-46 0 -76 29 -76 121
c0 74 31 114 77 114c51 0 78 -41 78 -112c0 -95 -34 -123 -79 -123zM317 408c-25 0 -43 -21 -43 -80c0 -67 15 -91 44 -91s42 26 42 90c0 59 -14 81 -43 81z" />
    <glyph glyph-name="perthousand" unicode="&#x2030;" horiz-adv-x="928" 
d="M772 359c74 0 118 -56 118 -179c0 -116 -32 -189 -120 -190c-87 0 -118 69 -118 187c0 116 46 182 120 182zM771 314c-46 0 -70 -43 -70 -137c0 -101 24 -143 71 -143s70 41 70 144c0 86 -19 136 -71 136zM158 669c74 0 118 -53 118 -179c0 -115 -32 -188 -120 -189
c-87 0 -118 71 -118 186c0 119 45 182 120 182zM157 625c-46 0 -70 -38 -70 -137c0 -102 23 -143 71 -143c47 0 69 41 69 144c0 89 -18 136 -70 136zM166 0h-49l363 661h49zM491 359c74 0 118 -56 118 -179c0 -116 -32 -189 -120 -190c-87 0 -118 69 -118 187
c0 116 46 182 120 182zM490 314c-46 0 -70 -43 -70 -137c0 -101 24 -143 71 -143s69 41 69 144c0 86 -18 136 -70 136z" />
    <glyph glyph-name="onequarter" unicode="&#xbc;" horiz-adv-x="582" 
d="M113 2h-46l359 661h46zM135 296h-46v311c-16 -11 -52 -20 -65 -21v38c36 6 66 26 81 41h30v-369zM496 3h-44v99h-152v35l141 230h55v-227h47l-4 -38h-43v-99zM348 140h104v93c0 20 1 68 2 89c-17 -32 -74 -127 -106 -182z" />
    <glyph glyph-name="onehalf" unicode="&#xbd;" horiz-adv-x="617" 
d="M108 0h-46l359 661h46zM136 296h-46v311c-16 -11 -52 -20 -65 -21v38c36 6 66 26 81 41h30v-369zM572 2h-217v4c0 55 38 115 106 171c48 43 57 67 57 96c0 28 -11 59 -55 59c-38 0 -58 -22 -61 -74h-44c2 62 32 114 108 114c77 0 100 -55 100 -97c0 -52 -20 -77 -76 -127
c-49 -44 -74 -74 -82 -105h172z" />
    <glyph glyph-name="threequarters" unicode="&#xbe;" horiz-adv-x="649" 
d="M193 0h-46l359 661h46zM567 1h-44v99h-152v35l141 230h55v-227h47l-4 -38h-43v-99zM419 138h104v93c0 20 1 68 2 89c-17 -32 -74 -127 -106 -182zM114 473v39h21c44 0 67 22 67 58c0 27 -12 56 -57 56c-46 0 -57 -33 -62 -58h-42c3 34 24 97 107 97c67 0 100 -38 100 -92
c0 -46 -30 -69 -51 -77c33 -9 65 -38 65 -91c0 -64 -40 -113 -116 -113c-98 0 -116 73 -117 108h44c4 -32 22 -69 73 -69c46 0 69 27 69 73c0 52 -34 69 -84 69h-17z" />
    <glyph glyph-name="onethird" unicode="&#x2153;" horiz-adv-x="611" 
d="M110 2h-46l359 661h46zM131 296h-46v311c-16 -11 -52 -20 -65 -21v38c36 6 66 26 81 41h30v-369zM425 178v39h21c44 0 67 22 67 58c0 27 -12 56 -57 56c-46 0 -57 -33 -62 -58h-42c3 34 24 97 107 97c67 0 100 -38 100 -92c0 -46 -30 -69 -51 -77c33 -9 65 -38 65 -91
c0 -64 -40 -113 -116 -113c-98 0 -116 73 -117 108h44c4 -32 22 -69 73 -69c46 0 69 27 69 73c0 52 -34 69 -84 69h-17z" />
    <glyph glyph-name="twothirds" unicode="&#x2154;" horiz-adv-x="671" 
d="M182 2h-46l359 661h46zM241 296h-217v4c0 55 38 115 106 171c48 43 57 67 57 96c0 28 -11 59 -55 59c-38 0 -58 -22 -61 -74h-44c2 62 32 114 108 114c77 0 100 -55 100 -97c0 -52 -20 -77 -76 -127c-49 -44 -74 -74 -82 -105h172zM489 179v39h21c44 0 67 22 67 58
c0 27 -12 56 -57 56c-46 0 -57 -33 -62 -58h-42c3 34 24 97 107 97c67 0 100 -38 100 -92c0 -46 -30 -69 -51 -77c33 -9 65 -38 65 -91c0 -64 -40 -113 -116 -113c-98 0 -116 73 -117 108h44c4 -32 22 -69 73 -69c46 0 69 27 69 73c0 52 -34 69 -84 69h-17z" />
    <glyph glyph-name="oneeighth" unicode="&#x215b;" horiz-adv-x="600" 
d="M103 2h-46l359 661h46zM137 296h-46v311c-16 -11 -52 -20 -65 -21v38c36 6 66 26 81 41h30v-369zM446 -4c-75 0 -112 50 -112 108c0 53 31 82 57 93c-25 13 -44 39 -44 79c0 51 34 95 103 95c66 0 98 -42 98 -94c0 -41 -17 -66 -44 -78c31 -13 57 -43 57 -93
c0 -65 -42 -110 -115 -110zM447 34c46 0 68 29 68 74c0 50 -29 70 -67 70c-41 0 -69 -25 -69 -71c0 -38 23 -73 68 -73zM448 333c-40 0 -56 -27 -56 -57c0 -33 15 -61 57 -61c35 0 54 21 54 59c0 36 -17 59 -55 59z" />
    <glyph glyph-name="threeeighths" unicode="&#x215c;" horiz-adv-x="657" 
d="M170 2h-46l359 661h46zM505 -3c-75 0 -112 50 -112 108c0 53 31 82 57 93c-25 13 -44 39 -44 79c0 51 34 95 103 95c66 0 98 -42 98 -94c0 -41 -17 -66 -44 -78c31 -13 57 -43 57 -93c0 -65 -42 -110 -115 -110zM506 35c46 0 68 29 68 74c0 50 -29 70 -67 70
c-41 0 -69 -25 -69 -71c0 -38 23 -73 68 -73zM507 334c-40 0 -56 -27 -56 -57c0 -33 15 -61 57 -61c35 0 54 21 54 59c0 36 -17 59 -55 59zM104 473v39h21c44 0 67 22 67 58c0 27 -12 56 -57 56c-46 0 -57 -33 -62 -58h-42c3 34 24 97 107 97c67 0 100 -38 100 -92
c0 -46 -30 -69 -51 -77c33 -9 65 -38 65 -91c0 -64 -40 -113 -116 -113c-98 0 -116 73 -117 108h44c4 -32 22 -69 73 -69c46 0 69 27 69 73c0 52 -34 69 -84 69h-17z" />
    <glyph glyph-name="fiveeighths" unicode="&#x215d;" horiz-adv-x="679" 
d="M187 2h-46l359 661h46zM251 661l-8 -40h-141c-3 -35 -9 -88 -13 -112c14 16 38 31 73 31c65 0 102 -43 102 -119c0 -70 -39 -129 -117 -129c-74 0 -110 47 -113 103h45c4 -34 24 -64 68 -64c51 0 69 39 69 88c0 53 -16 81 -64 81c-36 0 -53 -17 -66 -43l-43 10
c9 50 18 156 22 194h186zM522 -4c-75 0 -112 50 -112 108c0 53 31 82 57 93c-25 13 -44 39 -44 79c0 51 34 95 103 95c66 0 98 -42 98 -94c0 -41 -17 -66 -44 -78c31 -13 57 -43 57 -93c0 -65 -42 -110 -115 -110zM523 34c46 0 68 29 68 74c0 50 -29 70 -67 70
c-41 0 -69 -25 -69 -71c0 -38 23 -73 68 -73zM524 333c-40 0 -56 -27 -56 -57c0 -33 15 -61 57 -61c35 0 54 21 54 59c0 36 -17 59 -55 59z" />
    <glyph glyph-name="seveneighths" unicode="&#x215e;" horiz-adv-x="616" 
d="M104 1h-46l359 661h46zM463 -4c-75 0 -112 50 -112 108c0 53 31 82 57 93c-25 13 -44 39 -44 79c0 51 34 95 103 95c66 0 98 -42 98 -94c0 -41 -17 -66 -44 -78c31 -13 57 -43 57 -93c0 -65 -42 -110 -115 -110zM464 34c46 0 68 29 68 74c0 50 -29 70 -67 70
c-41 0 -69 -25 -69 -71c0 -38 23 -73 68 -73zM465 333c-40 0 -56 -27 -56 -57c0 -33 15 -61 57 -61c35 0 54 21 54 59c0 36 -17 59 -55 59zM26 663h218v-33c-55 -77 -111 -204 -131 -332h-48c20 132 87 269 127 325h-166v40z" />
    <glyph glyph-name="plus" unicode="+" horiz-adv-x="508" 
d="M230 466h50v-193h184v-48h-184v-196h-50v196h-186v48h186v193z" />
    <glyph glyph-name="minus" unicode="&#x2212;" horiz-adv-x="516" 
d="M467 225h-418v48h418v-48z" />
    <glyph glyph-name="multiply" unicode="&#xd7;" horiz-adv-x="518" 
d="M465 72l-34 -36l-172 178l-173 -178l-33 36l172 177l-172 178l32 35l173 -178l173 178l34 -35l-172 -178z" />
    <glyph glyph-name="divide" unicode="&#xf7;" horiz-adv-x="516" 
d="M283 29h-50v98h50v-98zM467 225h-418v48h418v-48zM284 369h-51v98h51v-98z" />
    <glyph glyph-name="uni2219" unicode="&#x2219;" horiz-adv-x="132" 
d="M94 199h-56v132h56v-132z" />
    <glyph glyph-name="equal" unicode="=" horiz-adv-x="516" 
d="M49 182h418v-48h-418v48zM49 369h418v-50h-418v50z" />
    <glyph glyph-name="less" unicode="&#x3c;" horiz-adv-x="442" 
d="M57 224v50l328 192v-55l-281 -161l281 -164v-56z" />
    <glyph glyph-name="greater" unicode="&#x3e;" horiz-adv-x="442" 
d="M385 272v-50l-328 -192v55l281 161l-281 164v56z" />
    <glyph glyph-name="lessequal" unicode="&#x2264;" horiz-adv-x="528" 
d="M66 299v48l397 188v-54l-341 -157l341 -161v-53zM463 0h-397v48h397v-48z" />
    <glyph glyph-name="greaterequal" unicode="&#x2265;" horiz-adv-x="528" 
d="M463 346v-48l-397 -188v54l341 156l-341 161v54zM463 0h-397v48h397v-48z" />
    <glyph glyph-name="plusminus" unicode="&#xb1;" horiz-adv-x="516" 
d="M235 531h48v-187h184v-46h-184v-190h-48v190h-186v46h186v187zM467 0h-418v46h418v-46z" />
    <glyph glyph-name="asciicircum" unicode="^" horiz-adv-x="363" 
d="M337 340h-52l-106 271l-102 -271h-51l129 321h52z" />
    <glyph glyph-name="notequal" unicode="&#x2260;" horiz-adv-x="516" 
d="M397 462l-51 -93h121v-50h-149l-75 -137h224v-48h-250l-52 -94h-49l52 94h-119v48h145l75 137h-220v50h248l51 93h49z" />
    <glyph glyph-name="asciitilde" unicode="~" horiz-adv-x="476" 
d="M100 194h-44v21c-1 65 33 94 80 94c79 0 149 -70 204 -70c26 0 34 17 34 53v15h46v-17c0 -80 -38 -99 -79 -99c-70 0 -146 72 -202 72c-25 0 -39 -18 -39 -53v-16z" />
    </font>
</defs>
</svg>
